<?xml version="1.0" encoding="utf-8"?>
<!-- Generator: Adobe Illustrator 21.1.0, SVG Export Plug-In . SVG Version: 6.00 Build 0)  -->
<svg version="1.1" baseProfile="basic" id="Layer_1"
	 xmlns="http://www.w3.org/2000/svg" xmlns:xlink="http://www.w3.org/1999/xlink" x="0px" y="0px" viewBox="0 0 180 120"
	 xml:space="preserve">
<style type="text/css">
	.st0{fill:#F5FAFF;}
	.st1{fill:#FF637D;}
	.st2{opacity:0.1;}
	.st3{fill:#EDC418;}
	.st4{opacity:0.36;fill:none;stroke:#FFFFFF;stroke-miterlimit:10;}
	.st5{opacity:0.32;fill:none;stroke:#97CBF2;stroke-linecap:round;stroke-linejoin:round;stroke-miterlimit:10;}
	.st6{fill:none;stroke:#97CBF2;stroke-linecap:round;stroke-linejoin:round;stroke-miterlimit:10;}
	.st7{fill:#EFC100;stroke:#EFC100;stroke-linecap:round;stroke-linejoin:round;stroke-miterlimit:10;}
	.st8{fill:#0081E0;}
	.st9{fill:#FDFCFF;}
	.st10{fill:#F0C200;}
	.st11{fill:#E9A800;}
	.st12{fill:#FFFFFF;}
	.st13{fill:#CCCCCC;stroke:#CCCCCC;stroke-miterlimit:10;}
	.st14{fill:#E2B80A;}
	.st15{fill:#BFE0F8;}
	.st16{fill:#0080DF;stroke:#0080DF;stroke-width:2;stroke-linecap:round;stroke-linejoin:round;stroke-miterlimit:10;}
	.st17{fill:#FF8400;}
	.st18{fill:#60AF00;}
</style>
<path class="st0" d="M10.8,57.7c0,0-12.5-12.7,6.5-14.1c19-1.3,3.7-26.1,31.3-21.2C76.2,27.4,31.5,3.8,70,9.5
	c38.6,5.8,28.2-16.7,69.9-3.7c41.7,13,42.3,79.6,14.3,72.8c-27.9-6.8,19.8,39.8-5.3,32.6c-25.1-7.2-59.7,17.1-94.9,5
	c-35.2-12.1-18.8-9.6-28.7-28.9C12.6,62.4,10.8,57.7,10.8,57.7z"/>
<circle class="st1" cx="86.6" cy="60.1" r="5.6"/>
<path class="st1" d="M86.6,26.9c-18.3,0-33.2,14.9-33.2,33.2c0,18.3,14.9,33.2,33.2,33.2c18.3,0,33.2-14.9,33.2-33.2
	C119.8,41.8,104.9,26.9,86.6,26.9z M86.6,86.4c-14.5,0-26.3-11.8-26.3-26.3c0-14.5,11.8-26.3,26.3-26.3c14.5,0,26.3,11.8,26.3,26.3
	C112.9,74.7,101.1,86.4,86.6,86.4z"/>
<path class="st1" d="M86.6,40.7c-10.7,0-19.4,8.7-19.4,19.4c0,10.7,8.7,19.4,19.4,19.4c10.7,0,19.4-8.7,19.4-19.4
	C106,49.4,97.3,40.7,86.6,40.7z M86.6,73.7c-7.5,0-13.6-6.1-13.6-13.6c0-7.5,6.1-13.6,13.6-13.6c7.5,0,13.6,6.1,13.6,13.6
	C100.2,67.6,94.1,73.7,86.6,73.7z"/>
<polygon class="st2" points="91.6,49.1 86.6,60.8 97.9,60.1 95,56.2 117.3,38.7 122.7,40.5 129.7,35.3 123.8,32.1 123.2,26.1 
	116.7,31.2 116.3,36.2 94.2,53.7 "/>
<polygon class="st3" points="90.1,47.9 86.6,60.1 97.8,58 94.3,54.5 114.2,34.3 119.8,35.4 126.1,29.3 119.8,26.9 118.5,21.1 
	112.6,26.9 112.9,32 93.2,52.2 "/>
<circle class="st4" cx="77.8" cy="37.9" r="1.8"/>
<circle class="st5" cx="145.1" cy="29" r="2.9"/>
<circle class="st6" cx="125.1" cy="88.3" r="3.1"/>
<line class="st7" x1="69.6" y1="95.5" x2="73.6" y2="99.5"/>
<line class="st7" x1="73.6" y1="95.5" x2="69.6" y2="99.5"/>
<circle class="st8" cx="98.8" cy="91.7" r="8.7"/>
<path class="st9" d="M98.8,87.3c-3.1,0-5.6,2.1-5.6,4.8c0,1.5,0.8,2.8,2,3.6l-0.1,1.6l1.6-0.8c0.7,0.2,1.4,0.4,2.1,0.4
	c3.1,0,5.6-2.1,5.6-4.8C104.4,89.4,101.9,87.3,98.8,87.3z M96.4,92.9c-0.4,0-0.7-0.3-0.7-0.7c0-0.4,0.3-0.7,0.7-0.7
	c0.4,0,0.7,0.3,0.7,0.7C97.1,92.6,96.8,92.9,96.4,92.9z M98.8,92.9c-0.4,0-0.7-0.3-0.7-0.7c0-0.4,0.3-0.7,0.7-0.7
	c0.4,0,0.7,0.3,0.7,0.7C99.5,92.6,99.2,92.9,98.8,92.9z M101.3,92.9c-0.4,0-0.7-0.3-0.7-0.7c0-0.4,0.3-0.7,0.7-0.7
	c0.4,0,0.7,0.3,0.7,0.7C102,92.6,101.6,92.9,101.3,92.9z"/>
<g>
	<rect x="130.9" y="63.7" class="st10" width="16.8" height="0"/>
	<polygon class="st11" points="139.3,46.9 130.9,53.3 147.7,53.3 	"/>
	<polygon class="st11" points="139.3,57.1 141.2,58.5 147.7,53.3 130.9,53.3 137.5,58.5 	"/>
	<polygon class="st10" points="137.5,58.5 139.3,60 141.2,58.5 139.3,57.1 	"/>
	<rect x="132.5" y="48.5" class="st12" width="12.6" height="12.1"/>
	<line class="st13" x1="134.7" y1="51.3" x2="138" y2="51.3"/>
	<line class="st13" x1="134.7" y1="53.5" x2="143.1" y2="53.5"/>
	<line class="st13" x1="134.7" y1="55.1" x2="143.1" y2="55.1"/>
	<line class="st13" x1="134.1" y1="57.1" x2="143" y2="57.1"/>
	<polygon class="st14" points="139.3,60 137.5,58.5 130.9,63.7 147.7,63.7 141.2,58.5 	"/>
	<polygon class="st3" points="130.9,53.3 130.9,63.7 137.5,58.5 	"/>
	<polygon class="st3" points="141.2,58.5 147.7,63.7 147.7,53.3 	"/>
</g>
<circle class="st15" cx="45.2" cy="65.5" r="3.7"/>
<circle class="st8" cx="43.8" cy="64.4" r="4.4"/>
<g>
	<line class="st16" x1="44.6" y1="43.9" x2="51.8" y2="43.9"/>
	<line class="st16" x1="48.2" y1="40.3" x2="48.2" y2="47.4"/>
</g>
<rect x="49.6" y="95.3" transform="matrix(0.3671 -0.9302 0.9302 0.3671 -58.4634 112.819)" class="st17" width="8.1" height="8.1"/>
<g>
	<polygon class="st15" points="122.6,47 128,50.1 122.6,53.3 	"/>
	<polygon class="st18" points="122.6,46.4 128,49.5 122.6,52.6 	"/>
</g>
</svg>
