<?xml version="1.0" encoding="utf-8"?>
<!-- Generator: Adobe Illustrator 21.1.0, SVG Export Plug-In . SVG Version: 6.00 Build 0)  -->
<svg version="1.1" baseProfile="basic" id="Layer_1"
	 xmlns="http://www.w3.org/2000/svg" xmlns:xlink="http://www.w3.org/1999/xlink" x="0px" y="0px" viewBox="0 0 150 150"
	 xml:space="preserve">
<style type="text/css">
	.st0{fill:#F2F5F8;}
	.st1{fill:none;stroke:#B0B9CB;}
	.st2{fill:#FFFFFF;stroke:#0080FF;stroke-linecap:round;stroke-linejoin:round;}
	.st3{fill:#D8E9FF;stroke:#0080FF;stroke-linecap:round;stroke-linejoin:round;}
	.st4{fill:none;stroke:#B0B9CB;stroke-linecap:round;stroke-linejoin:round;}
</style>
<ellipse class="st0" cx="126.7" cy="43" rx="3.6" ry="3.5"/>
<ellipse class="st1" cx="125.4" cy="41.9" rx="4.2" ry="4.1"/>
<path class="st2" d="M57.2,93.2c-1.4-1.4-1.6-3.5-0.5-4.7c-1.2,1.2-3.3,1-4.8-0.5c-1.4-1.4-1.6-3.5-0.5-4.7l7.3-7.2
	c0.1-0.1,0.3-0.2,0.4-0.3c0.2-0.3,0.4-0.5,0.7-0.8L79,56.2c4.9-4.8,13.5-4.1,19.3,1.6c5.8,5.7,6.5,14.3,1.6,19.1L80.8,95.7
	c-0.2,0.2-0.5,0.5-0.8,0.7c-0.1,0.1-0.2,0.3-0.3,0.4l-7.3,7.2c-1.2,1.2-3.3,1-4.8-0.5c-1.4-1.4-1.6-3.5-0.5-4.7
	c-1.2,1.2-3.3,1-4.8-0.5c-1.2-1.2-1.6-2.9-0.9-4.1c0,0-0.1,0-0.1-0.1c0,0-0.1-0.1-0.1-0.1C60.2,94.7,58.5,94.4,57.2,93.2z"/>
<path class="st2" d="M84.5,61c2.2,2.1,5.7,2.1,7.9,0"/>
<g>
	<path class="st3" d="M90.6,93c1.4-1.4,1.6-3.5,0.5-4.7c1.2,1.2,3.3,1,4.8-0.5c1.4-1.4,1.6-3.5,0.5-4.7L89,75.9
		c-0.1-0.1-0.3-0.2-0.4-0.3c-0.2-0.3-0.4-0.5-0.7-0.8L68.8,56c-4.9-4.8-13.5-4.1-19.3,1.6c-5.8,5.7-6.5,14.3-1.6,19.1L67,95.5
		c0.2,0.2,0.5,0.5,0.8,0.7c0.1,0.1,0.2,0.3,0.3,0.4l7.3,7.2c1.2,1.2,3.3,1,4.8-0.5c1.4-1.4,1.6-3.5,0.5-4.7c1.2,1.2,3.3,1,4.8-0.5
		c1.2-1.2,1.6-2.9,0.9-4.1c0,0,0.1,0,0.1-0.1c0,0,0-0.1,0.1-0.1C87.6,94.5,89.3,94.2,90.6,93z"/>
	<line class="st3" x1="91" y1="88.2" x2="82.7" y2="80"/>
	<line class="st3" x1="85.8" y1="93.4" x2="77.5" y2="85.2"/>
	<line class="st3" x1="80.6" y1="98.5" x2="72.3" y2="90.3"/>
</g>
<path class="st2" d="M52,88c1.4,1.4,3.8,1.4,5.2,0l5.3-5.2c1.4-1.4,1.4-3.7,0-5.2l0,0c-1.4-1.4-3.8-1.4-5.2,0L52,82.9
	C50.5,84.3,50.5,86.6,52,88L52,88z"/>
<path class="st2" d="M57.2,93.2c1.4,1.4,3.8,1.4,5.2,0l5.3-5.2c1.4-1.4,1.4-3.7,0-5.2l0,0c-1.4-1.4-3.8-1.4-5.2,0L57.2,88
	C55.8,89.5,55.8,91.8,57.2,93.2L57.2,93.2z"/>
<path class="st2" d="M62.5,98.4c1.4,1.4,3.8,1.4,5.2,0l5.3-5.2c1.4-1.4,1.4-3.7,0-5.2l0,0c-1.4-1.4-3.8-1.4-5.2,0l-5.3,5.2
	C61,94.6,61,96.9,62.5,98.4L62.5,98.4z"/>
<path class="st2" d="M67.7,103.5c1.4,1.4,3.8,1.4,5.2,0l5.3-5.2c1.4-1.4,1.4-3.7,0-5.2l0,0c-1.4-1.4-3.8-1.4-5.2,0l-5.3,5.2
	C66.2,99.8,66.2,102.1,67.7,103.5L67.7,103.5z"/>
<path class="st2" d="M79.3,55.9L66.7,68.3c-1.4,1.4-1.4,3.7,0,5.2l0,0c1.4,1.4,3.8,1.4,5.2,0L84.5,61"/>
<rect x="109.8" y="69.1" class="st4" width="33.8" height="34.9"/>
<rect x="115.9" y="85" class="st4" width="5.4" height="10.8"/>
<rect x="125.7" y="79.7" class="st4" width="5.2" height="16.8"/>
<rect x="134.6" y="76.9" class="st4" width="5.2" height="19.6"/>
<path class="st4" d="M30,89.7c-4.1,3.8-10.6,3.5-14.4-0.6c-3.8-4.1-3.6-10.5,0.6-14.3c4.1-3.8,10.6-3.5,14.4,0.6
	C34.4,79.6,34.1,85.9,30,89.7z"/>
<path class="st4" d="M53.3,106.7c-3-3.2-6.2-6.4-9.1-9.8c-1.7-2-4.3-2.1-6-3.9c-1.1-1.2-2.3-2.4-3.4-3.7l0,0
	c3.1-5,2.6-11.7-1.6-16.2c-5.1-5.5-13.8-5.8-19.3-0.7C8.2,77.5,7.9,86,13,91.5c5.1,5.5,13.8,5.8,19.3,0.7c0.9,1,1.8,2,2.8,3
	c0.6,0.6,1.2,1.2,1.6,2c0.6,1.5,0.4,2.9,1.6,4.1c0.8,0.8,1.6,1.7,2.4,2.6c2,2,3.9,4.2,5.8,6.2c0.5,0.5,0.9,1,1.4,1.5
	c0.4,0.4,1,0.4,1.5,0.1l3.9-3.5C53.7,107.7,53.7,107.1,53.3,106.7z"/>
<line class="st4" x1="107.8" y1="55.9" x2="111.8" y2="55.9"/>
<line class="st4" x1="109.8" y1="53.9" x2="109.8" y2="57.8"/>
<polygon class="st4" points="82.2,38.2 86.9,40.9 82.2,43.6 "/>
<rect x="128.7" y="58.8" class="st4" width="4.5" height="4.4"/>
</svg>
