<?xml version="1.0" encoding="utf-8"?>
<!-- Generator: Adobe Illustrator 21.1.0, SVG Export Plug-In . SVG Version: 6.00 Build 0)  -->
<svg version="1.1" baseProfile="basic" id="Layer_1"
	 xmlns="http://www.w3.org/2000/svg" xmlns:xlink="http://www.w3.org/1999/xlink" x="0px" y="0px" viewBox="0 0 200 200"
	 xml:space="preserve">
<style type="text/css">
	.st0{fill:#FFFFFF;}
	.st1{fill:#EEEEEE;}
	.st2{fill:#CCCCCC;}
	.st3{fill:#FF8953;}
	.st4{opacity:7.000000e-02;}
	.st5{fill:#F0C200;}
	.st6{fill:#FFFFFF;stroke:#475A71;stroke-width:0.3621;stroke-linecap:round;stroke-linejoin:round;stroke-miterlimit:10;}
	.st7{fill:none;stroke:#475A71;stroke-width:0.3621;stroke-linecap:square;stroke-linejoin:round;stroke-miterlimit:10;}
	.st8{fill:none;stroke:#FFFFFF;stroke-linecap:round;stroke-linejoin:round;stroke-miterlimit:10;}
	.st9{fill:#60B000;}
	.st10{opacity:7.000000e-02;fill:none;stroke:#FFFFFF;stroke-miterlimit:10;}
	.st11{opacity:0.36;fill:none;stroke:#FFFFFF;stroke-miterlimit:10;}
	.st12{fill:#FFB491;}
	.st13{fill:none;}
	.st14{fill:none;stroke:#FFFFFF;stroke-miterlimit:10;}
</style>
<path class="st0" d="M149.3,163.7H41.5c-1.7,0-3-1.3-3-3V69.1c0-1.7,1.3-3,3-3h107.8c1.6,0,3,1.3,3,3v91.6
	C152.3,162.4,150.9,163.7,149.3,163.7z"/>
<g>
	<path class="st0" d="M40.3,68.9l2-1.7C41.6,67.7,40.9,68.3,40.3,68.9z"/>
	<path class="st0" d="M148.1,67.1l2,1.5C149.5,67.9,148.9,67.5,148.1,67.1z"/>
	<path class="st1" d="M144.5,163.7c4.3,0,7.8-3.5,7.8-7.8V73.9c0-1-0.2-2-0.6-2.9H39.1c-0.4,0.9-0.6,1.9-0.6,2.9V156
		c0,4.3,3.5,7.8,7.8,7.8H144.5"/>
	<path class="st2" d="M144.5,66.1c1.3,0,2.5,0.4,3.6,0.9l-29.8-22.3H68.5L42.3,67.2c1.2-0.7,2.5-1.1,3.9-1.1H144.5z"/>
	<path class="st2" d="M150.1,68.6l-2-1.5c-1.1-0.6-2.3-0.9-3.6-0.9H46.3c-1.4,0-2.8,0.4-3.9,1.1l-2,1.7c-0.5,0.6-1,1.3-1.3,2h112.6
		C151.3,70.1,150.8,69.3,150.1,68.6z"/>
</g>
<polygon class="st3" points="92.4,44.8 83.3,65.7 83.3,116.5 105.3,116.5 105.3,66.1 98.2,44.8 "/>
<path class="st4" d="M67.4,157h-55c-1.6,0-3-1.4-3-3v-38c0-1.7,1.4-3,3-3h55c1.6,0,3,1.3,3,3v38C70.4,155.7,69,157,67.4,157z"/>
<path class="st5" d="M64.8,154.5h-55c-1.7,0-3-1.4-3-3v-38c0-1.7,1.3-3,3-3h55c1.7,0,3,1.3,3,3v38C67.8,153.1,66.5,154.5,64.8,154.5
	z"/>
<circle class="st6" cx="57" cy="120.9" r="2.9"/>
<path class="st7" d="M52.9,110.5c1.1-1.1,2.2-2.2,3.4-3.1c1.3-1.1,3.7-3.1,5.6-2.6c2,0.6,1.7,3.8,1.4,5.4c-0.5,2.9-2.3,5.5-4,7.8"/>
<circle class="st3" cx="21.9" cy="125.4" r="4.5"/>
<line class="st8" x1="19.1" y1="137.2" x2="30.5" y2="137.2"/>
<line class="st8" x1="19.1" y1="145.4" x2="47.3" y2="145.4"/>
<circle class="st4" cx="144.6" cy="73.3" r="27"/>
<g>
	<circle class="st9" cx="147.1" cy="70.8" r="27"/>
	<polyline class="st8" points="138,70.8 145.8,77.8 158.9,64.2 	"/>
</g>
<circle class="st5" cx="175.9" cy="160.5" r="6.5"/>
<circle class="st10" cx="160.3" cy="110.5" r="6"/>
<circle class="st11" cx="190.7" cy="120.9" r="4.5"/>
<circle class="st5" cx="134.8" cy="182.5" r="2.3"/>
<circle class="st12" cx="6.8" cy="101.7" r="2.8"/>
<circle class="st12" cx="21.9" cy="44.8" r="8.4"/>
<circle class="st13" cx="49.8" cy="19.9" r="4.3"/>
<circle class="st14" cx="103.5" cy="24.2" r="2.7"/>
</svg>
