<?xml version="1.0" encoding="utf-8"?>
<!-- Generator: Adobe Illustrator 21.1.0, SVG Export Plug-In . SVG Version: 6.00 Build 0)  -->
<svg version="1.1" baseProfile="basic" id="Layer_1"
	 xmlns="http://www.w3.org/2000/svg" xmlns:xlink="http://www.w3.org/1999/xlink" x="0px" y="0px" viewBox="0 0 150 150"
	 xml:space="preserve">
<style type="text/css">
	.st0{fill:#F2F5F8;}
	.st1{fill:none;stroke:#B0B9CB;}
	.st2{fill:#F4F8FB;}
	.st3{fill:#CBDFFF;}
	.st4{fill:#F4F7FA;}
	.st5{fill:#B1D1FF;}
	.st6{fill:#D8E9FF;stroke:#0080FF;stroke-linecap:round;stroke-linejoin:round;}
	.st7{fill:none;stroke:#0080FF;stroke-linecap:round;}
	.st8{fill:none;stroke:#0080FF;}
	.st9{fill:none;stroke:#0080FF;stroke-linecap:round;stroke-dasharray:4,4;}
</style>
<g transform="translate(128)">
	<circle class="st0" cx="-25.4" cy="37.3" r="4.1"/>
	<circle class="st1" cx="-27.7" cy="35" r="4.7"/>
</g>
<circle class="st0" cx="18.3" cy="70" r="8.5"/>
<path class="st0" d="M141.9,32.4c2.9,0,5.3,2.4,5.3,5.3c0,2.9-2.4,5.3-5.3,5.3c-2.9,0-5.3-2.4-5.3-5.3
	C136.6,34.7,139,32.4,141.9,32.4z"/>
<circle class="st0" cx="16.9" cy="23.1" r="2.9"/>
<ellipse class="st1" cx="15.1" cy="67.4" rx="10" ry="10"/>
<path class="st2" d="M61.7,133.3c0.6-0.8,0.5-1.7,0.4-2.8l-0.6-4.4c-0.2-1.1-0.3-2-1.1-2.6c-0.8-0.6-1.7-0.5-2.8-0.4l-4.4,0.6
	c-1.1,0.2-2,0.3-2.6,1.1c-0.6,0.8-0.5,1.7-0.4,2.8l0.6,4.4c0.2,1.1,0.3,2,1.1,2.6c0.8,0.6,1.7,0.5,2.8,0.4l4.4-0.6
	C60.2,134.3,61.1,134.1,61.7,133.3z M114.3,108.7c0.7-0.4,0.8-1.1,1-1.9l0.7-3.3c0.2-0.8,0.3-1.5-0.1-2.2c-0.4-0.7-1.1-0.8-1.9-1
	l-3.3-0.7c-0.8-0.2-1.5-0.3-2.2,0.1c-0.7,0.4-0.8,1.1-1,1.9l-0.7,3.3c-0.2,0.8-0.3,1.5,0.1,2.2c0.4,0.7,1.1,0.8,1.9,1l3.3,0.7
	C113,109.1,113.7,109.2,114.3,108.7L114.3,108.7z"/>
<path class="st1" d="M59.7,132c0.6-0.8,0.5-1.7,0.4-2.8l-0.6-4.4c-0.2-1.1-0.3-2-1.1-2.6c-0.8-0.6-1.7-0.5-2.8-0.4l-4.4,0.6
	c-1.1,0.2-2,0.3-2.6,1.1c-0.6,0.8-0.5,1.7-0.4,2.8l0.6,4.4c0.2,1.1,0.3,2,1.1,2.6c0.8,0.6,1.7,0.5,2.8,0.4l4.4-0.6
	C58.2,133,59.1,132.8,59.7,132z M116.3,107.4c0.7-0.4,0.8-1.1,1-1.9l0.7-3.3c0.2-0.8,0.3-1.5-0.1-2.2c-0.4-0.7-1.1-0.8-1.9-1
	l-3.3-0.7c-0.8-0.2-1.5-0.3-2.2,0.1c-0.7,0.4-0.8,1.1-1,1.9l-0.7,3.3c-0.2,0.8-0.3,1.5,0.1,2.2c0.4,0.7,1.1,0.8,1.9,1l3.3,0.7
	C115,107.8,115.6,107.9,116.3,107.4L116.3,107.4z"/>
<ellipse class="st3" cx="72.5" cy="126.6" rx="1.3" ry="1.3"/>
<ellipse class="st4" cx="57.5" cy="110.9" rx="1.3" ry="1.3"/>
<ellipse class="st4" cx="96" cy="110.9" rx="1.3" ry="1.3"/>
<circle class="st4" cx="99.9" cy="143.5" r="1.3"/>
<ellipse class="st3" cx="86.8" cy="142.2" rx="3.2" ry="3.2"/>
<circle class="st5" cx="97.9" cy="123.3" r="0.7"/>
<path class="st6" d="M66.2,98.3c0,0-2.6,8.8,2.2,15.3c0,0,1.4-4.6,3.1-5.1c0,0,0.7,8.2,7.7,12.1c0,0,3.7-7.8-0.6-15.8
	c0,0,4.5,5.3,4.9,8.8c0,0,5.6-13.2-5.4-19.4"/>
<path class="st5" d="M43.2,10.8c0,0-6.2,9.3-7.1,24.7L63.9,26C53.8,14.3,43.2,10.8,43.2,10.8z"/>
<path class="st4" d="M45.6,71.1c0,0-13.9,11.4,3.4,39.9c0,0,0.8-11.4,10.7-18.6 M80.5,59.2c0,0,17.9,0.5,21.6,33.7
	c0,0-7.6-8.6-19.9-8.2"/>
<path class="st0" d="M62.1,42.3c-1.2-3.6-5.2-5.6-8.8-4.3c-3.6,1.2-5.6,5.2-4.3,8.8c1.2,3.6,5.2,5.6,8.8,4.3
	C61.4,49.9,63.3,46,62.1,42.3L62.1,42.3z"/>
<path class="st6" d="M62,40c-1.6-4.6-6.5-7-11.1-5.5c-4.6,1.6-7,6.5-5.5,11.1c1.6,4.6,6.5,7,11.1,5.5C61.1,49.6,63.6,44.6,62,40z"/>
<path class="st7" d="M60.3,40.6c-1.2-3.6-5.2-5.6-8.8-4.3c-3.6,1.2-5.6,5.2-4.3,8.8c1.2,3.6,5.2,5.6,8.8,4.3
	C59.6,48.2,61.5,44.2,60.3,40.6L60.3,40.6z"/>
<path class="st8" d="M43.7,70.4c0,0-13.9,11.4,3.4,39.9c0,0,0.8-11.4,10.7-18.6 M61.4,95.7l0.5,4.1l8.7-3"/>
<path class="st9" d="M52.9,85.3l13.7-4.7 M55.6,88.9l10.6-3.6"/>
<path class="st8" d="M72.3,92l7.7-2.6C84.8,23.1,42.2,9,42.2,9S17,46.2,61.4,95.7l7.7-2.6 M62.6,24.1l-27.5,9.4"/>
<path class="st8" d="M78.5,58.5c0,0,17.9,0.5,21.6,33.7c0,0-7.6-8.6-19.9-8.2 M80,89.4l2.1,3.5l-8.7,3"/>
<path class="st4" d="M60.8,63.5c1.7-0.6,5.2,9.1,8.4,18.7c2.9,8.8,5.7,17.5,4.6,19.5c-2.1-0.9-5.2-9.6-8.3-18.3
	C62.2,73.8,59.1,64.1,60.8,63.5L60.8,63.5z"/>
<path class="st8" d="M60.8,63.5c1.7-0.6,5.2,9.1,8.4,18.7c2.9,8.8,5.7,17.5,4.6,19.5c-2.1-0.9-5.2-9.6-8.3-18.3
	C62.2,73.8,59.1,64.1,60.8,63.5L60.8,63.5z"/>
<path class="st9" d="M80.3,75.9l-12,4 M80.4,80.5l-10.5,3.6"/>
</svg>
