<?xml version="1.0" encoding="utf-8"?>
<!-- Generator: Adobe Illustrator 21.1.0, SVG Export Plug-In . SVG Version: 6.00 Build 0)  -->
<svg version="1.1" baseProfile="basic" id="Layer_1"
	 xmlns="http://www.w3.org/2000/svg" xmlns:xlink="http://www.w3.org/1999/xlink" x="0px" y="0px" viewBox="0 0 100 100"
	 xml:space="preserve">
<style type="text/css">
	.st0{fill:none;stroke:#0080FF;stroke-linecap:round;stroke-linejoin:round;}
	.st1{fill:#D8E9FF;stroke:#0080FF;stroke-linecap:round;stroke-linejoin:round;}
	.st2{fill:#FFFFFF;stroke:#0080FF;stroke-linecap:round;stroke-linejoin:round;}
	.st3{fill:none;stroke:#B0B9CB;stroke-linecap:round;stroke-linejoin:round;}
</style>
<circle class="st0" cx="74.2" cy="28.9" r="12.9"/>
<circle class="st1" cx="43.9" cy="52.2" r="28.3"/>
<circle class="st2" cx="43.9" cy="52.2" r="22.3"/>
<path class="st0" d="M64.6,87.4"/>
<line class="st0" x1="43.9" y1="33.5" x2="43.9" y2="29.9"/>
<line class="st0" x1="34.5" y1="36" x2="32.7" y2="32.9"/>
<line class="st0" x1="27.7" y1="42.8" x2="24.6" y2="41.1"/>
<line class="st0" x1="25.2" y1="52.2" x2="21.6" y2="52.2"/>
<line class="st0" x1="27.7" y1="61.6" x2="24.6" y2="63.3"/>
<line class="st0" x1="34.5" y1="68.4" x2="32.7" y2="71.5"/>
<line class="st0" x1="43.9" y1="70.9" x2="43.9" y2="74.5"/>
<line class="st0" x1="53.3" y1="68.4" x2="55" y2="71.5"/>
<line class="st0" x1="60.1" y1="61.6" x2="63.2" y2="63.3"/>
<line class="st0" x1="62.6" y1="52.2" x2="66.2" y2="52.2"/>
<line class="st0" x1="60.1" y1="42.8" x2="63.2" y2="41.1"/>
<line class="st0" x1="53.3" y1="36" x2="55" y2="32.9"/>
<path class="st0" d="M44.9,48.3C44.8,48.3,44.8,48.3,44.9,48.3l-4.5-4.4c-0.7-0.7-1.9-0.7-2.6,0c-0.7,0.7-0.7,1.9,0,2.6l4.2,4.2
	c0,0.1,0,0.3,0,0.4c0,1.6,1.3,2.9,2.9,2.9c0.2,0,0.3,0,0.4,0c1.4-0.2,2.4-1.4,2.5-2.8c0,0,0,0,0-0.1C47.8,49.6,46.5,48.3,44.9,48.3z
	"/>
<rect x="41.5" y="19.6" class="st0" width="4.7" height="4.4"/>
<path class="st0" d="M50.8,19.3c0,0.5-0.4,1-1,1H38.2c-0.5,0-1-0.4-1-1v-3.1c0-0.5,0.4-1,1-1h11.7c0.5,0,1,0.4,1,1V19.3z"/>
<g>
	<path class="st3" d="M41.5,86.8c-18-1.2-32.2-16.2-32.2-34.6c0-7.7,2.5-14.8,6.7-20.5c1.6-2.2,3.5-4.2,5.6-6"/>
	<path class="st3" d="M66.2,78.7c-5.6,4.7-12.8,7.7-20.7,8.1"/>
	<path class="st3" d="M75.2,67c-1.3,2.7-2.9,5.2-4.8,7.5"/>
	<line class="st3" x1="25.4" y1="21.8" x2="25.4" y2="20.2"/>
	<line class="st3" x1="24.5" y1="22.6" x2="22.9" y2="22.6"/>
	<line class="st3" x1="25.4" y1="23.5" x2="25.4" y2="25.1"/>
	<line class="st3" x1="26.2" y1="22.6" x2="27.8" y2="22.6"/>
</g>
<g>
	<line class="st3" x1="78.8" y1="51.3" x2="78.8" y2="49.8"/>
	<line class="st3" x1="78" y1="52.2" x2="76.4" y2="52.2"/>
	<line class="st3" x1="78.8" y1="53.1" x2="78.8" y2="54.6"/>
	<line class="st3" x1="79.7" y1="52.2" x2="81.3" y2="52.2"/>
</g>
<g>
	<path class="st3" d="M59.2,90.1c-4.7,1.9-9.9,3-15.3,3C21.3,93.1,3,74.8,3,52.2c0-2.2,0.2-4.4,0.5-6.5"/>
	<g>
		<line class="st3" x1="6.4" y1="36.1" x2="6.4" y2="34.5"/>
		<line class="st3" x1="5.5" y1="36.9" x2="4" y2="36.9"/>
		<line class="st3" x1="6.4" y1="37.8" x2="6.4" y2="39.4"/>
		<line class="st3" x1="7.3" y1="36.9" x2="8.8" y2="36.9"/>
	</g>
	<circle class="st3" cx="64.6" cy="87.4" r="1.6"/>
</g>
<g>
	<path class="st3" d="M75.6,9.8c10,0.9,17.7,9.4,17.5,19.6c-0.1,4.3-1.6,8.2-4,11.3c-0.9,1.2-2,2.3-3.2,3.3"/>
	<path class="st3" d="M61.7,14c3.2-2.6,7.2-4.1,11.6-4.2"/>
	<path class="st3" d="M56.6,20.4c0.7-1.5,1.7-2.9,2.8-4.1"/>
	<line class="st3" x1="83.7" y1="46.2" x2="83.6" y2="47"/>
	<line class="st3" x1="84.2" y1="45.7" x2="85" y2="45.7"/>
	<line class="st3" x1="83.7" y1="45.2" x2="83.7" y2="44.3"/>
	<line class="st3" x1="83.2" y1="45.7" x2="82.3" y2="45.6"/>
</g>
<g>
	<path class="st3" d="M65.7,7.8c2.7-1,5.6-1.5,8.6-1.5C86.8,6.6,96.8,17,96.5,29.6c0,1.2-0.2,2.4-0.4,3.6"/>
	<g>
		<line class="st3" x1="94.4" y1="38.5" x2="94.4" y2="39.3"/>
		<line class="st3" x1="94.9" y1="38" x2="95.7" y2="38"/>
		<line class="st3" x1="94.4" y1="37.5" x2="94.4" y2="36.6"/>
		<line class="st3" x1="93.9" y1="38" x2="93" y2="38"/>
	</g>
	
		<ellipse transform="matrix(2.359747e-02 -0.9997 0.9997 2.359747e-02 52.053 71.646)" class="st3" cx="62.7" cy="9.2" rx="0.9" ry="0.9"/>
</g>
<g>
	<path class="st0" d="M72.8,33.1c-0.1,0-0.1,0-0.2,0c-0.4-0.1-0.8-0.3-1-0.6l-2.4-3.7c-0.4-0.7-0.2-1.6,0.4-2c0.7-0.4,1.6-0.2,2,0.4
		l1.5,2.3l4.8-4c0.6-0.5,1.5-0.4,2,0.2c0.5,0.6,0.4,1.5-0.2,2l-6,5C73.5,33,73.1,33.1,72.8,33.1z"/>
</g>
</svg>
