<?xml version="1.0" encoding="utf-8"?>
<!-- Generator: Adobe Illustrator 16.0.0, SVG Export Plug-In . SVG Version: 6.00 Build 0)  -->
<!DOCTYPE svg PUBLIC "-//W3C//DTD SVG 1.1 Basic//EN" "http://www.w3.org/Graphics/SVG/1.1/DTD/svg11-basic.dtd">
<svg version="1.1" baseProfile="basic" id="Layer_1"
	 xmlns="http://www.w3.org/2000/svg" xmlns:xlink="http://www.w3.org/1999/xlink" x="0px" y="0px" width="60px" height="60px"
	 viewBox="0 0 60 60" xml:space="preserve">
<path fill="#D9EAFF" d="M53.974,54.743c0,2.46-1.993,4.454-4.454,4.454H8.102c-2.458,0-4.453-1.994-4.453-4.454V8.428
	c0-2.461,1.994-4.454,4.453-4.454h32.113l13.759,12.173V54.743z"/>
<path fill="#FFFFFF" stroke="#0080FF" stroke-linecap="round" stroke-linejoin="round" d="M56.992,51.952
	c0,2.46-1.993,4.453-4.454,4.453H11.121c-2.458,0-4.453-1.993-4.453-4.453V5.637c0-2.461,1.994-4.454,4.453-4.454h32.113
	l13.758,12.173V51.952z"/>
<path fill="#FFFFFF" stroke="#0080FF" stroke-linecap="round" stroke-linejoin="round" d="M56.992,51.952
	c0,2.46-1.993,4.453-4.454,4.453H11.121c-2.458,0-4.453-1.993-4.453-4.453V5.637c0-2.461,1.994-4.454,4.453-4.454h32.113
	l13.758,12.173V51.952z"/>
<path fill="#FFFFFF" stroke="#0080FF" stroke-linecap="round" stroke-linejoin="round" d="M56.992,51.952
	c0,2.46-1.993,4.453-4.454,4.453H11.121c-2.458,0-4.453-1.993-4.453-4.453V5.637c0-2.461,1.994-4.454,4.453-4.454h32.113
	l13.758,12.173V51.952z"/>
<path fill="#FFFFFF" stroke="#0080FF" stroke-linecap="round" stroke-linejoin="round" d="M43.609,13.505h13.383L43.234,1.183
	v11.972C43.234,13.326,43.367,13.458,43.609,13.505z"/>
<circle fill="#FFFFFF" stroke="#0080FF" stroke-linecap="round" stroke-linejoin="round" cx="17.107" cy="23.153" r="2.375"/>
<line fill="#FFFFFF" stroke="#0080FF" stroke-linecap="round" stroke-linejoin="round" x1="22.749" y1="23.153" x2="37.087" y2="23.153"/>
<circle fill="#FFFFFF" stroke="#0080FF" stroke-linecap="round" stroke-linejoin="round" cx="17.107" cy="31.17" r="2.375"/>
<line fill="#FFFFFF" stroke="#0080FF" stroke-linecap="round" stroke-linejoin="round" x1="22.749" y1="31.17" x2="37.087" y2="31.17"/>
<circle fill="#FFFFFF" stroke="#0080FF" stroke-linecap="round" stroke-linejoin="round" cx="17.107" cy="37.998" r="2.375"/>
<polyline fill="#FFFFFF" stroke="#0080FF" stroke-linecap="round" stroke-linejoin="round" points="22.749,37.702 31.83,44.232 
	47.094,28.794 "/>
</svg>
