<?xml version="1.0" encoding="utf-8"?>
<!-- Generator: Adobe Illustrator 21.1.0, SVG Export Plug-In . SVG Version: 6.00 Build 0)  -->
<svg version="1.1" baseProfile="basic" id="Layer_1"
	 xmlns="http://www.w3.org/2000/svg" xmlns:xlink="http://www.w3.org/1999/xlink" x="0px" y="0px" viewBox="0 0 180 120"
	 xml:space="preserve">
<style type="text/css">
	.st0{fill:#F5FAFF;}
	.st1{opacity:6.000000e-02;}
	.st2{fill:#83C700;}
	.st3{fill:#1148A1;}
	.st4{fill:#BCDFF8;}
	.st5{fill:none;stroke:#0080FF;stroke-linecap:round;stroke-linejoin:round;}
	.st6{fill:none;stroke:#1148A1;stroke-linecap:round;stroke-linejoin:round;stroke-miterlimit:10;}
	.st7{fill:#0081E0;}
	.st8{fill:none;stroke:#97CBF2;stroke-linecap:round;stroke-linejoin:round;stroke-miterlimit:10;}
	.st9{fill:#EFC100;stroke:#EFC100;stroke-linecap:round;stroke-linejoin:round;stroke-miterlimit:10;}
	.st10{fill:#FA649B;stroke:#FA649B;stroke-miterlimit:10;}
	.st11{fill:#FFFFFF;}
	.st12{fill:#DA1B5D;}
</style>
<g>
	<path class="st0" d="M6.5,57C6.5,57-6,44.3,13,42.9c19-1.3,3.7-26.1,31.3-21.2C71.9,26.7,27.2,3.1,65.8,8.8
		c38.6,5.8,28.2-16.7,69.9-3.7c41.7,13,42.3,79.6,14.3,72.8c-27.9-6.8,19.8,39.8-5.3,32.6c-25.1-7.2-59.7,17.1-94.9,5
		c-35.2-12.1-18.8-9.6-28.7-28.9C8.3,61.7,6.5,57,6.5,57z"/>
	<circle class="st1" cx="124.7" cy="32.4" r="17.3"/>
	<circle class="st1" cx="81.1" cy="62.7" r="37.9"/>
	<circle class="st2" cx="124.8" cy="30.5" r="17.3"/>
	<circle class="st3" cx="84.1" cy="61.7" r="37.9"/>
	<circle class="st4" cx="84.1" cy="61.7" r="29.9"/>
	<path class="st5" d="M111.9,108.9"/>
	<g>
		<line class="st6" x1="84.1" y1="39.9" x2="84.1" y2="35.8"/>
		<line class="st6" x1="73.2" y1="42.8" x2="71.1" y2="39.3"/>
		<line class="st6" x1="65.2" y1="50.8" x2="61.6" y2="48.8"/>
		<line class="st6" x1="62.3" y1="61.7" x2="58.1" y2="61.7"/>
		<line class="st6" x1="65.2" y1="72.6" x2="61.6" y2="74.7"/>
		<line class="st6" x1="73.2" y1="80.6" x2="71.1" y2="84.2"/>
		<line class="st6" x1="84.1" y1="83.5" x2="84.1" y2="87.7"/>
		<line class="st6" x1="95" y1="80.6" x2="97.1" y2="84.2"/>
		<line class="st6" x1="103" y1="72.6" x2="106.5" y2="74.7"/>
		<line class="st6" x1="105.9" y1="61.7" x2="110" y2="61.7"/>
		<line class="st6" x1="103" y1="50.8" x2="106.5" y2="48.8"/>
		<line class="st6" x1="95" y1="42.8" x2="97.1" y2="39.3"/>
	</g>
	<path class="st7" d="M85.4,56.5C85.3,56.5,85.3,56.5,85.4,56.5l-6-5.9c-1-1-2.5-1-3.5,0c-1,1-1,2.5,0,3.5l5.7,5.7
		c0,0.2-0.1,0.4-0.1,0.6c0,2.2,1.7,3.9,3.9,3.9c0.2,0,0.4,0,0.6-0.1c1.8-0.3,3.3-1.8,3.3-3.7c0,0,0-0.1,0-0.1
		C89.3,58.3,87.5,56.5,85.4,56.5z"/>
	<rect x="80.8" y="18" class="st7" width="6.3" height="5.8"/>
	<path class="st3" d="M93.4,17.6c0,0.7-0.6,1.3-1.3,1.3H76.4c-0.7,0-1.3-0.6-1.3-1.3v-4.1c0-0.7,0.6-1.3,1.3-1.3h15.7
		c0.7,0,1.3,0.6,1.3,1.3V17.6z"/>
	<g>
		<path class="st8" d="M54.2,26.2c-2.8,2.4-5.4,5.1-7.5,8.1c-5.7,7.7-9,17.2-9,27.5c0,24.6,19.1,44.7,43.2,46.3"/>
		<path class="st8" d="M114,97.3c-7.6,6.4-17.2,10.4-27.7,10.8"/>
		<path class="st8" d="M126.1,81.6c-1.7,3.6-3.9,7-6.4,10"/>
	</g>
	<g>
		<line class="st9" x1="174.2" y1="41.7" x2="174.2" y2="39.6"/>
		<line class="st9" x1="173.1" y1="42.8" x2="171" y2="42.8"/>
		<line class="st9" x1="174.2" y1="44" x2="174.2" y2="46.1"/>
		<line class="st9" x1="175.4" y1="42.8" x2="177.5" y2="42.8"/>
	</g>
	<path class="st8" d="M104.7,112.5c-6.4,2.6-13.3,4-20.6,4c-30.3,0-54.8-24.5-54.8-54.8c0-3,0.2-5.9,0.7-8.7"/>
	<g>
		<line class="st10" x1="33.8" y1="40.1" x2="33.8" y2="38"/>
		<line class="st10" x1="32.7" y1="41.3" x2="30.6" y2="41.3"/>
		<line class="st10" x1="33.8" y1="42.5" x2="33.8" y2="44.5"/>
		<line class="st10" x1="35" y1="41.3" x2="37.1" y2="41.3"/>
	</g>
	<circle class="st4" cx="111.9" cy="109.9" r="2.1"/>
	<circle class="st2" cx="111.9" cy="108.9" r="2.1"/>
	<g>
		<path class="st11" d="M122.9,36.2c-0.1,0-0.2,0-0.3,0c-0.6-0.1-1-0.4-1.3-0.9l-3.2-5c-0.6-0.9-0.3-2.1,0.6-2.7
			c0.9-0.6,2.1-0.3,2.7,0.6l2,3.1l6.4-5.3c0.8-0.7,2.1-0.6,2.7,0.3c0.7,0.8,0.6,2.1-0.3,2.7l-8.1,6.7
			C123.8,36,123.3,36.2,122.9,36.2z"/>
	</g>
	<polygon class="st4" points="137.2,59.1 135.6,59.1 134.8,60.5 135.6,61.9 137.2,61.9 138,60.5 	"/>
	<polygon class="st12" points="136.7,58.6 135.1,58.6 134.3,60 135.1,61.4 136.7,61.4 137.5,60 	"/>
	<path class="st8" d="M148.8,48.6c0-0.7-0.6-1.2-1.2-1.2c-0.9,0-1.6,0.7-1.6,1.6c0,1.2,0.9,2.1,2.1,2.1c1.5,0,2.7-1.2,2.7-2.7
		c0-1.9-1.6-3.5-3.5-3.5c-2.5,0-4.5,2-4.5,4.5"/>
</g>
</svg>
