<?xml version="1.0" encoding="utf-8"?>
<!-- Generator: Adobe Illustrator 16.0.0, SVG Export Plug-In . SVG Version: 6.00 Build 0)  -->
<!DOCTYPE svg PUBLIC "-//W3C//DTD SVG 1.1 Basic//EN" "http://www.w3.org/Graphics/SVG/1.1/DTD/svg11-basic.dtd">
<svg version="1.1" baseProfile="basic" id="Layer_1"
	 xmlns="http://www.w3.org/2000/svg" xmlns:xlink="http://www.w3.org/1999/xlink" x="0px" y="0px" width="316.859px"
	 height="208.304px" viewBox="0 0 316.859 208.304" xml:space="preserve">
<g>
	<path fill="#E5F4FF" d="M245.445,185.685c-0.033,0.002-38.741,1.829-86.818,12.777c-48.1,10.951-46.89-9.735-85.61-15.82
		c-16.076-2.526-33.116-3.784-45.523-15.382c-6.372-5.956-32.081-27.942-19.786-37.644c7.157-5.648,15.336-4.49,17.424-15.176
		c2.303-11.787-5.746-22.666-6.952-34.129C16.857,67.751,23.6,61.675,35.753,61.173c5.197-0.216,10.466,0.303,15.654,0.644
		c15.988,1.056,22.339,1.31,34.994-8.737c6.283-4.988,11.775-10.668,17.095-16.661c3.529-3.978,6.97-8.034,10.241-12.228
		c2.94-3.768,6.49-11.844,10.403-14.349c0.049-0.031,54.168-34.653,97.709,26.163c1.218,1.701,7.089,3.132,8.956,4.062
		c7.048,3.516,13.771,7.566,20.029,12.357c8.689,6.652,12.932,17.244,20.754,24.695c8.191,7.805,19.26,8.103,28.605,13.668
		c11.146,6.637,23.813,17.373,11.803,29.195c-4.025,3.961-9.003,7.127-13.543,10.461c-11.162,8.189-21.938,11.039-16.042,25.369
		c3.409,8.285,3.188,13.154-4.8,18.434C269.582,179.554,254.913,185.237,245.445,185.685z"/>
	<g>
		
			<line fill="#BDE0F9" stroke="#BDE0F9" stroke-linecap="round" stroke-linejoin="round" x1="210.956" y1="118.54" x2="210.956" y2="115.684"/>
		
			<line fill="#BDE0F9" stroke="#BDE0F9" stroke-linecap="round" stroke-linejoin="round" x1="209.305" y1="120.193" x2="206.445" y2="120.193"/>
		
			<line fill="#BDE0F9" stroke="#BDE0F9" stroke-linecap="round" stroke-linejoin="round" x1="210.956" y1="121.847" x2="210.956" y2="124.703"/>
		
			<line fill="#BDE0F9" stroke="#BDE0F9" stroke-linecap="round" stroke-linejoin="round" x1="212.608" y1="120.193" x2="215.465" y2="120.193"/>
	</g>
	<g transform="translate(128)">
		<circle fill="#C0E1F9" cx="38.434" cy="72.485" r="4.103"/>
		<circle fill="#0081E0" cx="36.089" cy="70.14" r="4.69"/>
	</g>
	<path fill="#C6E4FA" d="M82.104,96.657c4.696,0,8.501,3.806,8.501,8.501c0,4.694-3.805,8.497-8.501,8.497
		c-4.692,0-8.497-3.803-8.497-8.497C73.607,100.463,77.412,96.657,82.104,96.657z"/>
	<path fill="#BDE0F9" d="M205.678,67.503c2.915,0,5.277,2.362,5.277,5.272c0,2.918-2.362,5.277-5.277,5.277
		c-2.912,0-5.276-2.359-5.276-5.277C200.401,69.865,202.766,67.503,205.678,67.503z"/>
	<circle fill="#F3F6F9" cx="66.71" cy="13.574" r="2.932"/>
	<circle fill="#F0C200" cx="78.883" cy="102.52" r="9.963"/>
	<path fill="#C6E4FA" d="M125.461,168.424c0.613-0.812,0.527-1.699,0.374-2.786l-0.616-4.386c-0.151-1.089-0.313-1.965-1.126-2.576
		c-0.813-0.612-1.698-0.527-2.786-0.374l-4.386,0.616c-1.089,0.153-1.963,0.313-2.576,1.128c-0.612,0.811-0.525,1.699-0.374,2.784
		l0.616,4.39c0.153,1.086,0.315,1.963,1.128,2.574c0.812,0.61,1.699,0.525,2.783,0.372l4.389-0.616
		C123.974,169.399,124.852,169.236,125.461,168.424z M178.131,143.887c0.655-0.428,0.825-1.091,1.002-1.921l0.711-3.336
		c0.175-0.829,0.289-1.506-0.14-2.161c-0.427-0.658-1.091-0.83-1.919-1.005l-3.336-0.709c-0.827-0.178-1.506-0.29-2.164,0.136
		c-0.657,0.427-0.829,1.092-1.003,1.92l-0.71,3.339c-0.178,0.826-0.291,1.503,0.137,2.158c0.428,0.659,1.09,0.831,1.919,1.007
		l3.337,0.709C176.794,144.198,177.472,144.313,178.131,143.887L178.131,143.887z"/>
	<path fill="#84C800" d="M123.507,167.12c0.614-0.812,0.524-1.698,0.372-2.786l-0.617-4.387c-0.15-1.086-0.312-1.963-1.125-2.575
		c-0.812-0.613-1.697-0.527-2.786-0.373l-4.386,0.617c-1.089,0.151-1.963,0.313-2.576,1.127c-0.61,0.812-0.523,1.697-0.373,2.784
		l0.615,4.388c0.153,1.087,0.315,1.962,1.13,2.572c0.812,0.615,1.697,0.527,2.784,0.375l4.387-0.615
		C122.02,168.094,122.895,167.932,123.507,167.12z M180.082,142.582c0.66-0.426,0.829-1.09,1.006-1.916l0.709-3.339
		c0.177-0.83,0.292-1.507-0.138-2.164c-0.427-0.657-1.09-0.829-1.918-1.003l-3.339-0.709c-0.826-0.177-1.504-0.291-2.162,0.135
		c-0.656,0.428-0.828,1.094-1.003,1.921l-0.711,3.338c-0.175,0.827-0.291,1.504,0.138,2.161c0.425,0.657,1.091,0.828,1.918,1.007
		l3.338,0.705C178.748,142.896,179.424,143.01,180.082,142.582L180.082,142.582z"/>
	<ellipse fill="#CCE0FF" cx="136.299" cy="161.73" rx="1.303" ry="1.303"/>
	<ellipse fill="#F5F8FB" cx="121.309" cy="146.091" rx="1.303" ry="1.303"/>
	<ellipse fill="#F5F8FB" cx="159.757" cy="146.091" rx="1.303" ry="1.303"/>
	<circle fill="#B2D2FF" cx="161.713" cy="158.473" r="0.652"/>
	<path fill="#FFCF00" d="M129.361,132.876c0,0-2.764,9.322,2.342,16.264c0,0,1.518-4.934,3.338-5.404c0,0,0.699,8.678,8.149,12.91
		c0,0,3.918-8.346-0.653-16.838c0,0,4.825,5.665,5.17,9.356c0,0,5.925-14.056-5.748-20.584"/>
	<path fill="#FFB100" d="M130.031,133.454c0,0-2.6,8.769,2.203,15.297c0,0,1.427-4.64,3.139-5.082c0,0,0.658,8.162,7.665,12.143
		c0,0,3.686-7.85-0.614-15.837c0,0,4.539,5.328,4.863,8.8c0,0,5.572-13.22-5.407-19.36"/>
	<path fill="#B2D2FF" d="M107.006,45.944c0,0-6.25,9.252-7.089,24.683l27.782-9.477C117.606,49.45,107.006,45.944,107.006,45.944z"
		/>
	<path fill="#C6E4FA" d="M109.41,106.198c0,0-13.866,11.395,3.442,39.878c0,0,0.755-11.425,10.729-18.627 M144.272,94.311
		c0,0,17.936,0.544,21.64,33.671c0,0-7.577-8.584-19.876-8.19"/>
	<path fill="#F3F6F9" d="M125.853,77.489c-1.239-3.633-5.192-5.576-8.828-4.336c-3.638,1.241-5.58,5.191-4.343,8.829
		c1.243,3.636,5.194,5.579,8.832,4.336C125.151,85.078,127.093,81.127,125.853,77.489L125.853,77.489z"/>
	<path fill="#0081E0" d="M136.1,127.151l7.688-2.622c4.822-66.271-37.806-80.349-37.806-80.349s-25.143,37.19,19.171,86.707
		l7.689-2.624"/>
	<path fill="#2D9AE7" d="M125.809,75.147c-1.562-4.584-6.545-7.03-11.129-5.468c-4.582,1.564-7.033,6.545-5.469,11.129
		c1.564,4.583,6.549,7.031,11.13,5.467C124.924,84.713,127.369,79.731,125.809,75.147z"/>
	<path fill="#1148A1" d="M124.093,75.732c-1.238-3.638-5.191-5.579-8.828-4.337c-3.637,1.239-5.578,5.19-4.34,8.828
		c1.241,3.636,5.194,5.578,8.832,4.338C123.393,83.321,125.336,79.369,124.093,75.732L124.093,75.732z"/>
	<path fill="#2D9AE7" d="M107.454,105.549c0,0-13.864,11.392,3.444,39.877c0,0,0.753-11.427,10.73-18.629"/>
	<path fill="#2D9AE7" d="M142.318,93.657c0,0,17.934,0.545,21.638,33.673c0,0-7.575-8.583-19.874-8.191"/>
	<path fill="#F5F8FB" d="M124.56,98.642c1.662-0.569,5.181,9.054,8.415,18.73c2.926,8.752,5.733,17.508,4.629,19.517
		c-2.105-0.915-5.23-9.562-8.267-18.28C125.986,108.975,122.894,99.21,124.56,98.642L124.56,98.642z"/>
	<g>
		<path fill="#64B4ED" d="M46.739,80.478c3.224,0,3.224-5,0-5S43.515,80.478,46.739,80.478L46.739,80.478z"/>
	</g>
	<path fill="#2D9AE7" d="M137.146,131.028"/>
	<polygon fill="#1148A1" points="125.153,130.888 126.073,134.597 145.99,128.106 143.788,124.529 	"/>
	<path fill="#2D9AE7" stroke="#2D9AE7" d="M124.56,98.642c1.662-0.569,5.181,9.054,8.415,18.73
		c2.926,8.752,5.733,17.508,4.629,19.517c-2.105-0.915-5.23-9.562-8.267-18.28C125.986,108.975,122.894,99.21,124.56,98.642
		L124.56,98.642z"/>
	<path fill="none" stroke="#0081E0" stroke-linecap="round" stroke-linejoin="round" stroke-dasharray="4,4" d="M246.573,105.549
		c0,0-26.355,30.506-39.84,25.507c-13.484-4.998,25-31.408,20.33,2.743s-48.037,30.565-48.037,30.565l-37.268,4.754"/>
	<path fill="#2D9AE7" d="M100.276,58.962l18.853-6.902c-7.199-5.912-13.146-7.879-13.146-7.879S102.347,49.567,100.276,58.962z"/>
	<path opacity="0.1" fill="#231F20" d="M106.112,44.226l29.871,82.966l0.116-0.04l7.688-2.622
		C148.456,60.384,108.669,45.138,106.112,44.226z"/>
	<g>
		<polygon fill="#0081E0" points="244.231,94.921 270.122,81.659 248.651,97.446 261.281,105.655 270.122,81.659 233.456,89.237 		
			"/>
		<polygon fill="#1B65BA" points="248.651,97.446 246.166,105.655 244.231,94.921 270.122,81.659 		"/>
		<polygon fill="#1148A1" points="248.651,97.446 246.126,105.655 253.606,100.667 		"/>
	</g>
	<g>
		<path fill="#E5F4FF" d="M265.573,26.522c3.225,0,3.225-5,0-5S262.349,26.522,265.573,26.522L265.573,26.522z"/>
	</g>
</g>
</svg>
