<svg id="Layer_1" data-name="Layer 1" xmlns="http://www.w3.org/2000/svg" viewBox="0 0 183.33 64"><defs><style>.cls-1{fill:#fff;}</style></defs><title>weworkArtboard 1</title><path class="cls-1" d="M82.88,37.48c0,.38,0,.78,0,1.19s-.07.86-.13,1.32H69.3q0,6,6,6a15.42,15.42,0,0,0,3.26-.36,13.64,13.64,0,0,0,3-1l.52,4.3a18.67,18.67,0,0,1-3.72,1,23.2,23.2,0,0,1-4,.35q-5.18,0-7.94-2.65T63.65,39.3a14.93,14.93,0,0,1,.67-4.58,10.53,10.53,0,0,1,2-3.63,9,9,0,0,1,3.18-2.39,10.27,10.27,0,0,1,4.33-.87,10,10,0,0,1,4.07.76,7.77,7.77,0,0,1,2.83,2.06,8.58,8.58,0,0,1,1.65,3.06A12.69,12.69,0,0,1,82.88,37.48ZM77.33,36a4.28,4.28,0,0,0-.93-3.17,3.58,3.58,0,0,0-2.8-1.13,3.81,3.81,0,0,0-2.87,1.17A5.18,5.18,0,0,0,69.38,36Z"/><path class="cls-1" d="M111.77,50h-6.09l-3-9.32q-.34-1.09-.61-2.21T101.47,36h0q-.34,1.48-.68,2.72T100,41.27L97.33,50H91.55L84.82,28h5.9l2.35,8.34L94,39.65q.44,1.66.84,3.35h0q.35-1.86.73-3.39t.87-3L99.1,28h5.46l2.71,8.34q.62,1.91,1,3.46T109,43h.09q.36-1.68.71-3.22t.84-3.17L113.17,28h5.51Z"/><path class="cls-1" d="M141.57,38.52a13.19,13.19,0,0,1-.8,4.69,10.73,10.73,0,0,1-2.28,3.67A10.54,10.54,0,0,1,135,49.29a11.14,11.14,0,0,1-4.45.87,13.4,13.4,0,0,1-4.17-.61,7.71,7.71,0,0,1-3.17-1.93,8.93,8.93,0,0,1-2-3.39,15.07,15.07,0,0,1-.72-4.93,13.05,13.05,0,0,1,.8-4.64A10.87,10.87,0,0,1,123.54,31,10.35,10.35,0,0,1,127,28.58a11.25,11.25,0,0,1,4.49-.87,10.15,10.15,0,0,1,7.34,2.63Q141.57,33,141.57,38.52Zm-5.73.28A8.48,8.48,0,0,0,134.71,34a4,4,0,0,0-3.6-1.66,4.67,4.67,0,0,0-1.8.37,4.35,4.35,0,0,0-1.59,1.15,5.81,5.81,0,0,0-1.11,2,8.77,8.77,0,0,0-.41,2.85q0,6.71,4.82,6.71a4.29,4.29,0,0,0,3.45-1.65A7.66,7.66,0,0,0,135.84,38.8Z"/><path class="cls-1" d="M158.47,32.6Q152,31.48,152,39.76V50h-6V28h5.67q0,.76-.09,1.86a16.12,16.12,0,0,1-.33,2.14h.09a9,9,0,0,1,1.06-1.8,6.4,6.4,0,0,1,1.55-1.46,7.3,7.3,0,0,1,2.11-1,7.62,7.62,0,0,1,2.69-.22Z"/><path class="cls-1" d="M173.82,50,167,39.11V50h-6V18h6V37.16L173.42,28h6.9l-7.7,10,8.28,12Z"/><path class="cls-1" d="M46.62,50H39L34,31.28,28.91,50H21.29L12.4,17h7.69l5,18.74,5-18.74H37.8l5,18.75,7-26a29.49,29.49,0,1,0,5.84,6.83Z"/></svg>