<svg xmlns="http://www.w3.org/2000/svg" width="1920" height="1396" viewBox="0 0 1920 1396">
  <defs>
    <style>
      .cls-1 {
        fill: #f6fafd;
      }

      .cls-1, .cls-3, .cls-4, .cls-5, .cls-6 {
        fill-rule: evenodd;
      }

      .cls-2 {
        fill: #fff;
      }

      .cls-3 {
        fill: #f7f8fd;
      }

      .cls-4 {
        fill: #f0f5f9;
      }

      .cls-5 {
        fill: #fafcfe;
      }

      .cls-6 {
        fill: #6928a8;
        opacity: 0.03;
      }
    </style>
  </defs>
  <path class="cls-1" d="M0,1059L96,881l519,304,920-188,203,84,231-372L1920-11H-6Z"/>
  <rect class="cls-2" x="-25" y="-9" width="1984" height="1405"/>
  <path class="cls-3" d="M0,1062L102,879-15,807Z"/>
  <path id="Rounded_Rectangle_1_copy_4" data-name="Rounded Rectangle 1 copy 4" class="cls-1" d="M683.2-764.7L1711.87-170.8c133.05,76.815,178.64,246.944,101.82,379.992L1219.79,1237.86c-76.82,133.05-246.945,178.64-379.994,101.82l-1028.668-593.9C-321.92,668.964-367.506,498.835-290.69,365.786l593.9-1028.667C380.027-795.93,550.155-841.516,683.2-764.7Z"/>
  <path id="Rounded_Rectangle_1_copy" data-name="Rounded Rectangle 1 copy" class="cls-4" d="M900.707-767.38l739.583,427c95.66,55.229,128.44,177.547,73.21,273.205l-427,739.586c-55.23,95.658-177.55,128.434-273.21,73.205l-739.583-427c-95.658-55.228-128.433-177.547-73.2-273.2l427-739.586C682.731-789.833,805.049-822.608,900.707-767.38Z"/>
  <path id="Rounded_Rectangle_1_copy_2" data-name="Rounded Rectangle 1 copy 2" class="cls-5" d="M2204.71,177.62l739.58,427c95.66,55.229,128.44,177.547,73.21,273.205l-427,739.585c-55.23,95.66-177.55,128.43-273.21,73.21l-739.58-427c-95.66-55.23-128.44-177.55-73.21-273.209l427-739.586C1986.73,155.167,2109.05,122.392,2204.71,177.62Z"/>
  <path id="Rounded_Rectangle_1" data-name="Rounded Rectangle 1" class="cls-6" d="M-384.293-397.38l739.586,427c95.658,55.229,128.433,177.547,73.2,273.2L1.5,1042.41c-55.228,95.66-177.547,128.43-273.2,73.21l-739.583-427c-95.66-55.228-128.44-177.547-73.21-273.2l427-739.586C-602.269-419.833-479.951-452.608-384.293-397.38Z"/>
  <path class="cls-3" d="M-1,816l99,59L-1,1061V816Z"/>
  <path id="Rounded_Rectangle_1_copy_3" data-name="Rounded Rectangle 1 copy 3" class="cls-1" d="M-113.774,768.38L172.3,933.546a77.356,77.356,0,0,1,28.316,105.674L35.452,1325.3a77.354,77.354,0,0,1-105.677,28.31L-356.3,1188.45a77.363,77.363,0,0,1-28.316-105.68L-219.452,796.7A77.362,77.362,0,0,1-113.774,768.38Z"/>
</svg>
