<?xml version="1.0" encoding="utf-8"?>
<!-- Generator: Adobe Illustrator 21.1.0, SVG Export Plug-In . SVG Version: 6.00 Build 0)  -->
<svg version="1.1" id="Layer_1" xmlns="http://www.w3.org/2000/svg" xmlns:xlink="http://www.w3.org/1999/xlink" x="0px" y="0px"
	 viewBox="0 0 1920 1396" style="enable-background:new 0 0 1920 1396;" xml:space="preserve">
<style type="text/css">
	.st0{fill:#FFFFFF;}
	.st1{fill:#F7F8FD;}
	.st2{fill:#F6FAFD;}
	.st3{fill:#F0F5F9;}
	.st4{opacity:3.000000e-02;fill:#6928A8;enable-background:new    ;}
</style>
<rect x="-343" y="2" class="st0" width="1984" height="1405"/>
<path class="st1" d="M0,1062l102-183l-117-72L0,1062z"/>
<path id="Rounded_Rectangle_1_copy_4" class="st2" d="M733.3-1097.6L1931-406.1c154.9,89.4,208,287.5,118.5,442.4L1358.1,1234
	c-89.4,154.9-287.5,208-442.4,118.5L-282,661.1c-154.9-89.4-208-287.5-118.5-442.4L290.9-979C380.4-1133.9,578.4-1187,733.3-1097.6z
	"/>
<path id="Rounded_Rectangle_1_copy" class="st3" d="M900.7-767.4l739.6,427c95.7,55.2,128.4,177.5,73.2,273.2l-427,739.6
	c-55.2,95.7-177.6,128.4-273.2,73.2l-739.6-427C178,263.4,145.3,141.1,200.5,45.4l427-739.6C682.7-789.8,805-822.6,900.7-767.4z"/>
<path id="Rounded_Rectangle_1" class="st4" d="M-384.3-397.4l739.6,427c95.7,55.2,128.4,177.5,73.2,273.2l-427,739.6
	c-55.2,95.7-177.5,128.4-273.2,73.2l-739.6-427c-95.7-55.2-128.4-177.5-73.2-273.2l427-739.6C-602.3-419.8-480-452.6-384.3-397.4z"
	/>
<path class="st1" d="M-1,816l99,59l-99,186V816z"/>
</svg>
