<?xml version="1.0" encoding="utf-8"?>
<!-- Generator: Adobe Illustrator 21.1.0, SVG Export Plug-In . SVG Version: 6.00 Build 0)  -->
<svg version="1.1" id="Layer_1" xmlns="http://www.w3.org/2000/svg" xmlns:xlink="http://www.w3.org/1999/xlink" x="0px" y="0px"
	 viewBox="0 0 162 40" style="enable-background:new 0 0 162 40;" xml:space="preserve">
<style type="text/css">
	.st0{fill:#FFFFFF;}
</style>
<path class="st0" d="M28.6,7.4c-0.1-0.1-0.3-0.1-0.5-0.2c-0.2,0-0.3-0.1-0.5-0.1l-1-0.2c-0.1,0-0.1,0-0.2,0c-0.3,0-0.6,0.3-0.8,0.5
	l-0.3,0.3l-2.9,2.8c-0.2,0.2-0.2,0.5,0,0.7l1.1,1.1c0.2,0.2,0.5,0.2,0.7,0l3.2-3.1l0.7-0.6c0,0,0.7-0.6,0.7-0.7
	c0.1-0.1,0-0.3-0.1-0.4C28.7,7.5,28.6,7.4,28.6,7.4z"/>
<path class="st0" d="M27.8,18c0.1,0.1,0.3,0.1,0.5,0.2c0.2,0,0.3,0.1,0.5,0.1l1,0.2c0.1,0,0.1,0,0.2,0c0.3,0,0.6-0.3,0.8-0.5
	l0.3-0.3l2.9-2.8c0.2-0.2,0.2-0.5,0-0.7l-1.1-1.1c-0.2-0.2-0.5-0.2-0.7,0l-3.2,3.1l-0.6,0.6c0,0-0.7,0.6-0.7,0.7
	c-0.1,0.1,0,0.3,0.1,0.4C27.7,17.9,27.7,18,27.8,18z"/>
<path class="st0" d="M26,16.5l0.3-0.3l5.9-5.7l0.7-0.6c0,0,0.7-0.6,0.7-0.6c0.1-0.1,0-0.3-0.1-0.4c0,0-0.1-0.1-0.1-0.1
	c-0.1-0.1-0.3-0.1-0.5-0.2c-0.2,0-0.3-0.1-0.5-0.1l-1-0.2c-0.1,0-0.2,0-0.2,0c-0.3,0-0.5,0.3-0.7,0.5L30.2,9l-5.9,5.7l-0.7,0.6
	c0,0-0.7,0.6-0.7,0.7c-0.1,0.1,0,0.3,0.1,0.4c0,0,0.1,0.1,0.1,0.1c0.1,0.1,0.3,0.1,0.5,0.2c0.2,0,0.3,0.1,0.5,0.1l1,0.2
	c0.1,0,0.1,0,0.2,0C25.6,17.1,25.8,16.8,26,16.5z"/>
<path class="st0" d="M35.7,27.7c-1.1-2.1-4.9-4.4-5.1-4.5c-0.5-0.3-1-0.4-1.5-0.4c-0.7,0-1.3,0.3-1.7,0.9c-0.6,0.7-1.3,1.5-1.4,1.6
	c-1.3,0.9-2.3,0.8-3.5-0.3l-6.3-6.3c-1.1-1.1-1.2-2.2-0.3-3.5c0.1-0.2,0.9-0.9,1.6-1.4c0.4-0.3,0.7-0.6,0.8-1.1
	c0.2-0.6,0-1.3-0.4-2.1c-0.1-0.2-2.4-4-4.4-5.1c-0.4-0.2-0.8-0.3-1.3-0.3c-0.7,0-1.4,0.3-1.9,0.8L8.9,7.4c-2.2,2.2-3,4.7-2.4,7.4
	c0.5,2.3,2.1,4.7,4.6,7.2l8.1,8.1c3.2,3.2,6.2,4.8,9,4.8c2,0,4-0.9,5.7-2.6l1.4-1.4C36,30,36.2,28.7,35.7,27.7z"/>
<g>
	<path class="st0" d="M59.5,25c-0.8,0.9-1.7,1.6-2.7,2.1c-1,0.5-2.2,0.7-3.5,0.7c-1.2,0-2.2-0.2-3.2-0.6s-1.8-1-2.6-1.7
		c-0.7-0.7-1.3-1.6-1.7-2.6c-0.4-1-0.6-2.1-0.6-3.2s0.2-2.2,0.6-3.2c0.4-1,1-1.8,1.7-2.6s1.6-1.3,2.6-1.7c1-0.4,2.1-0.6,3.2-0.6
		c1.2,0,2.3,0.2,3.3,0.6c0.9,0.4,1.8,1.1,2.5,1.9l-2.1,2c-0.5-0.5-1-1-1.6-1.3c-0.6-0.3-1.3-0.5-2.1-0.5c-0.7,0-1.4,0.1-2,0.4
		c-0.6,0.3-1.2,0.6-1.7,1.1c-0.5,0.5-0.8,1-1.1,1.7s-0.4,1.4-0.4,2.2c0,0.8,0.1,1.5,0.4,2.2s0.6,1.2,1.1,1.7c0.5,0.5,1,0.8,1.7,1.1
		c0.6,0.3,1.3,0.4,2,0.4c0.9,0,1.6-0.2,2.3-0.5c0.7-0.4,1.3-0.9,1.8-1.5L59.5,25z"/>
	<path class="st0" d="M67.6,26.3h-0.2c-0.3,0.4-0.7,0.8-1.2,1c-0.5,0.3-1.1,0.4-1.8,0.4c-0.5,0-1.1-0.1-1.5-0.3
		c-0.5-0.2-0.9-0.4-1.3-0.7c-0.4-0.3-0.6-0.7-0.8-1.1c-0.2-0.4-0.3-0.9-0.3-1.5c0-0.5,0.1-1,0.3-1.5c0.2-0.4,0.5-0.8,0.9-1.1
		c0.4-0.3,0.8-0.6,1.4-0.7c0.5-0.2,1.1-0.2,1.7-0.2c0.7,0,1.3,0.1,1.7,0.2c0.4,0.1,0.8,0.2,1.1,0.3v-0.3c0-0.6-0.2-1-0.7-1.4
		c-0.4-0.4-1-0.6-1.7-0.6c-1,0-1.8,0.4-2.5,1.2l-2.1-1.4c1.1-1.4,2.7-2.1,4.6-2.1c1.6,0,2.9,0.4,3.8,1.2c0.9,0.8,1.3,1.9,1.3,3.4
		v6.4h-2.8V26.3z M67.6,23.2c-0.3-0.2-0.7-0.3-1-0.4c-0.4-0.1-0.7-0.1-1.2-0.1c-0.7,0-1.2,0.1-1.6,0.4c-0.4,0.3-0.6,0.7-0.6,1.1
		s0.2,0.8,0.5,1c0.4,0.3,0.8,0.4,1.2,0.4c0.4,0,0.7-0.1,1-0.2c0.3-0.1,0.6-0.3,0.8-0.5s0.4-0.5,0.5-0.8
		C67.5,23.8,67.6,23.5,67.6,23.2z"/>
	<path class="st0" d="M72.6,27.5V12h2.8v15.5H72.6z"/>
	<path class="st0" d="M77.9,27.5V12h2.8v15.5H77.9z"/>
	<path class="st0" d="M101.3,25c-0.8,0.9-1.7,1.6-2.7,2.1c-1,0.5-2.2,0.7-3.5,0.7c-1.2,0-2.2-0.2-3.2-0.6s-1.8-1-2.6-1.7
		c-0.7-0.7-1.3-1.6-1.7-2.6c-0.4-1-0.6-2.1-0.6-3.2s0.2-2.2,0.6-3.2c0.4-1,1-1.8,1.7-2.6c0.7-0.7,1.6-1.3,2.6-1.7
		c1-0.4,2.1-0.6,3.2-0.6c1.2,0,2.3,0.2,3.3,0.6c0.9,0.4,1.8,1.1,2.5,1.9l-2.1,2c-0.5-0.5-1-1-1.6-1.3s-1.3-0.5-2.1-0.5
		c-0.7,0-1.4,0.1-2,0.4c-0.6,0.3-1.2,0.6-1.7,1.1c-0.5,0.5-0.8,1-1.1,1.7c-0.3,0.7-0.4,1.4-0.4,2.2c0,0.8,0.1,1.5,0.4,2.2
		c0.3,0.7,0.6,1.2,1.1,1.7s1,0.8,1.7,1.1c0.6,0.3,1.3,0.4,2,0.4c0.9,0,1.6-0.2,2.3-0.5c0.7-0.4,1.3-0.9,1.8-1.5L101.3,25z"/>
	<path class="st0" d="M112.9,24.9c-0.5,0.9-1.2,1.6-2,2.1s-1.8,0.8-3,0.8c-0.8,0-1.6-0.1-2.2-0.4c-0.7-0.3-1.3-0.7-1.8-1.2
		c-0.5-0.5-0.9-1.1-1.2-1.8c-0.3-0.7-0.4-1.4-0.4-2.3c0-0.8,0.1-1.5,0.4-2.2s0.7-1.3,1.1-1.8c0.5-0.5,1.1-0.9,1.7-1.2
		c0.7-0.3,1.4-0.5,2.2-0.5c0.9,0,1.6,0.1,2.3,0.4s1.2,0.7,1.7,1.2c0.4,0.5,0.8,1.1,1,1.8c0.2,0.7,0.3,1.4,0.3,2.2c0,0.1,0,0.2,0,0.3
		c0,0.1,0,0.2,0,0.2c0,0.1,0,0.2,0,0.2h-8c0.1,0.4,0.2,0.8,0.4,1.1c0.2,0.3,0.4,0.6,0.7,0.8s0.6,0.4,0.9,0.5s0.6,0.1,1,0.1
		c0.6,0,1.2-0.1,1.6-0.4c0.4-0.3,0.8-0.7,1-1.1L112.9,24.9z M110.4,20.8c0-0.2-0.1-0.4-0.2-0.6c-0.1-0.2-0.3-0.4-0.5-0.6
		c-0.2-0.2-0.5-0.4-0.8-0.5c-0.3-0.1-0.7-0.2-1.1-0.2c-0.6,0-1.1,0.2-1.6,0.5c-0.5,0.3-0.8,0.8-1,1.4H110.4z"/>
	<path class="st0" d="M117.6,18.3h0.2c0.3-0.5,0.8-1,1.3-1.3c0.6-0.3,1.2-0.5,1.9-0.5c0.7,0,1.2,0.1,1.8,0.3
		c0.5,0.2,0.9,0.5,1.2,0.9c0.3,0.4,0.6,0.9,0.7,1.4c0.2,0.6,0.2,1.2,0.2,1.8v6.4h-2.8v-6.1c0-0.8-0.2-1.3-0.5-1.7
		c-0.3-0.4-0.8-0.6-1.5-0.6c-0.4,0-0.7,0.1-1,0.2c-0.3,0.2-0.5,0.4-0.8,0.7s-0.4,0.6-0.5,1c-0.1,0.4-0.2,0.8-0.2,1.2v5.2h-2.8V16.9
		h2.7V18.3z"/>
	<path class="st0" d="M128,19.3h-1.9v-2.4h1.9v-3.2h2.8v3.2h2.6v2.4h-2.6v4.2c0,0.3,0,0.5,0.1,0.7c0.1,0.2,0.1,0.4,0.3,0.5
		c0.2,0.2,0.5,0.4,0.9,0.4c0.2,0,0.4,0,0.6-0.1c0.1-0.1,0.3-0.1,0.4-0.2l0.8,2.5c-0.3,0.2-0.7,0.3-1.1,0.4c-0.4,0.1-0.8,0.1-1.3,0.1
		c-0.5,0-1-0.1-1.4-0.3c-0.4-0.2-0.8-0.4-1.1-0.7c-0.7-0.7-1-1.6-1-2.8V19.3z"/>
	<path class="st0" d="M145.4,24.9c-0.5,0.9-1.2,1.6-2,2.1s-1.8,0.8-3,0.8c-0.8,0-1.6-0.1-2.2-0.4c-0.7-0.3-1.3-0.7-1.8-1.2
		c-0.5-0.5-0.9-1.1-1.2-1.8c-0.3-0.7-0.4-1.4-0.4-2.3c0-0.8,0.1-1.5,0.4-2.2s0.7-1.3,1.1-1.8c0.5-0.5,1.1-0.9,1.7-1.2
		c0.7-0.3,1.4-0.5,2.2-0.5c0.9,0,1.6,0.1,2.3,0.4s1.2,0.7,1.7,1.2c0.4,0.5,0.8,1.1,1,1.8c0.2,0.7,0.3,1.4,0.3,2.2c0,0.1,0,0.2,0,0.3
		c0,0.1,0,0.2,0,0.2c0,0.1,0,0.2,0,0.2h-8c0.1,0.4,0.2,0.8,0.4,1.1c0.2,0.3,0.4,0.6,0.7,0.8s0.6,0.4,0.9,0.5s0.6,0.1,1,0.1
		c0.6,0,1.2-0.1,1.6-0.4c0.4-0.3,0.8-0.7,1-1.1L145.4,24.9z M142.8,20.8c0-0.2-0.1-0.4-0.2-0.6c-0.1-0.2-0.3-0.4-0.5-0.6
		c-0.2-0.2-0.5-0.4-0.8-0.5c-0.3-0.1-0.7-0.2-1.1-0.2c-0.6,0-1.1,0.2-1.6,0.5c-0.5,0.3-0.8,0.8-1,1.4H142.8z"/>
	<path class="st0" d="M147.4,16.9h2.7v1.5h0.2c0.1-0.3,0.3-0.5,0.5-0.7c0.2-0.2,0.5-0.4,0.7-0.6c0.3-0.2,0.6-0.3,0.9-0.4
		c0.3-0.1,0.6-0.1,0.9-0.1c0.4,0,0.7,0,1,0.1c0.3,0.1,0.5,0.2,0.7,0.3l-0.8,2.5c-0.2-0.1-0.4-0.2-0.6-0.2c-0.2-0.1-0.5-0.1-0.8-0.1
		c-0.4,0-0.7,0.1-1.1,0.2c-0.3,0.2-0.6,0.4-0.8,0.6c-0.2,0.3-0.4,0.6-0.5,1c-0.1,0.4-0.2,0.8-0.2,1.2v5.2h-2.8V16.9z"/>
</g>
</svg>
