<?xml version="1.0" encoding="utf-8"?>
<!-- Generator: Adobe Illustrator 21.1.0, SVG Export Plug-In . SVG Version: 6.00 Build 0)  -->
<svg version="1.1" baseProfile="basic" id="Layer_1"
	 xmlns="http://www.w3.org/2000/svg" xmlns:xlink="http://www.w3.org/1999/xlink" x="0px" y="0px" viewBox="0 0 1176 625.6"
	 xml:space="preserve">
<style type="text/css">
	.st0{opacity:0.31;fill:#D6E1EA;}
	.st1{opacity:0.39;}
	.st2{fill:#EEF6FF;}
	.st3{fill:#FFFFFF;}
	.st4{fill:#DDEDFF;}
	.st5{fill:#CDE4F9;}
	.st6{fill:#D1E3ED;}
	.st7{fill:#72B243;}
	.st8{fill:#F8B656;}
	.st9{fill:#6C5133;}
	.st10{fill:#A9CF38;}
	.st11{fill:#586432;}
	.st12{fill:#587132;}
	.st13{fill:#579140;}
	.st14{fill:#30A4DD;}
	.st15{fill:#77D0EE;}
	.st16{fill:#315165;}
	.st17{fill:#2773AE;}
	.st18{fill:#4273B9;}
	.st19{fill:#FAA31B;}
	.st20{fill:#FEE600;}
	.st21{fill:#E27826;}
	.st22{fill:#4D893F;}
	.st23{fill:#57A646;}
	.st24{fill:#589842;}
	.st25{fill:#4C6D93;}
	.st26{fill:#69758A;}
	.st27{fill:#5B6880;}
	.st28{fill:#9CA4B2;}
	.st29{fill:#818B9D;}
	.st30{fill:#D6DADC;}
	.st31{fill:#BCC0C4;}
	.st32{fill:#7D888F;}
	.st33{fill:#50311A;}
	.st34{fill:#725245;}
	.st35{fill:#4C91B4;}
	.st36{fill:#A8AEB4;}
	.st37{fill:url(#SVGID_1_);}
	.st38{fill:url(#SVGID_2_);}
	.st39{fill:url(#SVGID_3_);}
	.st40{fill:url(#SVGID_4_);}
	.st41{fill:none;}
	.st42{fill:url(#SVGID_5_);}
	.st43{fill:url(#SVGID_6_);}
	.st44{fill:#6FBCE9;}
	.st45{fill:url(#SVGID_7_);}
	.st46{fill:#C9C9C9;}
	.st47{fill:url(#SVGID_8_);}
	.st48{fill:url(#SVGID_9_);}
	.st49{fill:#FE4B84;}
	.st50{fill:#EF5358;}
	.st51{fill:#FACABC;}
	.st52{fill:#E98A4B;}
	.st53{fill:#AF6138;}
	.st54{opacity:9.000000e-02;}
	.st55{fill:#E88748;}
	.st56{fill:#DD7D3D;}
	.st57{fill:#E7EDF2;}
	.st58{fill:#D6E1EA;}
	.st59{fill:#90A3AD;}
	.st60{fill:#C4CFD2;}
	.st61{fill:#36C2D4;}
	.st62{fill:#FAB755;}
	.st63{fill:#F8B66C;}
	.st64{fill:#F2F2F3;}
	.st65{fill:#607C89;}
	.st66{fill:#F1EFF5;}
	.st67{fill:#E3E4E5;}
	.st68{fill:#EF5257;}
	.st69{fill:#EEEFEF;}
	.st70{fill:#F15A24;}
	.st71{fill:#36464F;}
	.st72{fill:#383838;}
	.st73{fill:#37D390;}
	.st74{fill:#6B5B51;}
</style>
<ellipse class="st0" cx="639.3" cy="546.7" rx="285.5" ry="49.9"/>
<g class="st1">
	<g>
		<circle class="st2" cx="-48.5" cy="-550.4" r="25.5"/>
		<circle class="st2" cx="-13.5" cy="-575.9" r="25.5"/>
		<circle class="st2" cx="20.5" cy="-555.9" r="25.5"/>
		<circle class="st2" cx="-13.5" cy="-550.4" r="25.5"/>
	</g>
	<g>
		<circle class="st2" cx="185.4" cy="-453.3" r="22.6"/>
		<circle class="st2" cx="216.4" cy="-475.9" r="22.6"/>
		<circle class="st2" cx="246.6" cy="-458.2" r="22.6"/>
		<circle class="st2" cx="216.4" cy="-453.3" r="22.6"/>
	</g>
	<g>
		<circle class="st2" cx="222.8" cy="-611.1" r="17.2"/>
		<circle class="st2" cx="246.3" cy="-628.2" r="17.2"/>
		<circle class="st2" cx="269.2" cy="-614.8" r="17.2"/>
		<circle class="st2" cx="246.3" cy="-611.1" r="17.2"/>
	</g>
	<g>
		<circle class="st2" cx="363.8" cy="-516.3" r="17.2"/>
		<circle class="st2" cx="387.3" cy="-533.5" r="17.2"/>
		<circle class="st2" cx="410.2" cy="-520" r="17.2"/>
		<circle class="st2" cx="387.3" cy="-516.3" r="17.2"/>
	</g>
	<rect x="273.5" y="-344.4" class="st2" width="55" height="180"/>
	<rect x="285.5" y="-328.9" class="st3" width="8" height="164.5"/>
	<rect x="304" y="-328.9" class="st3" width="9" height="164.5"/>
	<rect x="320.5" y="-444.9" class="st4" width="122" height="280.5"/>
	<g>
		<rect x="335" y="-424.9" class="st3" width="11.6" height="23.5"/>
		<rect x="355.4" y="-424.9" class="st3" width="11.6" height="23.5"/>
		<rect x="375.8" y="-424.9" class="st3" width="11.6" height="23.5"/>
		<rect x="396.2" y="-424.9" class="st3" width="11.6" height="23.5"/>
		<rect x="416.6" y="-424.9" class="st3" width="11.6" height="23.5"/>
	</g>
	<g>
		<rect x="335" y="-384.9" class="st3" width="11.6" height="23.5"/>
		<rect x="355.4" y="-384.9" class="st3" width="11.6" height="23.5"/>
		<rect x="375.8" y="-384.9" class="st3" width="11.6" height="23.5"/>
		<rect x="396.2" y="-384.9" class="st3" width="11.6" height="23.5"/>
		<rect x="416.6" y="-384.9" class="st3" width="11.6" height="23.5"/>
	</g>
	<g>
		<rect x="335" y="-344.9" class="st3" width="11.6" height="23.5"/>
		<rect x="355.4" y="-344.9" class="st3" width="11.6" height="23.5"/>
		<rect x="375.8" y="-344.9" class="st3" width="11.6" height="23.5"/>
		<rect x="396.2" y="-344.9" class="st3" width="11.6" height="23.5"/>
		<rect x="416.6" y="-344.9" class="st3" width="11.6" height="23.5"/>
	</g>
	<g>
		<rect x="335" y="-304.9" class="st3" width="11.6" height="23.5"/>
		<rect x="355.4" y="-304.9" class="st3" width="11.6" height="23.5"/>
		<rect x="375.8" y="-304.9" class="st3" width="11.6" height="23.5"/>
		<rect x="396.2" y="-304.9" class="st3" width="11.6" height="23.5"/>
		<rect x="416.6" y="-304.9" class="st3" width="11.6" height="23.5"/>
	</g>
	<g>
		<rect x="335" y="-264.9" class="st3" width="11.6" height="23.5"/>
		<rect x="355.4" y="-264.9" class="st3" width="11.6" height="23.5"/>
		<rect x="375.8" y="-264.9" class="st3" width="11.6" height="23.5"/>
		<rect x="396.2" y="-264.9" class="st3" width="11.6" height="23.5"/>
		<rect x="416.6" y="-264.9" class="st3" width="11.6" height="23.5"/>
	</g>
	<rect x="442.5" y="-444.9" class="st5" width="63.5" height="280.5"/>
	<g>
		<rect x="461" y="-424.9" class="st3" width="11" height="23.5"/>
		<rect x="480.5" y="-424.9" class="st3" width="11" height="23.5"/>
	</g>
	<g>
		<rect x="461" y="-384.9" class="st3" width="11" height="23.5"/>
		<rect x="480.5" y="-384.9" class="st3" width="11" height="23.5"/>
	</g>
	<g>
		<rect x="461" y="-344.9" class="st3" width="11" height="23.5"/>
		<rect x="480.5" y="-344.9" class="st3" width="11" height="23.5"/>
	</g>
	<rect x="46" y="-411.9" class="st4" width="45.5" height="246.2"/>
	<rect x="66" y="-435.5" class="st2" width="44" height="269.8"/>
	<rect x="88" y="-446.9" class="st2" width="22" height="11.3"/>
	<rect x="-10" y="-285.4" class="st2" width="53.5" height="119.7"/>
	<rect x="4.5" y="-285.4" class="st2" width="9" height="71"/>
	<rect x="23" y="-285.4" class="st2" width="8.5" height="71"/>
	<rect x="-23" y="-453.3" class="st5" width="46" height="287.6"/>
	<rect x="-7" y="-435.5" class="st2" width="11.5" height="25.2"/>
	<rect x="-7" y="-374.1" class="st2" width="11.5" height="25.2"/>
	<rect x="-7" y="-400.5" class="st6" width="11.5" height="12.6"/>
	<rect x="-7" y="-335.2" class="st2" width="11.5" height="12.6"/>
	<rect x="-120.5" y="-453.3" class="st4" width="97.5" height="288.9"/>
	<rect x="-102.5" y="-435.5" class="st3" width="12.3" height="25.2"/>
	<rect x="-80.2" y="-435.5" class="st3" width="12.3" height="25.2"/>
	<rect x="-57.8" y="-435.5" class="st3" width="12.3" height="25.2"/>
	<rect x="-102.5" y="-372.5" class="st3" width="12.3" height="25.2"/>
	<rect x="-80.2" y="-372.5" class="st3" width="12.3" height="25.2"/>
	<rect x="-57.8" y="-372.5" class="st3" width="12.3" height="25.2"/>
	<rect x="-102.5" y="-400.5" class="st3" width="57" height="12.6"/>
	<rect x="-102.5" y="-337.3" class="st3" width="57" height="12.6"/>
	<path class="st7" d="M-110.9-280.1c0,0-37.6,97.3,2.6,122.7C-108.3-157.4-77.8-185.7-110.9-280.1z"/>
	<path class="st7" d="M-46.6-280.1c0,0-37.6,97.3,2.6,122.7C-44-157.4-13.5-185.7-46.6-280.1z"/>
	<path class="st7" d="M434.6-280.1c0,0-37.6,97.3,2.6,122.7C437.2-157.4,467.7-185.7,434.6-280.1z"/>
	<path class="st7" d="M498.9-280.1c0,0-37.6,97.3,2.6,122.7C501.5-157.4,532-185.7,498.9-280.1z"/>
	<path class="st8" d="M69.3-167.4H8.7c-4.8,0-8.7-3.9-8.7-8.8v0c0-4.8,3.9-8.7,8.7-8.7h60.5c4.8,0,8.7,3.9,8.7,8.7v0
		C78-171.3,74.1-167.4,69.3-167.4z"/>
	<circle class="st8" cx="63.2" cy="-165.7" r="8.3"/>
	<circle class="st8" cx="11.8" cy="-165.7" r="8.3"/>
	<path class="st8" d="M24.8-184.1c1.7-5,5.5-8.7,10.9-8.7h5.9c5.4,0,8.3,3.6,10,8.7l8.2-0.2v-1.3c0-7.2-6.8-12.8-13.9-12.8H31.5
		c-7.2,0-13,5.8-13,13v1.3H24.8z"/>
	<rect x="36.7" y="-192.7" class="st8" width="4.7" height="7.8"/>
</g>
<g>
	<g id="Green-House_2_" transform="translate(672.8 397.3)">
		<rect x="-639.5" y="-183.2" class="st7" width="115.3" height="168"/>
		
			<rect x="-627.1" y="-233.4" transform="matrix(0.7071 -0.7071 0.7071 0.7071 -37.3967 -466.5029)" class="st9" width="90.6" height="90.6"/>
		
			<rect x="-622.4" y="-223.8" transform="matrix(0.7071 -0.7071 0.7071 0.7071 -40.9349 -464.9476)" class="st10" width="81.5" height="81.5"/>
		<polygon class="st7" points="-639.5,-167.7 -581.8,-110.1 -524.2,-167.7 -581.8,-225.4 		"/>
		<rect x="-558" y="-154.3" class="st11" width="15.7" height="34.9"/>
		<rect x="-627.9" y="-161.6" class="st11" width="54" height="42.1"/>
		<rect x="-630.5" y="-103.7" class="st12" width="57" height="29.4"/>
		<rect x="-639.5" y="-167.7" class="st3" width="115.3" height="6.2"/>
		<rect x="-639.5" y="-119.4" class="st3" width="115.3" height="6.2"/>
		<rect x="-639.5" y="-132.6" class="st3" width="115.3" height="3.9"/>
		<rect x="-639.5" y="-183.2" class="st3" width="115.3" height="6.2"/>
		<path class="st11" d="M-547.2-104.6c-7,0-12.6,5.7-12.6,12.7v38.3h25.4v-38.3c0,0,0-0.1,0-0.1c0-7-5.7-12.6-12.7-12.6
			C-547.1-104.6-547.1-104.6-547.2-104.6z"/>
		<rect x="-639.5" y="-55.2" class="st3" width="115.3" height="6.9"/>
		<rect x="-630.5" y="-162.6" class="st3" width="5.1" height="111.2"/>
		<rect x="-612.5" y="-162.6" class="st3" width="5.1" height="111.2"/>
		<rect x="-594.5" y="-162.6" class="st3" width="5.1" height="111.2"/>
		<rect x="-576.5" y="-162.6" class="st3" width="5.1" height="111.2"/>
		<rect x="-534.6" y="-63" class="st13" width="10.4" height="51.7"/>
		<rect x="-570.2" y="-63" class="st13" width="10.4" height="51.7"/>
		<rect x="-596.1" y="-208.6" class="st3" width="28.6" height="28.6"/>
		<rect x="-589.4" y="-202.1" class="st7" width="15.3" height="15.3"/>
		<rect x="-639.5" y="-177.1" class="st7" width="115.3" height="9.3"/>
	</g>
	<g id="Blue-House_2_" transform="translate(744.82 408.2)">
		<rect x="-596" y="-176" class="st14" width="115.3" height="190.1"/>
		
			<rect x="-583.7" y="-226.3" transform="matrix(0.7071 -0.7071 0.7071 0.7071 -29.6811 -433.6901)" class="st9" width="90.6" height="90.6"/>
		<polygon class="st15" points="-538.3,-233.6 -480.8,-176 -538.3,-118.3 -596,-176 		"/>
		
			<rect x="-579" y="-201.2" transform="matrix(0.7071 -0.7071 0.7071 0.7071 -44.1709 -427.648)" class="st14" width="81.5" height="81.5"/>
		<rect x="-514.5" y="-147.1" class="st16" width="15.7" height="34.9"/>
		<rect x="-584.5" y="-154.3" class="st16" width="54" height="42.1"/>
		<rect x="-587.2" y="-96.7" class="st16" width="57" height="29.4"/>
		<rect x="-596.2" y="-160.5" class="st3" width="115.3" height="6.2"/>
		<rect x="-596.2" y="-112.3" class="st3" width="115.3" height="6.2"/>
		<rect x="-596.2" y="-125.6" class="st3" width="115.3" height="3.9"/>
		<rect x="-596.2" y="-176" class="st3" width="115.3" height="6.2"/>
		<path class="st16" d="M-503.9-97.5c0,0-0.1,0-0.1,0c-7,0-12.6,5.7-12.6,12.7v38.3h25.5v-38.3c0,0,0-0.1,0-0.1
			c0-7-5.7-12.6-12.7-12.6H-503.9z"/>
		<rect x="-596.2" y="-48.2" class="st3" width="115.3" height="6.9"/>
		<rect x="-587.2" y="-155.5" class="st3" width="5.1" height="111.4"/>
		<rect x="-569.2" y="-155.5" class="st3" width="5.1" height="111.4"/>
		<rect x="-551.2" y="-155.5" class="st3" width="5.1" height="111.4"/>
		<rect x="-533.2" y="-155.5" class="st3" width="5.1" height="111.4"/>
		<rect x="-491.1" y="-55.7" class="st17" width="10.4" height="55.4"/>
		<rect x="-526.9" y="-55.7" class="st17" width="10.4" height="55.4"/>
		<rect x="-552.8" y="-201.6" class="st3" width="28.6" height="28.6"/>
		<rect x="-546.1" y="-195" class="st18" width="15.3" height="15.3"/>
		<rect x="-596.2" y="-169.8" class="st14" width="115.3" height="9.3"/>
	</g>
	<g id="Yellow-House_2_" transform="translate(815.75 426.76)">
		<rect x="-551.6" y="-165.3" class="st19" width="115.3" height="154.1"/>
		
			<rect x="-539.3" y="-215.5" transform="matrix(0.7071 -0.7071 0.7071 0.7071 -24.3141 -399.1274)" class="st9" width="90.6" height="90.6"/>
		<polygon class="st20" points="-493.9,-222.9 -436.3,-165.3 -493.9,-107.6 -551.6,-165.3 		"/>
		
			<rect x="-534.6" y="-190.4" transform="matrix(0.7071 -0.7071 0.7071 0.7071 -38.8087 -393.0739)" class="st19" width="81.5" height="81.5"/>
		<rect x="-470.1" y="-136.3" class="st9" width="15.7" height="34.9"/>
		<rect x="-540.1" y="-143.6" class="st9" width="54" height="42.1"/>
		<rect x="-542.8" y="-85.9" class="st9" width="57" height="29.4"/>
		<rect x="-551.8" y="-149.7" class="st3" width="115.3" height="6.2"/>
		<rect x="-551.8" y="-101.4" class="st3" width="115.3" height="6.2"/>
		<rect x="-551.8" y="-114.8" class="st3" width="115.3" height="3.9"/>
		<rect x="-551.8" y="-165.3" class="st3" width="115.3" height="6.2"/>
		<path class="st9" d="M-459.5-86.8c-7,0-12.6,5.7-12.6,12.7v38.3h25.4v-38.3c0,0,0-0.1,0-0.1c0-7-5.7-12.6-12.7-12.6
			C-459.4-86.8-459.5-86.8-459.5-86.8z"/>
		<rect x="-551.6" y="-37.4" class="st3" width="115.3" height="6.9"/>
		<rect x="-542.8" y="-144.8" class="st3" width="5.1" height="111.4"/>
		<rect x="-524.8" y="-144.8" class="st3" width="5.1" height="111.4"/>
		<rect x="-506.8" y="-144.8" class="st3" width="5.1" height="111.4"/>
		<rect x="-488.8" y="-144.8" class="st3" width="5.1" height="111.4"/>
		<rect x="-446.7" y="-45" class="st21" width="10.4" height="33.9"/>
		<rect x="-482.5" y="-45" class="st21" width="10.4" height="33.9"/>
		<rect x="-508.4" y="-190.8" class="st3" width="28.6" height="28.6"/>
		<rect x="-501.7" y="-184.1" class="st19" width="15.3" height="15.3"/>
		<rect x="-551.8" y="-159.1" class="st19" width="115.3" height="9.3"/>
	</g>
</g>
<g id="Hill_1_" transform="translate(584 501)">
	<polygon class="st12" points="-575.4,-69.8 -134,-69.8 -70.5,-77.9 -575.4,-146.5 	"/>
	<path class="st22" d="M-517.4-201.9c33,0,59.8,26.8,59.8,59.8s-26.8,59.8-59.8,59.8c-33,0-59.8-26.8-59.8-59.8
		S-550.6-201.9-517.4-201.9z"/>
	<path class="st7" d="M-466.3-165c-17.5,0.1-31.6,14.2-31.8,31.7c0,17.5,14.2,31.7,31.7,31.7h31.7c17.5,0,31.8-14.2,31.8-31.7
		c0,0,0,0,0-0.1c0-17.5-14.2-31.7-31.7-31.7L-466.3-165L-466.3-165z"/>
	<ellipse id="Oval_1_" class="st23" cx="-538.8" cy="-120" rx="18.3" ry="18.3"/>
	<path class="st24" d="M-406.4-122.5c0.1-15,12.3-27.2,27.3-27.3c15.1,0,27.3,12.2,27.3,27.3c-0.6,14.2-12,25.6-26.2,26.2
		C-393-95.7-405.8-107.4-406.4-122.5L-406.4-122.5z"/>
</g>
<g>
	<rect id="Background-Building_2_" x="1044.5" y="352.1" class="st25" width="131.5" height="78.4"/>
	<g id="Behind-Towers_2_" transform="translate(1141 374)">
		<rect x="-124.9" y="-158.2" class="st26" width="111.3" height="214.7"/>
		<rect x="-46.5" y="-158.2" class="st27" width="32.9" height="214.7"/>
	</g>
	<g id="Left-Tower_2_" transform="translate(1131.15 266.84)">
		<rect x="-36.7" y="-161.9" class="st28" width="8" height="56.5"/>
		<rect x="-36.6" y="-112.6" class="st27" width="23" height="71.7"/>
		<rect x="-28.6" y="-101.9" class="st29" width="35.2" height="265.7"/>
		<rect x="-8.3" y="-95.1" class="st26" width="8.2" height="8.2"/>
		<rect x="-21.8" y="-95.1" class="st26" width="8.2" height="8.2"/>
		<rect x="-8.3" y="-79.2" class="st26" width="8.2" height="8.2"/>
		<rect x="-21.8" y="-79.2" class="st26" width="8.2" height="8.2"/>
		<rect x="-8.3" y="-63.4" class="st26" width="8.2" height="8.2"/>
		<rect x="-21.8" y="-63.4" class="st26" width="8.2" height="8.2"/>
		<rect x="-8.3" y="-47.4" class="st26" width="8.2" height="8.2"/>
		<rect x="-21.8" y="-47.4" class="st26" width="8.2" height="8.2"/>
		<rect x="-8.3" y="-31.5" class="st26" width="8.2" height="8.2"/>
		<rect x="-21.8" y="-31.5" class="st26" width="8.2" height="8.2"/>
		<rect x="-8.3" y="-15.7" class="st30" width="8.2" height="8.2"/>
		<rect x="-21.8" y="-15.7" class="st26" width="8.2" height="8.2"/>
		<rect x="-8.3" y="0.3" class="st26" width="8.2" height="8.2"/>
		<rect x="-21.8" y="0.3" class="st26" width="8.2" height="8.2"/>
		<rect x="-8.3" y="16.2" class="st26" width="8.2" height="8.2"/>
		<rect x="-21.8" y="16.2" class="st26" width="8.2" height="8.2"/>
		<rect x="-8.3" y="32" class="st26" width="8.2" height="8.2"/>
		<rect x="-21.8" y="32" class="st26" width="8.2" height="8.2"/>
		<rect x="-8.3" y="47.9" class="st26" width="8.2" height="8.2"/>
		<rect x="-21.8" y="47.9" class="st26" width="8.2" height="8.2"/>
		<rect x="-8.3" y="63.9" class="st26" width="8.2" height="8.2"/>
		<rect x="-21.8" y="63.9" class="st26" width="8.2" height="8.2"/>
		<rect x="-8.3" y="79.7" class="st26" width="8.2" height="8.2"/>
		<rect x="-21.8" y="79.7" class="st26" width="8.2" height="8.2"/>
		<rect x="-8.3" y="95.6" class="st26" width="8.2" height="8.2"/>
		<rect x="-21.8" y="95.6" class="st26" width="8.2" height="8.2"/>
		<rect x="-8.3" y="111.6" class="st26" width="8.2" height="8.2"/>
		<rect x="-21.8" y="111.6" class="st26" width="8.2" height="8.2"/>
		<rect x="-8.3" y="127.4" class="st26" width="8.2" height="8.2"/>
		<rect x="-21.8" y="127.4" class="st26" width="8.2" height="8.2"/>
		<rect x="-8.3" y="143.3" class="st26" width="8.2" height="8.2"/>
		<rect x="-21.8" y="143.3" class="st30" width="8.2" height="8.2"/>
	</g>
	<g id="Right-Tower_2_" transform="translate(1195.27 266.84)">
		<rect x="-132" y="-161.9" class="st28" width="8" height="56.5"/>
		<rect x="-147" y="-112.6" class="st27" width="23" height="71.7"/>
		<rect x="-168.3" y="-101.9" class="st29" width="35.2" height="265.7"/>
		<rect x="-148" y="-95.1" class="st26" width="8.2" height="8.2"/>
		<rect x="-161.5" y="-95.1" class="st26" width="8.2" height="8.2"/>
		<rect x="-148" y="-79.2" class="st26" width="8.2" height="8.2"/>
		<rect x="-161.5" y="-79.2" class="st26" width="8.2" height="8.2"/>
		<rect x="-148" y="-63.4" class="st26" width="8.2" height="8.2"/>
		<rect x="-161.5" y="-63.4" class="st26" width="8.2" height="8.2"/>
		<rect x="-148" y="-47.4" class="st26" width="8.2" height="8.2"/>
		<rect x="-161.5" y="-47.4" class="st30" width="8.2" height="8.2"/>
		<rect x="-148" y="-31.5" class="st26" width="8.2" height="8.2"/>
		<rect x="-161.5" y="-31.5" class="st26" width="8.2" height="8.2"/>
		<rect x="-148" y="-15.7" class="st26" width="8.2" height="8.2"/>
		<rect x="-161.5" y="-15.7" class="st26" width="8.2" height="8.2"/>
		<rect x="-148" y="0.3" class="st26" width="8.2" height="8.2"/>
		<rect x="-161.5" y="0.3" class="st26" width="8.2" height="8.2"/>
		<rect x="-148" y="16.2" class="st30" width="8.2" height="8.2"/>
		<rect x="-161.5" y="16.2" class="st26" width="8.2" height="8.2"/>
		<rect x="-148" y="32" class="st26" width="8.2" height="8.2"/>
		<rect x="-161.5" y="32" class="st26" width="8.2" height="8.2"/>
		<rect x="-148" y="47.9" class="st26" width="8.2" height="8.2"/>
		<rect x="-161.5" y="47.9" class="st26" width="8.2" height="8.2"/>
		<rect x="-148" y="63.9" class="st26" width="8.2" height="8.2"/>
		<rect x="-161.5" y="63.9" class="st26" width="8.2" height="8.2"/>
		<rect x="-148" y="79.7" class="st26" width="8.2" height="8.2"/>
		<rect x="-161.5" y="79.7" class="st26" width="8.2" height="8.2"/>
		<rect x="-148" y="95.6" class="st26" width="8.2" height="8.2"/>
		<rect x="-161.5" y="95.6" class="st26" width="8.2" height="8.2"/>
		<rect x="-148" y="111.6" class="st26" width="8.2" height="8.2"/>
		<rect x="-161.5" y="111.6" class="st26" width="8.2" height="8.2"/>
		<rect x="-148" y="127.4" class="st26" width="8.2" height="8.2"/>
		<rect x="-161.5" y="127.4" class="st26" width="8.2" height="8.2"/>
		<rect x="-148" y="143.3" class="st26" width="8.2" height="8.2"/>
		<rect x="-161.5" y="143.3" class="st26" width="8.2" height="8.2"/>
	</g>
	<g id="White-Building_2_" transform="translate(1115 444)">
		<rect x="6" y="-123.2" class="st31" width="33.4" height="109.8"/>
		<rect x="30.6" y="-116.6" class="st32" width="4.3" height="103.1"/>
		<rect x="20.6" y="-116.6" class="st32" width="4.3" height="103.1"/>
		<rect x="10.5" y="-116.6" class="st32" width="4.3" height="103.1"/>
		<rect x="6" y="-155.7" class="st30" width="33.4" height="33.4"/>
	</g>
	<g id="Brown-Building_2_" transform="translate(1286 353)">
		<polyline class="st33" points="-314.8,77.5 -314.8,-158.5 -395.8,-158.5 -395.8,77.5 		"/>
		<polyline class="st34" points="-314.8,77.5 -314.8,-158.5 -373.5,-158.5 -373.5,77.5 		"/>
		<rect x="-365.7" y="-149.5" class="st33" width="56.2" height="5.3"/>
		<rect x="-365.7" y="-136.3" class="st33" width="56.2" height="5.3"/>
		<rect x="-365.7" y="-123" class="st33" width="56.2" height="5.3"/>
		<rect x="-365.7" y="-109.8" class="st33" width="56.2" height="5.3"/>
		<rect x="-365.7" y="-96.5" class="st33" width="56.2" height="5.3"/>
		<rect x="-365.7" y="-83.3" class="st33" width="56.2" height="5.3"/>
		<rect x="-365.7" y="-70" class="st33" width="56.2" height="5.3"/>
		<rect x="-365.7" y="-56.7" class="st33" width="56.2" height="5.3"/>
		<rect x="-365.7" y="-43.5" class="st33" width="56.2" height="5.3"/>
		<rect x="-365.7" y="-30.2" class="st33" width="56.2" height="5.3"/>
		<rect x="-365.7" y="-17" class="st33" width="56.2" height="5.3"/>
		<rect x="-365.7" y="-3.7" class="st33" width="56.2" height="5.3"/>
		<rect x="-365.7" y="9.5" class="st33" width="56.2" height="5.3"/>
		<rect x="-365.7" y="22.8" class="st33" width="56.2" height="5.3"/>
		<rect x="-365.7" y="36.1" class="st33" width="56.2" height="5.3"/>
		<rect x="-365.7" y="49.3" class="st33" width="56.2" height="5.3"/>
	</g>
	<g id="Blue-Building_2_" transform="translate(1333 388)">
		<rect x="-465" y="-157.7" class="st35" width="60.3" height="200.2"/>
		<rect x="-438.9" y="-148.6" class="st25" width="8" height="191.1"/>
		<rect x="-420.7" y="-148.6" class="st25" width="8" height="191.1"/>
		<rect x="-456.5" y="-148.6" class="st25" width="8" height="191.1"/>
	</g>
	<g id="TransAmerica_2_" transform="translate(1222 166)">
		<rect x="-260.4" y="-96.4" class="st36" width="67" height="319.7"/>
		<polygon class="st30" points="-274.7,265.7 -179.2,265.7 -221,-166 -232.9,-166 		"/>
		<g id="Windows_2_" transform="translate(9 73.1)">
			<polygon class="st36" points="-209.9,55.1 -209.1,63.5 -262.7,63.5 -261.9,55.1 			"/>
			<polygon class="st36" points="-204.9,106.9 -204,115.3 -267.7,115.3 -266.9,106.9 			"/>
			<polygon class="st36" points="-206.6,89.2 -205.7,98.3 -266.1,98.3 -265.2,89.2 			"/>
			<polygon class="st36" points="-203.2,124 -202.5,132.4 -269.4,132.4 -268.6,124 			"/>
			<polygon class="st36" points="-241.2,-158.5 -240.8,-162.7 -231,-162.7 -230.7,-158.5 			"/>
			<polygon class="st36" points="-211.6,38 -210.7,46.4 -261,46.4 -260.2,38 			"/>
			<polygon class="st36" points="-196.6,192.5 -275.2,192.5 -275.2,192.3 -196.6,192.3 			"/>
			<polygon class="st36" points="-200,158.2 -199.2,166.6 -272.7,166.6 -271.9,158.2 			"/>
			<polygon class="st36" points="-201.5,141.1 -200.8,149.5 -271.1,149.5 -270.2,141.1 			"/>
			<polygon class="st36" points="-198.3,175.2 -197.5,183.7 -274.4,183.7 -273.6,175.2 			"/>
			<polygon class="st36" points="-208.2,72.2 -207.4,80.6 -264.4,80.6 -263.5,72.2 			"/>
			<polygon class="st36" points="-213.2,20.9 -212.4,29.3 -259.5,29.3 -258.7,20.9 			"/>
			<polygon class="st36" points="-226.5,-115.7 -225.7,-107.3 -246.2,-107.3 -245.4,-115.7 			"/>
			<polygon class="st36" points="-224.8,-98.6 -224,-90.2 -247.8,-90.2 -247,-98.6 			"/>
			<polygon class="st36" points="-229.8,-149.9 -229,-141.4 -242.9,-141.4 -242,-149.9 			"/>
			<polygon class="st36" points="-228.2,-132.8 -227.4,-124.4 -244.5,-124.4 -243.7,-132.8 			"/>
			<polygon class="st36" points="-223.2,-81.5 -222.4,-73.1 -249.5,-73.1 -248.7,-81.5 			"/>
			<polygon class="st36" points="-216.5,-13.2 -215.7,-4.8 -256.1,-4.8 -255.3,-13.2 			"/>
			<polygon class="st36" points="-221.5,-64.5 -220.7,-56.1 -251.2,-56.1 -250.3,-64.5 			"/>
			<polygon class="st36" points="-214.9,3.8 -214.1,12.3 -257.8,12.3 -257,3.8 			"/>
			<polygon class="st36" points="-218.2,-30.3 -217.4,-21.9 -254.5,-21.9 -253.7,-30.3 			"/>
			<polygon class="st36" points="-219.9,-47.4 -219,-39 -252.8,-39 -252,-47.4 			"/>
		</g>
	</g>
</g>
<g id="Jet_1_">
	
		<linearGradient id="SVGID_1_" gradientUnits="userSpaceOnUse" x1="-304.5673" y1="416.1482" x2="-304.7145" y2="411.0034" gradientTransform="matrix(13.86 0 0 -3.5633 5081.042 1555.8422)">
		<stop  offset="0" style="stop-color:#F0EFEF"/>
		<stop  offset="8.600000e-03" style="stop-color:#EDECEC"/>
		<stop  offset="0.1272" style="stop-color:#CAC8C8"/>
		<stop  offset="0.2544" style="stop-color:#B0AFAF"/>
		<stop  offset="0.3917" style="stop-color:#9E9D9D"/>
		<stop  offset="0.5436" style="stop-color:#929192"/>
		<stop  offset="0.7216" style="stop-color:#8B8B8B"/>
		<stop  offset="0.989" style="stop-color:#898989"/>
	</linearGradient>
	<path class="st37" d="M870.6,78.1c-4.8-2.3-10.4-4-11.5-4.4c-3.3-1.1-10.9,0-10.9,0l6.5,5.3C855.1,79,870.1,78,870.6,78.1
		L870.6,78.1z"/>
	
		<linearGradient id="SVGID_2_" gradientUnits="userSpaceOnUse" x1="-295.3363" y1="406.1234" x2="-295.4835" y2="400.9787" gradientTransform="matrix(11.77 0 0 -3.2269 4335.8882 1384.0599)">
		<stop  offset="0" style="stop-color:#F0EFEF"/>
		<stop  offset="8.600000e-03" style="stop-color:#EDECEC"/>
		<stop  offset="0.1272" style="stop-color:#CAC8C8"/>
		<stop  offset="0.2544" style="stop-color:#B0AFAF"/>
		<stop  offset="0.3917" style="stop-color:#9E9D9D"/>
		<stop  offset="0.5436" style="stop-color:#929192"/>
		<stop  offset="0.7216" style="stop-color:#8B8B8B"/>
		<stop  offset="0.989" style="stop-color:#898989"/>
	</linearGradient>
	<path class="st38" d="M852.1,74c-1.4,0-1.1,0.2-2.1,0.2l5.8,4.8c4.4-0.3,8.8-0.6,13.2-0.8c-4.4-2.1-9.5-3.6-10.4-3.9
		c-0.8-0.3-2.6-0.8-6.6-0.3L852.1,74z"/>
	
		<linearGradient id="SVGID_3_" gradientUnits="userSpaceOnUse" x1="-296.1395" y1="405.1306" x2="-292.584" y2="406.0334" gradientTransform="matrix(11.77 0 0 -3.2269 4335.8882 1384.0599)">
		<stop  offset="0" style="stop-color:#FFFFFF"/>
		<stop  offset="1" style="stop-color:#908F8F"/>
	</linearGradient>
	<path class="st39" d="M852.1,74c-1.4,0-1.1,0.2-2.1,0.2l5.8,4.8c4.4-0.3,8.8-0.6,13.2-0.8c-4.4-2.1-9.5-3.6-10.4-3.9
		c-0.8-0.3-2.6-0.8-6.6-0.3L852.1,74z"/>
	
		<linearGradient id="SVGID_4_" gradientUnits="userSpaceOnUse" x1="-346.195" y1="495.6069" x2="-346.1593" y2="493.8539" gradientTransform="matrix(69.4324 0 0 -20.7813 24896.5137 10358.0479)">
		<stop  offset="0.7692" style="stop-color:#E6E6E6"/>
		<stop  offset="0.8516" style="stop-color:#C9C9C9"/>
		<stop  offset="0.8599" style="stop-color:#B9B9B9"/>
		<stop  offset="0.8818" style="stop-color:#9C9B9C"/>
		<stop  offset="0.9053" style="stop-color:#888787"/>
		<stop  offset="0.9308" style="stop-color:#7B7A7A"/>
		<stop  offset="0.9598" style="stop-color:#737373"/>
		<stop  offset="1" style="stop-color:#717171"/>
	</linearGradient>
	<path class="st40" d="M804.3,62.4c0,0,7.4-0.9,10.2,0c2.6,0.7,13.1,14.6,16.3,17.1c9.5-0.7,45.4-2.5,63.3-3.3
		c7.4-0.4,15.2,1.1,18.6,5.3c3.6,2.5,3.7,3.2,3.7,4.2c0.2,2.6-4.7,4.8-12.1,6.2c-7.3,1.4-53.2,4-67.7,3.7
		C822.3,95.2,813.4,85,813.4,85L804.3,62.4L804.3,62.4z"/>
	<path class="st41" d="M871.1,93.4c-15.5,0.9-28.6,1.2-34.9,1.1c-13.3-0.5-21.5-9.2-22.6-10.3L805.5,63c0.7,0,1.8-0.2,2.8-0.2
		c3.4-0.2,5,0,6,0.2c1.3,0.4,7.8,7.8,11,11.6c1.9,2.3,3.4,4.3,4.5,5.2l0.3,0.3h0.3c2.8-0.2,8.3-0.5,16.6-0.9
		c7.8-0.3,17-0.9,25.6-1.4c7.9-0.4,15.4-0.9,21.2-1.1c6.5-0.3,14.4,0.7,17.6,4.9l0.2,0.2h0.2c3.2,2.1,3.4,2.8,3.4,3.7
		c0.2,1.4-2.9,3.7-11.5,5.3c-3.7,0.7-16.8,1.6-32.8,2.5L871.1,93.4z"/>
	<path class="st41" d="M915.2,85.5l-93.5,5.1c0.9,0.5,1.9,1.1,3.2,1.6l89.4-4.9c0.7-0.5,1.1-1.1,0.9-1.6L915.2,85.5
		C915.2,85.7,915.2,85.7,915.2,85.5L915.2,85.5z"/>
	<path class="st41" d="M861.1,94.5c0-1.9,11.3-2.3,13.4-2.5c0,0,2.3-0.2,2.3,1.1l0.2,2.8c0.2,1.4-2.1,1.4-2.1,1.4
		c-2.1,0.2-13.6,0.5-13.6-0.9C861.3,96.4,861.1,94.5,861.1,94.5z"/>
	<path class="st41" d="M874.7,92.2C874.7,92.2,874.5,92.2,874.7,92.2l0.3,5.3h0.5c0.4,0,1.1-0.2,1.2-0.5c0.2-0.2,0.3-0.4,0.2-0.7
		l-0.2-2.9c0-0.2,0-0.3-0.2-0.3c0-0.2-0.2-0.2-0.4-0.3c-0.3-0.3-1-0.3-1.3-0.3c0-0.3,0-0.3-0.2-0.3L874.7,92.2z"/>
	<path class="st41" d="M872.7,92.2l0.3,5.3h0.9l-0.5-5.3h-1H872.7z"/>
	<path class="st41" d="M821.8,90.6l-1.6,0.2c0.9,0.5,1.8,1.1,2.8,1.6l1.9-0.2C823.8,91.7,822.8,91.2,821.8,90.6L821.8,90.6z
		 M916.1,85.3h-0.9v0.2c0,0.5-0.2,1.1-0.9,1.6h1.2c0.4-0.5,0.5-0.9,0.5-1.4V85.3z"/>
	<path class="st41" d="M905,81.8c1.2-0.2,2.1-0.2,3.7-0.2c0.9,0,0.9-0.9,0.2-1.2c-1.3-1-2.9-1.6-4.6-1.8c-0.5-0.2-0.9,0.2-0.9,0.7
		c0,0.5,0.3,1.1,0.5,1.8c0.3,0.5,0.6,0.8,1.3,0.8L905,81.8z"/>
	<path class="st41" d="M825.5,83c0.2,1.1-2.3,2.1-7.9,2.5c-5.7,0.3-10.4-1.2-10.4-1.4c0-0.2,4.4-2.3,10.2-2.5
		C823,81.1,825.5,81.8,825.5,83z"/>
	
		<linearGradient id="SVGID_5_" gradientUnits="userSpaceOnUse" x1="292.0152" y1="-56.3139" x2="357.7165" y2="-72.2566" gradientTransform="matrix(-1 0 0 -1 1184.8813 23.2501)">
		<stop  offset="0" style="stop-color:#8C8C8C"/>
		<stop  offset="1" style="stop-color:#404040"/>
	</linearGradient>
	<path class="st42" d="M833.2,84.6c0,0.2,0.2,0.4,0.4,0.4h1.4c0.2,0,0.4-0.2,0.4-0.4l-0.2-2.1c-0.1-0.2-0.4-0.4-0.6-0.4h-1.5
		c-0.2,0-0.3,0.2-0.3,0.3L833.2,84.6L833.2,84.6z M837.6,84.4c0,0.2,0.2,0.3,0.3,0.3h1.5c0.2,0,0.3-0.2,0.3-0.3l-0.2-2.1
		c0-0.2-0.2-0.4-0.5-0.4h-1.5c-0.2,0-0.3,0.2-0.3,0.4L837.6,84.4L837.6,84.4z M842.2,84.1c0,0.2,0.2,0.3,0.6,0.3h1.5
		c0.2,0,0.3-0.2,0.3-0.3l-0.2-2.1c0-0.2-0.2-0.4-0.5-0.4h-1.4c-0.2,0-0.4,0.3-0.4,0.5l0.2,2.1L842.2,84.1z M846.5,83.9
		c0,0.2,0.2,0.3,0.5,0.3h1.5c0.2,0,0.3-0.2,0.3-0.3l-0.2-2.1c-0.2,0-0.3-0.2-0.3-0.4h-1.5c-0.2,0-0.5,0.2-0.5,0.4L846.5,83.9
		L846.5,83.9z M851,83.7c0,0.2,0.2,0.4,0.3,0.4h1.5c0.2,0,0.3-0.2,0.3-0.4l-0.2-2.1c0-0.2-0.2-0.4-0.5-0.4h-1.3
		c-0.2,0-0.3,0.2-0.3,0.3l0.3,2.1L851,83.7z M855.2,83.4c0,0.2,0.2,0.4,0.5,0.4h1.5c0.2,0,0.4-0.2,0.4-0.4l-0.2-2.1
		c0-0.2-0.2-0.4-0.6-0.4h-1.5c-0.2,0-0.3,0.2-0.3,0.3l0.3,2.1L855.2,83.4z M859.8,83.2c0,0.2,0.2,0.3,0.5,0.3h1.5
		c0.2,0,0.3-0.2,0.3-0.3l-0.2-2.1c0-0.2-0.2-0.4-0.5-0.4H860c-0.2,0-0.4,0.2-0.4,0.4L859.8,83.2L859.8,83.2z M864.1,83
		c0,0.2,0.2,0.4,0.5,0.4h1.3c0.3,0,0.5-0.2,0.5-0.4l-0.2-2.1c0-0.2-0.2-0.4-0.5-0.4h-1.5c-0.2,0-0.3,0.2-0.3,0.4l0.3,2.1L864.1,83z
		 M868.7,82.7c0,0.2,0.2,0.4,0.3,0.4h1.5c0.2,0,0.3-0.2,0.3-0.4l-0.2-2.1c0-0.2-0.2-0.4-0.5-0.4h-1.4c-0.2,0-0.3,0.2-0.3,0.4
		L868.7,82.7L868.7,82.7z M873.1,82.5c0,0.2,0.2,0.3,0.4,0.3h1.3c0.2,0,0.3-0.2,0.3-0.3l-0.2-2.1c0-0.2-0.2-0.4-0.3-0.4h-1.5
		c-0.2,0-0.3,0.2-0.3,0.4l0.2,2.1L873.1,82.5z M877.4,82.3c0,0.2,0.2,0.3,0.5,0.3h1.5c0.2,0,0.3-0.2,0.3-0.3l-0.2-2.1
		c0-0.2-0.2-0.4-0.5-0.4h-1.5c-0.2,0-0.3,0.2-0.3,0.4v2.1L877.4,82.3z M881.7,82c0,0.2,0.2,0.4,0.6,0.4h1.5c0.2,0,0.3-0.2,0.3-0.4
		l-0.2-2.1c0-0.2-0.2-0.4-0.4-0.4h-1.3c-0.2,0-0.3,0.2-0.3,0.4v2.1L881.7,82z M886.2,81.8c0,0.2,0.2,0.3,0.6,0.3h1.4
		c0.2,0,0.4-0.2,0.4-0.3l-0.2-2.1c0-0.2-0.2-0.4-0.3-0.4h-1.5c-0.2,0-0.3,0.2-0.3,0.3L886.2,81.8L886.2,81.8z M890.6,81.4
		c0,0.2,0.2,0.4,0.3,0.4h1.5c0.2,0,0.3-0.2,0.3-0.4l-0.2-2.1c0-0.2-0.2-0.4-0.6-0.4h-1.4c-0.2,0-0.4,0.2-0.4,0.3L890.6,81.4
		L890.6,81.4z M886,87.1c0,0-27,12.4-30.2,13.4c-3.2,1.1-12.5,1.1-12.5,1.1l18.5-13.1L886,87.1L886,87.1z"/>
	
		<linearGradient id="SVGID_6_" gradientUnits="userSpaceOnUse" x1="-326.8881" y1="470.824" x2="-326.8561" y2="469.4801" gradientTransform="matrix(24.33 0 0 -8.5 8817.4727 4090.0381)">
		<stop  offset="0" style="stop-color:#E4E4E4"/>
		<stop  offset="0.5954" style="stop-color:#C8C8C8"/>
		<stop  offset="1" style="stop-color:#B3B3B3"/>
	</linearGradient>
	<path class="st43" d="M848.7,100.5c-1.4,0-2.6,0.2-3.7,0.2l17.8-12.5l21.5-1.2c-10.5,4.8-26.7,12-28.9,12.7
		c-0.6,0.4-2.4,0.7-6.5,0.9H848.7z"/>
	<path class="st44" d="M816.4,88.1c0.5,0.5,1.3,1.1,2.1,1.6h0.2C817.9,89.2,817.2,88.7,816.4,88.1L816.4,88.1z"/>
	
		<linearGradient id="SVGID_7_" gradientUnits="userSpaceOnUse" x1="-276.0403" y1="2319.2866" x2="499.5845" y2="-786.6985" gradientTransform="matrix(-1 0 0 -1 1184.8813 23.2501)">
		<stop  offset="0" style="stop-color:#55A5D7"/>
		<stop  offset="0.7692" style="stop-color:#55A5D7"/>
		<stop  offset="0.8516" style="stop-color:#4C96C7"/>
		<stop  offset="0.8695" style="stop-color:#4585AF"/>
		<stop  offset="0.8956" style="stop-color:#3D759A"/>
		<stop  offset="0.924" style="stop-color:#386A8C"/>
		<stop  offset="0.9562" style="stop-color:#346485"/>
		<stop  offset="1" style="stop-color:#336282"/>
	</linearGradient>
	<path class="st45" d="M817.9,88.1h-1.4l2.1,1.6h1.5C819.4,89.1,818.7,88.6,817.9,88.1z M914.5,82.9h-1.2c0.8,0.7,1.3,1.2,1.5,1.6
		h0.8c-0.2-0.4-0.3-0.9-1.3-1.6H914.5z"/>
	<path class="st46" d="M899.5,85.3l-3,0.2h0.2l2.7-0.2H899.5L899.5,85.3z M898.8,78.4l-2.7,0.2c-0.6,0-1,0.5-1.1,1.1l0.4,4.2h0.4
		l-0.4-4.2c0-0.4,0.2-0.7,0.5-0.7l2.7-0.3c0.4,0,0.7,0.2,0.7,0.5l0.5,4.2h0.3l-0.3-4.4c0.2-0.5-0.2-1-0.8-1L898.8,78.4z"/>
	
		<linearGradient id="SVGID_8_" gradientUnits="userSpaceOnUse" x1="-265.9701" y1="2227.9285" x2="483.7859" y2="-710.4532" gradientTransform="matrix(-1 0 0 -1 1184.8813 23.2501)">
		<stop  offset="0" style="stop-color:#57ABDF"/>
		<stop  offset="0.7033" style="stop-color:#57ABDF"/>
		<stop  offset="0.7845" style="stop-color:#56A8DB"/>
		<stop  offset="0.8583" style="stop-color:#52A0D2"/>
		<stop  offset="0.8736" style="stop-color:#509ED0"/>
		<stop  offset="0.8918" style="stop-color:#4B90BC"/>
		<stop  offset="0.938" style="stop-color:#3E769A"/>
		<stop  offset="0.9757" style="stop-color:#366789"/>
		<stop  offset="1" style="stop-color:#336282"/>
	</linearGradient>
	<path class="st47" d="M895.5,83.9l-77.8,4.2c0.7,0.5,1.4,1.1,2.3,1.6l76.4-4.3c-0.5,0-0.9-0.5-1.1-0.9L895.5,83.9L895.5,83.9z
		 M899.9,83.5l-3.9,0.2v0.8c0,0.4,0.4,0.5,0.7,0.5l2.6-0.2c0.4,0,0.7-0.4,0.5-0.7V83.5L899.9,83.5z M913.3,82.9l-12.9,0.7v0.7
		c0,0.5-0.4,0.9-0.9,1.1l15.4-0.9C914.4,83.8,913.9,83.3,913.3,82.9z"/>
	
		<linearGradient id="SVGID_9_" gradientUnits="userSpaceOnUse" x1="-111.2932" y1="253.533" x2="-110.5169" y2="224.3874" gradientTransform="matrix(2.99 0 0 -1.23 1229.3785 368.4239)">
		<stop  offset="0" style="stop-color:#549DCB"/>
		<stop  offset="0.7033" style="stop-color:#549DCB"/>
		<stop  offset="0.7887" style="stop-color:#529AC8"/>
		<stop  offset="0.8736" style="stop-color:#4E92BD"/>
		<stop  offset="0.8815" style="stop-color:#4B8CB5"/>
		<stop  offset="0.9311" style="stop-color:#3E7294"/>
		<stop  offset="0.9724" style="stop-color:#356482"/>
		<stop  offset="1" style="stop-color:#325F7C"/>
	</linearGradient>
	<path class="st48" d="M900.4,83.6h-0.4v0.7c0,0.4-0.2,0.7-0.5,0.7l-2.6,0.3c-0.3,0-0.6-0.2-0.6-0.5V84H896v0.7c0,0.5,0.5,0.8,1,0.8
		l3-0.2c0.5-0.2,0.8-0.5,0.8-1.1l-0.3-0.8L900.4,83.6z"/>
</g>
<path class="st49" d="M341.9,376.4"/>
<path class="st50" d="M581.7,269.1h-45c-1.1,0-2-0.9-2-2l0,0c0-1.1,0.9-2,2-2h45c1.1,0,2,0.9,2,2l0,0
	C583.7,268.2,582.8,269.1,581.7,269.1z"/>
<g id="Bushes_2_">
	<path class="st7" d="M463.9,364h18.5c10.1,0,18.3,8.2,18.3,18.3c0,10.1-8.2,18.3-18.3,18.3h-18.3c-10.2,0-18.3-8.3-18.3-18.3
		C445.6,372.3,453.7,364,463.9,364L463.9,364z"/>
	<ellipse class="st24" cx="495.2" cy="398.6" rx="9.3" ry="9.3"/>
</g>
<path class="st51" d="M449.2,368.8l-18.2,27.4c0,0-5.6,11.5,8.1,13.5h23.7l0.5-16l-9.5,0c0,0-0.9-0.5,0.1-1.6l5-11.5L449.2,368.8z"
	/>
<g>
	<path class="st52" d="M476.2,426.1l-62,107.3c-1.2,2-0.7,4.5,1,5.5c1.8,1,4.1,0.3,5.3-1.7L489,426.1H476.2z"/>
	<polygon class="st53" points="477.4,445 489,426.1 476.2,426.1 465.3,445 	"/>
</g>
<path class="st54" d="M882.1,539.2l-69.7-19.7c-2.3-0.7-3.7-3.1-3.1-5.5l0,0c0.7-2.3,3.1-3.7,5.5-3.1l69.7,19.7
	c2.3,0.7,3.7,3.1,3.1,5.5v0C886.9,538.5,884.4,539.9,882.1,539.2z"/>
<path class="st55" d="M866.8,415.6h-438c-2.7,0-5-2.2-5-5l0,0c0-2.8,2.2-5,5-5h438c2.8,0,5,2.2,5,5l0,0
	C871.8,413.4,869.5,415.6,866.8,415.6z"/>
<path class="st56" d="M424.8,413.6c0.9,1.2,2.3,2,4,2h438c1.6,0,3.1-0.8,4-2H424.8z"/>
<polygon class="st57" points="442.3,415.6 446.3,426.1 849.8,426.1 857.8,415.6 "/>
<polygon class="st58" points="853.8,420.9 857.8,415.6 442.3,415.6 444.3,420.9 "/>
<g>
	<path class="st52" d="M825.8,426.1l62,107.3c1.2,2,0.7,4.5-1,5.5c-1.8,1-4.1,0.3-5.3-1.7L813,426.1H825.8z"/>
	<polygon class="st53" points="824.6,445 813,426.1 825.8,426.1 836.7,445 	"/>
</g>
<path class="st59" d="M589.7,406.5c0,1.7-1.3,3-3,3h-25.9c-1.7,0-3-1.3-3-3l7.4-33.4c0-1.7,1.3-3,3-3h11.2c1.7,0,3,1.3,3,3
	L589.7,406.5z"/>
<path class="st59" d="M727.7,406.5c0,1.7-1.3,3-3,3h-25.9c-1.7,0-3-1.3-3-3l7.4-33.4c0-1.7,1.3-3,3-3h11.2c1.7,0,3,1.3,3,3
	L727.7,406.5z"/>
<path class="st60" d="M624.2,375.6h-97.5c-1.1,0-2-0.9-2-2V249.1c0-1.1,0.9-2,2-2h97.5c1.1,0,2,0.9,2,2v124.5
	C626.2,374.7,625.3,375.6,624.2,375.6z"/>
<path class="st3" d="M617.2,370.1h-84.5c-1.1,0-2-0.9-2-2V255.1c0-1.1,0.9-2,2-2h84.5c1.1,0,2,0.9,2,2v112.9
	C619.2,369.2,618.3,370.1,617.2,370.1z"/>
<path class="st61" d="M613.2,301.1h-24c-1.1,0-2-0.9-2-2v-24c0-1.1,0.9-2,2-2h24c1.1,0,2,0.9,2,2v24
	C615.2,300.2,614.3,301.1,613.2,301.1z"/>
<path class="st62" d="M581.7,277.1h-45c-1.1,0-2-0.9-2-2l0,0c0-1.1,0.9-2,2-2h45c1.1,0,2,0.9,2,2l0,0
	C583.7,276.2,582.8,277.1,581.7,277.1z"/>
<path class="st63" d="M581.7,285.1h-45c-1.1,0-2-0.9-2-2l0,0c0-1.1,0.9-2,2-2h45c1.1,0,2,0.9,2,2l0,0
	C583.7,284.2,582.8,285.1,581.7,285.1z"/>
<path class="st61" d="M581.7,293.1h-45c-1.1,0-2-0.9-2-2l0,0c0-1.1,0.9-2,2-2h45c1.1,0,2,0.9,2,2l0,0
	C583.7,292.2,582.8,293.1,581.7,293.1z"/>
<path class="st64" d="M581.7,301.1h-45c-1.1,0-2-0.9-2-2l0,0c0-1.1,0.9-2,2-2h45c1.1,0,2,0.9,2,2l0,0
	C583.7,300.2,582.8,301.1,581.7,301.1z"/>
<path class="st41" d="M613.9,341.5h-45c-1.1,0-2-0.9-2-2l0,0c0-1.1,0.9-2,2-2h45c1.1,0,2,0.9,2,2l0,0
	C615.9,340.6,615,341.5,613.9,341.5z"/>
<path class="st8" d="M613.9,349.3h-45c-1.1,0-2-0.9-2-2l0,0c0-1.1,0.9-2,2-2h45c1.1,0,2,0.9,2,2l0,0
	C615.9,348.4,615,349.3,613.9,349.3z"/>
<path class="st41" d="M613.9,365.6h-45c-1.1,0-2-0.9-2-2l0,0c0-1.1,0.9-2,2-2h45c1.1,0,2,0.9,2,2l0,0
	C615.9,364.7,615,365.6,613.9,365.6z"/>
<path class="st61" d="M574,333.8h-37.4c-1.1,0-2-0.9-2-2l0,0c0-1.1,0.9-2,2-2H574c1.1,0,2,0.9,2,2l0,0
	C576,332.9,575.1,333.8,574,333.8z"/>
<path class="st65" d="M613.2,333.8h-30.7c-1.1,0-2-0.9-2-2l0,0c0-1.1,0.9-2,2-2h30.7c1.1,0,2,0.9,2,2l0,0
	C615.2,332.9,614.3,333.8,613.2,333.8z"/>
<path class="st66" d="M613.9,357.1h-22.2c-1.1,0-2-0.9-2-2l0,0c0-1.1,0.9-2,2-2h22.2c1.1,0,2,0.9,2,2l0,0
	C615.9,356.2,615,357.1,613.9,357.1z"/>
<path class="st41" d="M582.2,357.1h-12.8c-1.1,0-2-0.9-2-2l0,0c0-1.1,0.9-2,2-2h12.8c1.1,0,2,0.9,2,2l0,0
	C584.2,356.2,583.3,357.1,582.2,357.1z"/>
<path class="st67" d="M613.2,309.1h-76.5c-1.1,0-2-0.9-2-2l0,0c0-1.1,0.9-2,2-2h76.5c1.1,0,2,0.9,2,2l0,0
	C615.2,308.2,614.3,309.1,613.2,309.1z"/>
<path class="st68" d="M613.2,317.1h-76.5c-1.1,0-2-0.9-2-2l0,0c0-1.1,0.9-2,2-2h76.5c1.1,0,2,0.9,2,2l0,0
	C615.2,316.2,614.3,317.1,613.2,317.1z"/>
<path class="st69" d="M613.2,325.1h-76.5c-1.1,0-2-0.9-2-2l0,0c0-1.1,0.9-2,2-2h76.5c1.1,0,2,0.9,2,2l0,0
	C615.2,324.2,614.3,325.1,613.2,325.1z"/>
<path class="st70" d="M561.6,365.6h-24.1c-1.1,0-2-0.9-2-2v-24.1c0-1.1,0.9-2,2-2h24.1c1.1,0,2,0.9,2,2v24.1
	C563.6,364.7,562.7,365.6,561.6,365.6z"/>
<path class="st60" d="M793.7,375.6h-145c-1.1,0-2-0.9-2-2v-94.5c0-1.1,0.9-2,2-2h145c1.1,0,2,0.9,2,2v94.5
	C795.7,374.7,794.8,375.6,793.7,375.6z"/>
<path class="st3" d="M788.2,370.1H655.7c-1.1,0-2-0.9-2-2v-82.9c0-1.1,0.9-2,2-2h132.5c1.1,0,2,0.9,2,2v82.9
	C790.2,369.2,789.3,370.1,788.2,370.1z"/>
<polygon class="st51" points="494.9,333.8 494.9,340.8 509.4,342.9 509.4,333.8 "/>
<path class="st51" d="M489.4,331.8c0,0,3.5,5.4,13.2,4.6c0,0,13,3,17.5-5.1c0,0,1.8-11.6,2-16.1v-2l-22.2-4c0,0-3.2,12-3.2,12
	S489.4,331.8,489.4,331.8z"/>
<path class="st71" d="M514.7,321.1c0,0,5,14.8-25,8.6c0,0-21.5-15.1-5-36.6c0,0,16-14,28-2c0,0,4-6,14,2c0,0,12,2,10,12s-10,9-17,8
	C519.7,313.1,506.2,311.4,514.7,321.1z"/>
<path class="st49" d="M489.4,340.6l23.5,2.2l1.2,4.4c0,0,17.2-3.6,24.2,7.9l14.2,24l-13.5,9.2c0,0-3.8-3.5-5.5,0v40.8h-71.5
	l1.5-47.8c0,0-1.5-3.2-4.8-0.8l-11-13.2c0,0,12.9-20.2,20.1-22.8c8.4-2.9,20.2-0.3,20.2-0.3L489.4,340.6z"/>
<path class="st51" d="M539.2,388.4c0,0,10.6,13.5,17.9,14.6c0,0,27.6,9.6,41.4-3.9c0,0,17.9-9.8,12.6-22c0,0-3.4-7.1-10.1-7.1
	c0,0,4-6-0.1-8.5c0,0-2.2-1.3-5.1,5l-2.4,5.2c0,0-6.9,4.8-4.4,13.8c0,0-19.4,10.4-29.6,0l-7.9-5.6L539.2,388.4z"/>
<path class="st65" d="M462.2,429.1c0,0,0.5,30.2,12.2,45.2c0,0,18.3,33.7,20,81h24c0,0,0.3-54.3-10-89.3c0,0,17.7,10.3,31.7,50.3
	l16.7,46.3h22c0,0-9.9-66.7-29.1-103c-19.2-36.3-15.9-30.5-15.9-30.5H462.2z"/>
<path class="st72" d="M584.5,562.6H557c-0.7,0-1.2-0.5-1.2-1.2l0,0c0-0.7,0.5-1.2,1.2-1.2h27.5c0.7,0,1.2,0.5,1.2,1.2l0,0
	C585.7,562.1,585.1,562.6,584.5,562.6z"/>
<path class="st65" d="M744.4,429.4l-32.7,26c0,0-30.5,19.2-34.5,49.5l-14,59.2l22-1.5c0,0,16-55.2,33.8-70l34-21.5l21.2-10.5
	c0,0,6.8,46.2,17.8,59.2l26.8,43l21,1.2c0,0,5.5-1.5,0-8.8l-23-42.2c0,0-8.5-26.2-6.8-41.8s7.8-27.8,6.2-42H744.4z"/>
<path class="st72" d="M682.2,564.1h-33.6c-1.1,0-1.9-0.9-1.9-1.9l0,0c0-1.1,0.9-1.9,1.9-1.9h33.6c1.1,0,1.9,0.9,1.9,1.9l0,0
	C684.2,563.3,683.3,564.1,682.2,564.1z"/>
<path class="st72" d="M836.5,564.1h-33.6c-1.1,0-1.9-0.9-1.9-1.9l0,0c0-1.1,0.9-1.9,1.9-1.9h33.6c1.1,0,1.9,0.9,1.9,1.9l0,0
	C838.4,563.3,837.5,564.1,836.5,564.1z"/>
<g>
	<path class="st52" d="M460.6,456c0.8,8.8,8.3,15.7,17.2,15.7h48.7c9,0,16.4-6.9,17.2-15.7H460.6z"/>
	<rect x="496.9" y="471.6" class="st52" width="10.7" height="83.7"/>
	<path class="st52" d="M525.4,562.6H479c-2,0-3.7-1.7-3.7-3.7l0,0c0-2,1.6-3.7,3.7-3.7h46.3c2,0,3.7,1.6,3.7,3.7l0,0
		C529,561,527.4,562.6,525.4,562.6z"/>
	<rect x="496.9" y="471.6" class="st53" width="10.7" height="8.7"/>
</g>
<g>
	<path class="st52" d="M736.1,456c0.8,8.8,8.3,15.7,17.2,15.7H802c9,0,16.4-6.9,17.2-15.7H736.1z"/>
	<rect x="772.3" y="471.6" class="st52" width="10.7" height="83.7"/>
	<path class="st52" d="M800.8,562.6h-46.3c-2,0-3.7-1.7-3.7-3.7l0,0c0-2,1.6-3.7,3.7-3.7h46.3c2,0,3.7,1.6,3.7,3.7l0,0
		C804.5,561,802.9,562.6,800.8,562.6z"/>
	<rect x="772.3" y="471.6" class="st53" width="10.7" height="8.7"/>
</g>
<rect x="724.2" y="297.1" class="st73" width="31" height="20"/>
<rect x="666.5" y="297.1" class="st49" width="31" height="20"/>
<rect x="724.2" y="331.5" class="st68" width="31" height="20"/>
<rect x="666.5" y="331.5" class="st62" width="31" height="20"/>
<polygon class="st51" points="767.4,339.8 768.4,343.4 784.2,341.6 781.7,335.2 "/>
<path class="st51" d="M750.3,319.4c0,0,2.4,19.8,13.9,21c0,0,15.5-2.2,19.8-7c0,0,3.7-1.3,2.4-8.4l-16.6-16.3L750.3,319.4z"/>
<path class="st74" d="M745.2,321.6c0,0-8,4.5-13.5-5c0,0-4.2-12.5,8.5-14.2c0,0,2.2-9.2,13.2-7.2c0,0,11.2-14.8,29.5-0.3
	s4.2,30,0,33.5c0,0-20.5,12.4-23-1.8c0,0,5.8-3.7-1-9C758.9,317.6,755.9,316.4,745.2,321.6z"/>
<path class="st61" d="M766.4,343.4l21.8-3l3,3h12.8c0,0,9.8-1,18.8,12.8l7.2,11.5l-10.5,13c0,0-3.2-2-4.5,0l1.2,48.8h-71.8v-39.6
	c0,0,0.8-3.9-4.8-1.6l-14.2-8.5l13-22c0,0,5-10.8,16.2-11l8.8-0.2L766.4,343.4z"/>
<path class="st51" d="M819.4,380.6l6.2,13.2h-10.4l0.4,15.6h27.3c0,0,10.2-2.8,3.5-15.8l-16.5-26L819.4,380.6z"/>
<path class="st51" d="M683.9,393.9c0,0,30.4,4.5,41.5-14.2l14.2,8.5c0,0-1.2,13.6-23.2,21.3h-47.2c0,0-12.8-5.6-5.2-19.7
	C663.9,389.8,674.9,378.3,683.9,393.9z"/>
<g id="Bushes_1_">
	<path class="st7" d="M492.7-844.2h18.5c10.1,0,18.3,8.2,18.3,18.3c0,10.1-8.2,18.3-18.3,18.3h-18.3c-10.2,0-18.3-8.3-18.3-18.3
		C474.3-835.8,482.4-844.1,492.7-844.2L492.7-844.2z"/>
	<ellipse class="st24" cx="523.9" cy="-809.6" rx="9.3" ry="9.3"/>
</g>
</svg>
