<?xml version="1.0" encoding="UTF-8"?>
<svg width="603px" height="1192px" viewBox="0 0 603 1192" version="1.1" xmlns="http://www.w3.org/2000/svg" xmlns:xlink="http://www.w3.org/1999/xlink">
    <!-- Generator: Sketch 45.1 (43504) - http://www.bohemiancoding.com/sketch -->
    <title>onboarding-bg-clear</title>
    <desc>Created with Sketch.</desc>
    <defs></defs>
    <g id="Onboarding-Flows" stroke="none" stroke-width="1" fill="none" fill-rule="evenodd" opacity="0.100000001">
        <g id="onboarding-bg-clear">
            <rect id="Rectangle-5" fill="#FFFFFF" transform="translate(290.000000, 359.000000) scale(-1, 1) rotate(90.000000) translate(-290.000000, -359.000000) " x="274" y="279" width="32" height="160" rx="2"></rect>
            <rect id="Rectangle-5" fill="#FFFFFF" transform="translate(306.000000, 1042.000000) scale(-1, 1) rotate(90.000000) translate(-306.000000, -1042.000000) " x="290" y="962" width="32" height="160" rx="2"></rect>
            <rect id="Rectangle-5" fill="#FFFFFF" transform="translate(393.000000, 148.000000) scale(-1, 1) rotate(90.000000) translate(-393.000000, -148.000000) " x="313" y="132" width="160" height="32" rx="2"></rect>
            <rect id="Rectangle-5" fill="#FFFFFF" transform="translate(477.000000, 1018.000000) scale(-1, 1) rotate(90.000000) translate(-477.000000, -1018.000000) " x="397" y="1002" width="160" height="32" rx="2"></rect>
            <rect id="Rectangle-5" fill="#FFFFFF" transform="translate(514.000000, 708.000000) scale(-1, 1) rotate(90.000000) translate(-514.000000, -708.000000) " x="450" y="694" width="128" height="28" rx="2"></rect>
            <rect id="Rectangle-5" fill="#FFFFFF" transform="translate(360.000000, 833.000000) scale(-1, 1) rotate(90.000000) translate(-360.000000, -833.000000) " x="296" y="827" width="128" height="12" rx="2"></rect>
            <rect id="Rectangle-5" fill="#FFFFFF" transform="translate(262.000000, 1141.000000) scale(-1, 1) rotate(90.000000) translate(-262.000000, -1141.000000) " x="211" y="1129" width="102" height="24" rx="2"></rect>
            <rect id="Rectangle-5" fill="#FFFFFF" transform="translate(14.000000, 660.000000) scale(-1, 1) rotate(90.000000) translate(-14.000000, -660.000000) " x="-50" y="646" width="128" height="28" rx="2"></rect>
            <rect id="Rectangle-5" fill="#FFFFFF" transform="translate(210.000000, 994.000000) scale(-1, 1) rotate(90.000000) translate(-210.000000, -994.000000) " x="194" y="922" width="32" height="144" rx="2"></rect>
            <rect id="Rectangle-5" fill="#FFFFFF" transform="translate(306.000000, 187.000000) scale(-1, 1) rotate(90.000000) translate(-306.000000, -187.000000) " x="294" y="139" width="24" height="96" rx="2"></rect>
            <rect id="Rectangle-5" fill="#FFFFFF" transform="translate(370.000000, 950.000000) scale(-1, 1) rotate(90.000000) translate(-370.000000, -950.000000) " x="358" y="902" width="24" height="96" rx="2"></rect>
            <rect id="Rectangle-3" fill="#FFFFFF" transform="translate(370.000000, 276.000000) scale(-1, 1) rotate(90.000000) translate(-370.000000, -276.000000) " x="354" y="212" width="32" height="128" rx="2"></rect>
            <rect id="Rectangle-3" fill="#FFFFFF" transform="translate(146.000000, 905.000000) scale(-1, 1) rotate(90.000000) translate(-146.000000, -905.000000) " x="130" y="841" width="32" height="128" rx="2"></rect>
            <rect id="Rectangle-7" fill="#FFFFFF" transform="translate(579.000000, 766.000000) scale(-1, 1) rotate(90.000000) translate(-579.000000, -766.000000) " x="555" y="742" width="48" height="48" rx="2"></rect>
            <rect id="Rectangle-7" fill="#FFFFFF" transform="translate(511.000000, 414.000000) scale(-1, 1) rotate(90.000000) translate(-511.000000, -414.000000) " x="487" y="390" width="48" height="48" rx="2"></rect>
            <rect id="Rectangle-7" fill="#FFFFFF" transform="translate(166.000000, 1098.000000) scale(-1, 1) rotate(90.000000) translate(-166.000000, -1098.000000) " x="142" y="1074" width="48" height="48" rx="2"></rect>
            <rect id="Rectangle-7" fill="#FFFFFF" transform="translate(250.000000, 24.000000) scale(-1, 1) rotate(90.000000) translate(-250.000000, -24.000000) " x="226" y="0" width="48" height="48" rx="2"></rect>
            <rect id="Rectangle-7" fill="#FFFFFF" transform="translate(461.000000, 824.000000) scale(-1, 1) rotate(90.000000) translate(-461.000000, -824.000000) " x="437" y="800" width="48" height="48" rx="2"></rect>
            <rect id="Rectangle-7" fill="#FFFFFF" transform="translate(461.000000, 244.000000) scale(-1, 1) rotate(90.000000) translate(-461.000000, -244.000000) " x="429" y="232" width="64" height="24" rx="2"></rect>
            <rect id="Rectangle-7" fill="#FFFFFF" transform="translate(571.000000, 493.000000) scale(-1, 1) rotate(90.000000) translate(-571.000000, -493.000000) " x="539" y="481" width="64" height="24" rx="2"></rect>
            <rect id="Rectangle-5" fill="#FFFFFF" transform="translate(118.000000, 286.000000) scale(-1, 1) rotate(90.000000) translate(-118.000000, -286.000000) " x="106" y="238" width="24" height="96" rx="2"></rect>
            <rect id="Rectangle-7" fill="#FFFFFF" transform="translate(53.000000, 399.000000) scale(-1, 1) rotate(90.000000) translate(-53.000000, -399.000000) " x="29" y="375" width="48" height="48" rx="2"></rect>
            <rect id="Rectangle-3" fill="#FFFFFF" transform="translate(114.000000, 242.000000) scale(-1, 1) rotate(90.000000) translate(-114.000000, -242.000000) " x="98" y="178" width="32" height="128" rx="2"></rect>
            <rect id="Rectangle-7" fill="#FFFFFF" transform="translate(210.000000, 250.000000) scale(-1, 1) rotate(90.000000) translate(-210.000000, -250.000000) " x="178" y="238" width="64" height="24" rx="2"></rect>
            <rect id="Rectangle-7" fill="#FFFFFF" transform="translate(53.000000, 801.000000) scale(-1, 1) rotate(90.000000) translate(-53.000000, -801.000000) " x="21" y="789" width="64" height="24" rx="2"></rect>
            <rect id="Rectangle-7" fill="#FFFFFF" transform="translate(403.000000, 414.000000) scale(-1, 1) rotate(180.000000) translate(-403.000000, -414.000000) " x="371" y="406" width="64" height="16" rx="2"></rect>
            <rect id="Rectangle-7" fill="#FFFFFF" transform="translate(262.000000, 136.000000) scale(-1, 1) rotate(180.000000) translate(-262.000000, -136.000000) " x="230" y="128" width="64" height="16" rx="2"></rect>
            <rect id="Rectangle-7" fill="#FFFFFF" transform="translate(412.000000, 1131.000000) scale(-1, 1) rotate(90.000000) translate(-412.000000, -1131.000000) " x="380" y="1119" width="64" height="24" rx="2"></rect>
            <rect id="Rectangle-7" fill="#FFFFFF" transform="translate(531.000000, 858.000000) scale(-1, 1) rotate(90.000000) translate(-531.000000, -858.000000) " x="503" y="846" width="56" height="24" rx="2"></rect>
            <rect id="Rectangle-7" fill="#FFFFFF" transform="translate(209.000000, 841.000000) scale(-1, 1) rotate(90.000000) translate(-209.000000, -841.000000) " x="185" y="793" width="48" height="96" rx="2"></rect>
            <circle id="Oval-2" stroke="#FFFFFF" stroke-width="4" transform="translate(428.000000, 347.000000) scale(-1, 1) rotate(90.000000) translate(-428.000000, -347.000000) " cx="428" cy="347" r="6"></circle>
            <circle id="Oval-2" stroke="#FFFFFF" stroke-width="4" transform="translate(508.000000, 257.000000) scale(-1, 1) rotate(90.000000) translate(-508.000000, -257.000000) " cx="508" cy="257" r="6"></circle>
            <circle id="Oval-2" stroke="#FFFFFF" stroke-width="4" transform="translate(34.000000, 926.000000) scale(-1, 1) rotate(90.000000) translate(-34.000000, -926.000000) " cx="34" cy="926" r="6"></circle>
            <circle id="Oval-2" stroke="#FFFFFF" stroke-width="4" transform="translate(322.000000, 858.000000) scale(-1, 1) rotate(90.000000) translate(-322.000000, -858.000000) " cx="322" cy="858" r="6"></circle>
            <circle id="Oval-2" stroke="#FFFFFF" stroke-width="4" transform="translate(479.000000, 905.000000) scale(-1, 1) rotate(90.000000) translate(-479.000000, -905.000000) " cx="479" cy="905" r="6"></circle>
            <circle id="Oval-2" stroke="#FFFFFF" stroke-width="4" transform="translate(514.000000, 596.000000) scale(-1, 1) rotate(90.000000) translate(-514.000000, -596.000000) " cx="514" cy="596" r="6"></circle>
            <circle id="Oval-2" stroke="#FFFFFF" stroke-width="4" transform="translate(134.000000, 146.000000) scale(-1, 1) rotate(90.000000) translate(-134.000000, -146.000000) " cx="134" cy="146" r="6"></circle>
            <circle id="Oval-2" stroke="#FFFFFF" stroke-width="4" transform="translate(20.000000, 467.000000) scale(-1, 1) rotate(90.000000) translate(-20.000000, -467.000000) " cx="20" cy="467" r="6"></circle>
        </g>
    </g>
</svg>