<?xml version="1.0" encoding="utf-8"?>
<!-- Generator: Adobe Illustrator 21.1.0, SVG Export Plug-In . SVG Version: 6.00 Build 0)  -->
<svg version="1.1" id="Layer_1" xmlns="http://www.w3.org/2000/svg" xmlns:xlink="http://www.w3.org/1999/xlink" x="0px" y="0px"
	 viewBox="0 0 162 40" style="enable-background:new 0 0 162 40;" xml:space="preserve">
<style type="text/css">
	.st0{fill:none;enable-background:new    ;}
	.st1{enable-background:new    ;}
	.st2{fill:#FFFFFF;}
	.st3{opacity:0.1;}
</style>
<path class="st0" d="z"/>
<g class="st1">
	<path class="st2" d="M65.7,34.3c-2.1,0-4-0.4-5.8-1.1c-1.8-0.8-3.4-1.8-4.7-3.1c-1.3-1.3-2.3-2.9-3.1-4.7c-0.7-1.8-1.1-3.7-1.1-5.8
		c0-2,0.4-4,1.1-5.8c0.7-1.8,1.8-3.4,3.1-4.7c1.3-1.3,2.9-2.4,4.7-3.1c1.8-0.8,3.7-1.1,5.8-1.1s4,0.4,5.8,1.1
		c1.8,0.8,3.4,1.8,4.7,3.1c1.3,1.3,2.3,2.9,3.1,4.7c0.7,1.8,1.1,3.7,1.1,5.8c0,2-0.4,4-1.1,5.8c-0.7,1.8-1.8,3.4-3.1,4.7
		c-1.3,1.3-2.9,2.4-4.7,3.1C69.8,33.9,67.8,34.3,65.7,34.3z M65.7,29.2c1.3,0,2.5-0.2,3.7-0.7c1.1-0.5,2.1-1.1,3-2
		c0.9-0.8,1.5-1.9,2-3c0.5-1.2,0.7-2.5,0.7-4c0-1.4-0.2-2.8-0.7-4c-0.5-1.2-1.2-2.2-2-3.1c-0.9-0.8-1.8-1.5-3-2
		c-1.1-0.5-2.4-0.7-3.7-0.7s-2.5,0.2-3.7,0.7c-1.1,0.5-2.1,1.1-3,2c-0.9,0.8-1.5,1.9-2,3.1c-0.5,1.2-0.7,2.5-0.7,4
		c0,1.4,0.2,2.8,0.7,4c0.5,1.2,1.2,2.2,2,3c0.9,0.8,1.8,1.5,3,2C63.2,29,64.4,29.2,65.7,29.2z"/>
	<path class="st2" d="M84.8,5.5h5.3v12.1h0.3l10.3-12.1h6.4v0.3L96.9,17.4l11.3,15.9v0.3h-6.5l-8.4-12l-3.2,3.7v8.3h-5.3V5.5z"/>
	<path class="st2" d="M111.1,5.5h10.3c1.4,0,2.7,0.2,3.9,0.7c1.2,0.4,2.1,1.1,3,1.9c0.8,0.8,1.5,1.7,1.9,2.8
		c0.4,1.1,0.7,2.3,0.7,3.6c0,0.9-0.2,1.8-0.5,2.7s-0.7,1.6-1.3,2.2c-0.6,0.7-1.2,1.3-1.9,1.8c-0.7,0.5-1.5,0.9-2.3,1.2l0,0.3
		l7.6,10.8v0.3h-6.1l-7.3-10.6h-2.5v10.6h-5.3V5.5z M121.3,18.2c1.2,0,2.2-0.4,3-1.1c0.8-0.7,1.2-1.7,1.2-2.8c0-0.5-0.1-1-0.3-1.5
		c-0.2-0.5-0.4-0.9-0.8-1.3c-0.3-0.4-0.8-0.7-1.3-0.9c-0.5-0.2-1.1-0.3-1.8-0.3h-5v7.8H121.3z"/>
	<path class="st2" d="M142.1,34.3c-1.3,0-2.4-0.2-3.4-0.5c-1-0.3-1.8-0.7-2.6-1.2c-0.7-0.5-1.3-1.1-1.8-1.8c-0.5-0.7-0.9-1.3-1.1-2
		l4.6-2c0.4,1,1,1.7,1.8,2.2c0.7,0.5,1.6,0.7,2.5,0.7c0.9,0,1.7-0.2,2.2-0.5c0.6-0.3,0.8-0.7,0.8-1.2c0-0.5-0.2-1-0.7-1.3
		c-0.5-0.3-1.3-0.6-2.4-0.9l-2.7-0.6c-0.6-0.1-1.2-0.3-1.9-0.6s-1.2-0.7-1.8-1.1c-0.5-0.4-1-1-1.3-1.6c-0.3-0.6-0.5-1.4-0.5-2.2
		c0-0.9,0.2-1.8,0.6-2.5c0.4-0.7,1-1.4,1.7-1.9c0.7-0.5,1.5-0.9,2.5-1.2c1-0.3,2-0.4,3.1-0.4c1.8,0,3.5,0.4,4.9,1.1
		c1.4,0.7,2.5,1.9,3.2,3.4l-4.4,1.8c-0.4-0.8-0.9-1.3-1.6-1.7c-0.7-0.3-1.4-0.5-2.1-0.5c-0.7,0-1.4,0.2-1.9,0.5
		c-0.6,0.3-0.8,0.7-0.8,1.2c0,0.4,0.2,0.8,0.7,1.1c0.5,0.3,1.1,0.5,1.9,0.7l3,0.7c2,0.5,3.4,1.2,4.4,2.3c1,1,1.4,2.3,1.4,3.7
		c0,0.8-0.2,1.6-0.6,2.4c-0.4,0.8-1,1.4-1.7,2c-0.7,0.6-1.6,1.1-2.6,1.4C144.5,34.1,143.3,34.3,142.1,34.3z"/>
</g>
<g>
	<polygon class="st2" points="16,21.8 49.3,4.7 21.7,25.1 37.9,35.7 49.3,4.7 2.1,14.5 	"/>
	<polygon class="st2" points="21.7,25.1 18.4,35.7 28.1,29.2 	"/>
</g>
<polygon class="st3" points="26,30.6 21.7,25.1 28.1,29.2 "/>
</svg>
