<svg id="Layer_1" data-name="Layer 1" xmlns="http://www.w3.org/2000/svg" viewBox="0 0 160 64"><defs><style>.cls-1{fill:#808285;}.cls-2{fill:#fff;}</style></defs><title>weworkArtboard 1</title><path class="cls-1" d="M73.07,36.94c0,.31,0,.63,0,1s-.06.71-.11,1.08h-11q0,4.94,4.88,4.94a12.6,12.6,0,0,0,2.67-.29A11.11,11.11,0,0,0,72,42.8l.43,3.52a15.32,15.32,0,0,1-3,.85,19,19,0,0,1-3.3.28q-4.24,0-6.5-2.17t-2.26-6.86a12.25,12.25,0,0,1,.55-3.75,8.58,8.58,0,0,1,1.6-3,7.38,7.38,0,0,1,2.6-2A8.42,8.42,0,0,1,65.63,29a8.22,8.22,0,0,1,3.33.62,6.39,6.39,0,0,1,2.32,1.69,7,7,0,0,1,1.35,2.51A10.36,10.36,0,0,1,73.07,36.94ZM68.52,35a3.5,3.5,0,0,0-.76-2.6,2.94,2.94,0,0,0-2.29-.92,3.12,3.12,0,0,0-2.35,1A4.24,4.24,0,0,0,62,35Z"/><path class="cls-1" d="M98.11,47H92.94l-2.6-8q-.29-.94-.52-1.9T89.32,35h0q-.29,1.26-.58,2.33t-.65,2.19L85.78,47H80.86L75,28H80l2,7.23.77,2.87q.38,1.44.73,2.9h0q.31-1.62.64-2.94t.75-2.6L87.27,28H92l2.35,7.23q.54,1.65.88,3T95.88,41H96q.31-1.46.62-2.79t.73-2.75L99.46,28h4.62Z"/><path class="cls-1" d="M122.37,37.42a10.87,10.87,0,0,1-.66,3.86,8.85,8.85,0,0,1-1.88,3,8.72,8.72,0,0,1-2.88,2,9.18,9.18,0,0,1-3.67.71,11,11,0,0,1-3.43-.5,6.38,6.38,0,0,1-2.61-1.59,7.37,7.37,0,0,1-1.66-2.79,12.41,12.41,0,0,1-.59-4.06,10.73,10.73,0,0,1,.66-3.83,9,9,0,0,1,1.86-3,8.54,8.54,0,0,1,2.86-2,9.29,9.29,0,0,1,3.7-.71,8.36,8.36,0,0,1,6,2.16Q122.37,32.84,122.37,37.42Zm-4.72.23a7,7,0,0,0-.93-3.95,3.34,3.34,0,0,0-3-1.36,3.85,3.85,0,0,0-1.48.3,3.58,3.58,0,0,0-1.31,1,4.75,4.75,0,0,0-.91,1.63,7.22,7.22,0,0,0-.34,2.35q0,5.53,4,5.53a3.54,3.54,0,0,0,2.84-1.36A6.31,6.31,0,0,0,117.65,37.65Z"/><path class="cls-1" d="M136.4,32.6Q131,31.48,131,39.76V47h-5V28h4.73c0,.51,0,1.13-.08,1.86a18.46,18.46,0,0,1-.27,2.14h.08a9.28,9.28,0,0,1,.88-1.8,5.93,5.93,0,0,1,1.29-1.46,5.67,5.67,0,0,1,1.76-1,5.34,5.34,0,0,1,2.25-.22Z"/><path class="cls-1" d="M149.58,47,144,38.09V47h-5V20h5V36.5l5.25-7.5h5.65l-6.3,8.22L155.37,47Z"/><path class="cls-1" d="M42.7,47H36.23L31.95,31.11,27.67,47H21.2L13.66,19h6.52l4.25,15.9L28.69,19h6.52l4.25,15.91,5.91-22.07a25.2,25.2,0,0,0-23.76-5,24.4,24.4,0,0,0-16.71,17A25.13,25.13,0,0,0,34.86,56.19c8-1.82,16.46-10,18.43-18.05a25.22,25.22,0,0,0-3-19.5Z"/><path class="cls-2" d="M39.42,34.91,35.17,19H28.65L24.4,34.9,20.15,19H13.62l7.54,28h6.47l4.28-15.89L36.18,47h6.47l7.63-28.37a25.17,25.17,0,0,0-5-5.8"/></svg>