<?xml version="1.0" encoding="utf-8"?>
<!-- Generator: Adobe Illustrator 16.0.0, SVG Export Plug-In . SVG Version: 6.00 Build 0)  -->
<!DOCTYPE svg PUBLIC "-//W3C//DTD SVG 1.1 Basic//EN" "http://www.w3.org/Graphics/SVG/1.1/DTD/svg11-basic.dtd">
<svg version="1.1" baseProfile="basic" id="Layer_1"
	 xmlns="http://www.w3.org/2000/svg" xmlns:xlink="http://www.w3.org/1999/xlink" x="0px" y="0px" width="316.859px"
	 height="208.304px" viewBox="0 0 316.859 208.304" xml:space="preserve">
<g>
	<path fill="#E5F4FF" d="M84.735,206.129c0,0-60.131,7.817-63.575-66.89c0,0-39.246-33.589-6.885-47.197
		C46.636,78.431,38.895,66.27,43.11,58.451c4.214-7.818,2.837-20.557,31.755-30.691c28.918-10.136,19.278-57.045,117.049,8.106
		c0,0,20.655,27.798,61.279,18.242c40.623-9.556,64.721-6.949,61.967,33.879c-2.754,40.83-28.918,33.876-33.738,64.281
		c-4.819,30.407-20.914,35.711-37.929,40.949C226.479,198.456,84.735,206.129,84.735,206.129z"/>
	<path fill="#C0E1F9" d="M215.616,69.308c2.954,0,5.345,2.391,5.345,5.342c0,2.952-2.391,5.342-5.345,5.342
		c-2.946,0-5.34-2.39-5.34-5.342C210.276,71.699,212.67,69.308,215.616,69.308z"/>
	<circle fill="#FB649C" cx="213.593" cy="72.993" r="6.262"/>
	<path fill="#64B4ED" stroke="#1148A1" stroke-miterlimit="10" d="M111.703,150.592c-2.16-2.162-2.467-5.357-0.686-7.136
		c-1.781,1.779-4.975,1.474-7.139-0.688c-2.161-2.159-2.467-5.354-0.685-7.135l10.843-10.845c0.183-0.183,0.391-0.332,0.606-0.474
		c0.328-0.402,0.669-0.799,1.042-1.172l28.547-28.547c7.315-7.314,20.248-6.242,28.889,2.401c8.64,8.642,9.717,21.575,2.401,28.89
		l-28.547,28.548c-0.373,0.373-0.773,0.709-1.174,1.04c-0.139,0.213-0.291,0.422-0.472,0.607l-10.846,10.843
		c-1.78,1.78-4.974,1.476-7.137-0.687c-2.162-2.161-2.463-5.356-0.686-7.137c-1.778,1.78-4.975,1.475-7.135-0.687
		c-1.847-1.846-2.326-4.442-1.32-6.27c-0.039-0.039-0.082-0.072-0.12-0.112c-0.04-0.039-0.076-0.081-0.112-0.122
		C116.144,152.918,113.549,152.438,111.703,150.592z"/>
	<path fill="#64B4ED" stroke="#1148A1" stroke-miterlimit="10" d="M152.551,101.922c3.247,3.246,8.512,3.246,11.758,0"/>
	<g>
		<path fill="#2D9AE7" stroke="#1148A1" stroke-miterlimit="10" d="M161.55,150.223c2.158-2.162,2.465-5.355,0.685-7.136
			c1.78,1.78,4.976,1.474,7.137-0.688c2.163-2.159,2.468-5.355,0.687-7.137l-10.842-10.841c-0.186-0.186-0.392-0.334-0.605-0.474
			c-0.329-0.404-0.67-0.799-1.042-1.174l-28.548-28.547c-7.316-7.315-20.248-6.241-28.89,2.402
			c-8.639,8.641-9.716,21.576-2.401,28.891l28.547,28.547c0.374,0.373,0.771,0.713,1.174,1.04c0.139,0.212,0.288,0.42,0.472,0.607
			l10.843,10.843c1.782,1.778,4.978,1.477,7.14-0.687c2.157-2.163,2.464-5.356,0.686-7.135c1.779,1.779,4.973,1.472,7.135-0.69
			c1.846-1.842,2.326-4.44,1.319-6.267c0.039-0.04,0.082-0.074,0.121-0.114c0.04-0.039,0.072-0.081,0.112-0.121
			C157.107,152.549,159.703,152.071,161.55,150.223z"/>
		<line fill="#2D9AE7" stroke="#1148A1" stroke-miterlimit="10" x1="162.234" y1="143.087" x2="149.812" y2="130.665"/>
		<line fill="#2D9AE7" stroke="#1148A1" stroke-miterlimit="10" x1="154.411" y1="150.909" x2="141.991" y2="138.489"/>
		<line fill="#2D9AE7" stroke="#1148A1" stroke-miterlimit="10" x1="146.726" y1="158.592" x2="134.307" y2="146.174"/>
	</g>
	<path fill="#64B4ED" stroke="#1148A1" stroke-miterlimit="10" d="M103.878,142.768c2.158,2.159,5.664,2.161,7.824,0l7.891-7.891
		c2.163-2.16,2.159-5.664,0-7.822l0,0c-2.16-2.16-5.659-2.161-7.821,0l-7.892,7.889
		C101.718,137.106,101.718,140.609,103.878,142.768L103.878,142.768z"/>
	<path fill="#64B4ED" stroke="#1148A1" stroke-miterlimit="10" d="M111.703,150.592c2.159,2.159,5.665,2.161,7.824,0l7.891-7.892
		c2.159-2.162,2.159-5.667,0-7.825l0,0c-2.159-2.159-5.662-2.159-7.824,0.001l-7.891,7.891
		C109.542,144.929,109.542,148.433,111.703,150.592L111.703,150.592z"/>
	<path fill="#64B4ED" stroke="#1148A1" stroke-miterlimit="10" d="M119.526,158.415c2.16,2.16,5.663,2.16,7.825,0l7.89-7.892
		c2.161-2.161,2.157-5.663-0.001-7.822l0,0c-2.16-2.16-5.663-2.162-7.822,0l-7.891,7.892
		C117.367,152.753,117.367,156.255,119.526,158.415L119.526,158.415z"/>
	<path fill="#64B4ED" stroke="#1148A1" stroke-miterlimit="10" d="M127.347,166.238c2.161,2.158,5.663,2.161,7.826,0l7.891-7.891
		c2.162-2.161,2.16-5.667,0-7.824l0,0c-2.159-2.161-5.662-2.161-7.822,0l-7.89,7.892
		C125.189,160.575,125.189,164.078,127.347,166.238L127.347,166.238z"/>
	<path fill="#64B4ED" stroke="#1148A1" stroke-miterlimit="10" d="M144.728,94.098l-18.881,18.881c-2.162,2.163-2.159,5.664,0,7.824
		l0,0c2.16,2.16,5.662,2.161,7.822,0.001l18.882-18.882"/>
	<rect x="190.334" y="114.078" fill="#BDE0F9" width="50.466" height="52.792"/>
	<rect x="199.391" y="138.145" fill="#2D9AE7" width="8.023" height="16.304"/>
	<rect x="214.142" y="130.187" fill="#2D9AE7" width="7.83" height="25.426"/>
	<rect x="227.341" y="125.917" fill="#2D9AE7" width="7.829" height="29.696"/>
	<path fill="#C6E4FA" d="M103.63,173.182c-4.537-4.905-9.314-9.672-13.614-14.779c-2.509-2.973-6.48-3.153-9.036-5.878
		c-1.719-1.832-3.411-3.692-5.118-5.538l-0.037,0.036c4.654-7.609,3.931-17.664-2.424-24.537c-7.667-8.29-20.6-8.795-28.893-1.128
		c-8.29,7.667-8.794,20.601-1.128,28.891c7.667,8.291,20.602,8.797,28.892,1.13c1.38,1.49,2.76,2.978,4.134,4.473
		c0.849,0.924,1.848,1.766,2.326,2.957c0.893,2.236,0.612,4.398,2.408,6.267c1.227,1.27,2.417,2.578,3.644,3.859
		c2.962,3.098,5.83,6.297,8.727,9.453c0.688,0.75,1.378,1.496,2.069,2.241c0.583,0.633,1.563,0.668,2.194,0.086l5.77-5.338
		C104.175,174.794,104.214,173.812,103.63,173.182z"/>
	<path fill="#64B4ED" d="M105.856,170.956c-4.537-4.905-9.313-9.673-13.614-14.779c-2.509-2.973-6.48-3.153-9.036-5.878
		c-1.719-1.832-3.411-3.692-5.117-5.539l-0.037,0.036c4.654-7.609,3.931-17.664-2.424-24.536c-7.667-8.291-20.6-8.796-28.893-1.128
		c-8.29,7.667-8.794,20.601-1.128,28.891c7.667,8.291,20.602,8.796,28.893,1.13c1.379,1.49,2.759,2.978,4.133,4.472
		c0.849,0.924,1.848,1.766,2.326,2.957c0.893,2.236,0.612,4.399,2.408,6.267c1.227,1.27,2.417,2.578,3.644,3.859
		c2.962,3.098,5.83,6.297,8.726,9.453c0.688,0.75,1.379,1.496,2.069,2.241c0.583,0.633,1.563,0.668,2.194,0.087l5.77-5.339
		C106.402,172.567,106.44,171.585,105.856,170.956z"/>
	<circle fill="#E5F4FF" cx="60.618" cy="134.142" r="15.27"/>
	
		<line fill="#0081E0" stroke="#0081E0" stroke-width="2" stroke-linecap="round" stroke-linejoin="round" stroke-miterlimit="10" x1="187.397" y1="94.098" x2="193.278" y2="94.098"/>
	
		<line fill="#0081E0" stroke="#0081E0" stroke-width="2" stroke-linecap="round" stroke-linejoin="round" stroke-miterlimit="10" x1="190.338" y1="91.159" x2="190.338" y2="97.037"/>
	<polygon fill="#60B000" points="149.034,67.405 156.065,71.465 149.034,75.524 	"/>
	<rect x="218.631" y="98.577" fill="#84C800" width="6.687" height="6.688"/>
</g>
</svg>
