<?xml version="1.0" encoding="utf-8"?>
<!-- Generator: Adobe Illustrator 21.1.0, SVG Export Plug-In . SVG Version: 6.00 Build 0)  -->
<svg version="1.1" baseProfile="basic" id="Layer_1"
	 xmlns="http://www.w3.org/2000/svg" xmlns:xlink="http://www.w3.org/1999/xlink" x="0px" y="0px" viewBox="0 0 180 120"
	 xml:space="preserve">
<style type="text/css">
	.st0{fill:#F5FAFF;}
	.st1{fill:#BCDFF8;}
	.st2{fill:#0080DF;}
	.st3{fill:#97CBF2;}
	.st4{fill:#1B65B9;}
	.st5{fill:#2D99E6;}
	.st6{fill:none;stroke:#99CDF4;stroke-miterlimit:10;}
	.st7{fill:#EDF5FF;stroke:#1D84D3;stroke-miterlimit:10;}
	.st8{fill:#EFC100;stroke:#EFC100;stroke-linecap:round;stroke-linejoin:round;stroke-miterlimit:10;}
	.st9{fill:#76BE00;}
	.st10{fill:#1148A1;}
	.st11{fill:#0081E0;}
	.st12{opacity:0.71;}
	.st13{opacity:0.11;}
	.st14{fill:#FFCE00;}
	.st15{fill:#C5E3F9;}
	.st16{fill:#83C700;}
	.st17{opacity:0.32;fill:none;stroke:#97CBF2;stroke-linecap:round;stroke-linejoin:round;stroke-miterlimit:10;}
	.st18{fill:none;stroke:#97CBF2;stroke-linecap:round;stroke-linejoin:round;stroke-miterlimit:10;}
	.st19{fill:#B1D1FF;}
	.st20{fill:#FF8400;}
</style>
<path class="st0" d="M10.8,57.7c0,0-12.5-12.7,6.5-14.1c19-1.3,3.7-26.1,31.3-21.2C76.2,27.4,31.5,3.8,70,9.5
	c38.6,5.8,28.2-16.7,69.9-3.7c41.7,13,42.3,79.6,14.3,72.8c-27.9-6.8,19.8,39.8-5.3,32.6c-25.1-7.2-59.7,17.1-94.9,5
	c-35.2-12.1-18.8-9.6-28.7-28.9C12.6,62.4,10.8,57.7,10.8,57.7z"/>
<polygon class="st1" points="91,62.8 93.3,61.6 102.3,61.6 102.8,96.7 100.3,97.9 "/>
<path class="st2" d="M101,97.3c0,0.3-0.4,0.5-1,0.5h-8c-0.6,0-1-0.2-1-0.5V63.2c0-0.3,0.4-0.5,1-0.5h8c0.5,0,1,0.2,1,0.5V97.3z"/>
<polygon class="st1" points="100.7,57 103,55.7 112,55.7 112.6,96.6 110.1,97.9 "/>
<path class="st3" d="M110.7,97.2c0,0.3-0.4,0.6-1,0.6h-8c-0.6,0-1-0.3-1-0.6V57.4c0-0.3,0.4-0.6,1-0.6h8c0.6,0,1,0.3,1,0.6V97.2z"/>
<polygon class="st1" points="110.7,51.7 113,50.2 122,50.2 122.5,96.4 120.1,97.9 "/>
<path class="st4" d="M120.7,97.1c0,0.4-0.4,0.6-1,0.6h-8c-0.6,0-1-0.3-1-0.6V52.2c0-0.4,0.4-0.6,1-0.6h8c0.6,0,1,0.3,1,0.6V97.1z"/>
<g>
	<polygon class="st1" points="120.7,43 123,41.3 132.5,41.3 132.5,96.1 130,97.9 	"/>
	<path class="st5" d="M130.7,96.9c0,0.4-0.4,0.8-1,0.8h-8c-0.5,0-1-0.3-1-0.8V43c0-0.4,0.4-0.8,1-0.8h8c0.6,0,1,0.3,1,0.8V96.9z"/>
</g>
<g>
	<polyline class="st6" points="71.6,32.9 80.9,46.1 91.7,39.5 100.7,20 112.2,52.3 123.7,44.5 131.7,26.4 	"/>
	<circle class="st7" cx="71.6" cy="32.9" r="1.3"/>
	<circle class="st7" cx="81.2" cy="45.8" r="1.3"/>
	<circle class="st7" cx="91.5" cy="39.7" r="1.3"/>
	<circle class="st7" cx="100.5" cy="20" r="1.3"/>
	<circle class="st7" cx="112" cy="52.3" r="1.3"/>
	<circle class="st7" cx="123.7" cy="44.5" r="1.3"/>
	<circle class="st7" cx="131.7" cy="26" r="1.3"/>
</g>
<g>
	<line class="st8" x1="148.5" y1="52.3" x2="148.5" y2="50.3"/>
	<line class="st8" x1="147.3" y1="53.5" x2="145.3" y2="53.5"/>
	<line class="st8" x1="148.5" y1="54.7" x2="148.5" y2="56.8"/>
	<line class="st8" x1="149.7" y1="53.5" x2="151.8" y2="53.5"/>
</g>
<g>
	<path class="st9" d="M72.5,74.4V74H72l-21.1-9c-1.2,2.9-1.9,6-1.9,9.3c0,6.4,2.6,12.2,6.7,16.5l0.2,0.1L72.5,74.4z"/>
	<path class="st10" d="M77.4,51.4c-1.6-0.3-3.2-0.5-4.9-0.5V74v0.4L55.9,90.9l-0.2-0.1c4.3,4.3,10.2,7,16.8,7
		c13,0,23.5-10.5,23.5-23.5C96,63.1,88,53.6,77.4,51.4z"/>
	<path class="st11" d="M50.9,65L72,74h0.5V50.9C62.8,50.9,54.5,56.7,50.9,65z"/>
</g>
<g class="st12">
	<path class="st1" d="M73.5,75.9v-0.4H73l-21.1-9c-1.2,2.9-1.9,6-1.9,9.3c0,6.4,2.6,12.2,6.7,16.5l0.2,0.1L73.5,75.9z"/>
	<path class="st1" d="M51.9,66.5l21.1,9h0.5V52.4C63.8,52.4,55.5,58.2,51.9,66.5z"/>
</g>
<g class="st13">
	<path d="M74,75.4V75h-0.5l-21.1-9c-1.2,2.9-1.9,6-1.9,9.3c0,6.4,2.6,12.2,6.7,16.5l0.2,0.1L74,75.4z"/>
	<path d="M78.9,52.4c-1.6-0.3-3.2-0.5-4.9-0.5V75v0.4L57.4,91.9l-0.2-0.1c4.3,4.3,10.2,7,16.8,7c13,0,23.5-10.5,23.5-23.5
		C97.5,64.1,89.5,54.6,78.9,52.4z"/>
	<path d="M52.4,66l21.1,9H74V51.9C64.3,51.9,56,57.7,52.4,66z"/>
</g>
<g>
	<path class="st9" d="M72.5,74.4V74H72l-21.1-9c-1.2,2.9-1.9,6-1.9,9.3c0,6.4,2.6,12.2,6.7,16.5l0.2,0.1L72.5,74.4z"/>
	<path class="st4" d="M77.4,51.4c-1.6-0.3-3.2-0.5-4.9-0.5V74v0.4L55.9,90.9l-0.2-0.1c4.3,4.3,10.2,7,16.8,7
		c13,0,23.5-10.5,23.5-23.5C96,63.1,88,53.6,77.4,51.4z"/>
	<path class="st14" d="M50.9,65L72,74h0.5V50.9C62.8,50.9,54.5,56.7,50.9,65z"/>
</g>
<path class="st15" d="M39.8,100.6c0.3-0.4,0.3-0.8,0.2-1.3l-0.3-2.1c-0.1-0.5-0.2-0.9-0.5-1.2c-0.4-0.3-0.8-0.3-1.3-0.2L35.7,96
	c-0.5,0.1-0.9,0.2-1.2,0.5c-0.3,0.4-0.3,0.8-0.2,1.3l0.3,2.1c0.1,0.5,0.2,0.9,0.5,1.2c0.4,0.3,0.8,0.3,1.3,0.2l2.1-0.3
	C39.1,101,39.5,101,39.8,100.6z"/>
<path class="st16" d="M38.9,99.9c0.3-0.4,0.3-0.8,0.2-1.3l-0.3-2.1c-0.1-0.5-0.2-0.9-0.5-1.2c-0.4-0.3-0.8-0.3-1.3-0.2l-2.1,0.3
	c-0.5,0.1-0.9,0.2-1.2,0.5c-0.3,0.4-0.3,0.8-0.2,1.3l0.3,2.1c0.1,0.5,0.2,0.9,0.5,1.2c0.4,0.3,0.8,0.3,1.3,0.2l2.1-0.3
	C38.2,100.4,38.6,100.3,38.9,99.9z"/>
<ellipse class="st1" cx="60.5" cy="105.7" rx="1.3" ry="1.3"/>
<circle class="st17" cx="144.4" cy="66.3" r="1.3"/>
<ellipse class="st18" cx="148.3" cy="33" rx="2" ry="2"/>
<circle class="st19" cx="85.5" cy="108.1" r="0.7"/>
<path class="st15" d="M39.3,64c0.5-0.3,0.6-0.8,0.7-1.3l0.5-2.3c0.1-0.6,0.2-1.1-0.1-1.5c-0.3-0.5-0.8-0.6-1.3-0.7l-2.3-0.5
	c-0.6-0.1-1.1-0.2-1.5,0.1c-0.5,0.3-0.6,0.8-0.7,1.3L34,61.4c-0.1,0.6-0.2,1.1,0.1,1.5c0.3,0.5,0.8,0.6,1.3,0.7l2.3,0.5
	C38.4,64.2,38.8,64.3,39.3,64L39.3,64z"/>
<path class="st20" d="M40.7,63.1c0.5-0.3,0.6-0.8,0.7-1.3l0.5-2.3c0.1-0.6,0.2-1.1-0.1-1.5c-0.3-0.5-0.8-0.6-1.3-0.7l-2.3-0.5
	c-0.6-0.1-1.1-0.2-1.5,0.1c-0.5,0.3-0.6,0.8-0.7,1.3l-0.5,2.3c-0.1,0.6-0.2,1.1,0.1,1.5c0.3,0.5,0.8,0.6,1.3,0.7l2.3,0.5
	C39.7,63.3,40.2,63.4,40.7,63.1L40.7,63.1z"/>
</svg>
