<?xml version="1.0" encoding="utf-8"?>
<!-- Generator: Adobe Illustrator 16.0.0, SVG Export Plug-In . SVG Version: 6.00 Build 0)  -->
<!DOCTYPE svg PUBLIC "-//W3C//DTD SVG 1.1 Basic//EN" "http://www.w3.org/Graphics/SVG/1.1/DTD/svg11-basic.dtd">
<svg version="1.1" baseProfile="basic" id="Layer_1"
	 xmlns="http://www.w3.org/2000/svg" xmlns:xlink="http://www.w3.org/1999/xlink" x="0px" y="0px" width="60px" height="60px"
	 viewBox="0 0 60 60" xml:space="preserve">
<g>
	<circle fill="none" stroke="#0080FF" stroke-linecap="round" stroke-linejoin="round" cx="29.79" cy="48.528" r="9.76"/>
	<path fill="none" stroke="#0080FF" stroke-linecap="round" stroke-linejoin="round" d="M34.422,16.6
		c0,2.559-2.074,4.633-4.633,4.633h-0.33c-2.559,0-4.633-2.074-4.633-4.633V6.343c0-2.559,2.074-4.632,4.633-4.632h0.33
		c2.559,0,4.633,2.073,4.633,4.632V16.6z"/>
	<path fill="#FFFFFF" stroke="#0080FF" stroke-linecap="round" stroke-linejoin="round" d="M47.325,42.076V27.354
		c0-10.324-8.37-18.694-18.694-18.694S9.938,17.029,9.938,27.354v14.723H47.325z"/>
	<path fill="#FFFFFF" stroke="#0080FF" stroke-linecap="round" stroke-linejoin="round" d="M53.611,47.701
		c0,1.097-0.889,1.986-1.984,1.986H7.952c-1.097,0-1.985-0.89-1.985-1.986v-3.639c0-1.098,0.889-1.986,1.985-1.986h43.675
		c1.096,0,1.984,0.889,1.984,1.986V47.701z"/>
	<circle opacity="0.4" fill="#D1DCEB" cx="44.522" cy="19.246" r="8.849"/>
	<circle fill="#FFFFFF" stroke="#0080FF" stroke-linecap="round" stroke-linejoin="round" cx="45.185" cy="15.857" r="8.849"/>
</g>
</svg>
