<?xml version="1.0" encoding="utf-8"?>
<!-- Generator: Adobe Illustrator 16.0.0, SVG Export Plug-In . SVG Version: 6.00 Build 0)  -->
<!DOCTYPE svg PUBLIC "-//W3C//DTD SVG 1.1 Basic//EN" "http://www.w3.org/Graphics/SVG/1.1/DTD/svg11-basic.dtd">
<svg version="1.1" baseProfile="basic" id="Layer_1"
	 xmlns="http://www.w3.org/2000/svg" xmlns:xlink="http://www.w3.org/1999/xlink" x="0px" y="0px" width="316.859px"
	 height="208.304px" viewBox="0 0 316.859 208.304" xml:space="preserve">
<g>
	<path fill="#E5F4FF" d="M16.527,117.191c0,0,9.278,4.023,11.809,25.616c2.53,21.592,13.075,40.01,42.599,40.01
		c29.523,0,44.042,12.702,46.062,14.607c2.019,1.905,26.903,6.352,59.378,0c32.478-6.35,21.089-10.162,56.307-15.242
		c35.218-5.082,25.992-13.428,31.447-23.228c5.458-9.795,68.301-43.139,29.498-78.545c0,0-22.204-15.083-47.375-4.288
		c-25.17,10.797-71.563-43.82-81.265-57.158C155.29,5.627,114.587-3.265,90.02,35.476c0,0-8.961,11.188-24.779,16.074
		c-15.815,4.885-5.271,18.587-26.782,31.425C16.948,95.81,1.764,92.212,16.527,117.191z"/>
	<circle fill="#BDE0F9" cx="169.911" cy="93.16" r="18.445"/>
	<path fill="#BDE0F9" d="M161.832,123.512c0,22.288-18.067,40.356-40.352,40.356c-22.287,0-40.355-18.068-40.355-40.356
		c0-22.285,18.068-40.353,40.355-40.353C143.765,83.159,161.832,101.227,161.832,123.512z"/>
	<circle fill="#2D9AE7" cx="168.016" cy="89.239" r="18.445"/>
	<path fill="#1B65BA" d="M165.03,122.446c0,22.288-18.068,40.356-40.353,40.356c-22.287,0-40.355-18.068-40.355-40.356
		c0-22.285,18.068-40.353,40.355-40.353C146.962,82.093,165.03,100.161,165.03,122.446z"/>
	<path fill="#98CCF3" d="M156.5,122.446c0,17.575-14.248,31.825-31.823,31.825c-17.574,0-31.825-14.25-31.825-31.825
		c0-17.573,14.25-31.823,31.825-31.823C142.252,90.623,156.5,104.873,156.5,122.446z"/>
	<path fill="none" stroke="#0080FF" stroke-linecap="round" stroke-linejoin="round" d="M154.287,172.725"/>
	<g>
		
			<line fill="#2D9AE7" stroke="#2D9AE7" stroke-width="2" stroke-linecap="round" stroke-linejoin="round" stroke-miterlimit="10" x1="124.677" y1="99.228" x2="124.677" y2="94.825"/>
		
			<line fill="#2D9AE7" stroke="#2D9AE7" stroke-width="2" stroke-linecap="round" stroke-linejoin="round" stroke-miterlimit="10" x1="113.067" y1="102.338" x2="110.867" y2="98.528"/>
		
			<line fill="#2D9AE7" stroke="#2D9AE7" stroke-width="2" stroke-linecap="round" stroke-linejoin="round" stroke-miterlimit="10" x1="104.566" y1="110.838" x2="100.757" y2="108.637"/>
		
			<line fill="#2D9AE7" stroke="#2D9AE7" stroke-width="2" stroke-linecap="round" stroke-linejoin="round" stroke-miterlimit="10" x1="101.456" y1="122.448" x2="97.055" y2="122.448"/>
		
			<line fill="#2D9AE7" stroke="#2D9AE7" stroke-width="2" stroke-linecap="round" stroke-linejoin="round" stroke-miterlimit="10" x1="104.568" y1="134.059" x2="100.757" y2="136.257"/>
		
			<line fill="#2D9AE7" stroke="#2D9AE7" stroke-width="2" stroke-linecap="round" stroke-linejoin="round" stroke-miterlimit="10" x1="113.069" y1="142.557" x2="110.867" y2="146.367"/>
		
			<line fill="#2D9AE7" stroke="#2D9AE7" stroke-width="2" stroke-linecap="round" stroke-linejoin="round" stroke-miterlimit="10" x1="124.679" y1="145.668" x2="124.677" y2="150.068"/>
		
			<line fill="#2D9AE7" stroke="#2D9AE7" stroke-width="2" stroke-linecap="round" stroke-linejoin="round" stroke-miterlimit="10" x1="136.29" y1="142.556" x2="138.486" y2="146.37"/>
		
			<line fill="#2D9AE7" stroke="#2D9AE7" stroke-width="2" stroke-linecap="round" stroke-linejoin="round" stroke-miterlimit="10" x1="144.787" y1="134.055" x2="148.596" y2="136.257"/>
		
			<line fill="#2D9AE7" stroke="#2D9AE7" stroke-width="2" stroke-linecap="round" stroke-linejoin="round" stroke-miterlimit="10" x1="147.898" y1="122.446" x2="152.298" y2="122.448"/>
		
			<line fill="#2D9AE7" stroke="#2D9AE7" stroke-width="2" stroke-linecap="round" stroke-linejoin="round" stroke-miterlimit="10" x1="144.785" y1="110.836" x2="148.596" y2="108.637"/>
		
			<line fill="#2D9AE7" stroke="#2D9AE7" stroke-width="2" stroke-linecap="round" stroke-linejoin="round" stroke-miterlimit="10" x1="136.285" y1="102.336" x2="138.486" y2="98.528"/>
	</g>
	<path fill="#0081E0" d="M126.06,116.912c-0.036,0-0.07,0.009-0.105,0.01l-6.295-6.295c-1.034-1.036-2.712-1.036-3.748,0
		c-1.036,1.036-1.036,2.714,0,3.749l6.06,6.061c-0.028,0.205-0.063,0.413-0.063,0.627c0,2.292,1.858,4.15,4.152,4.15
		c0.215,0,0.42-0.032,0.625-0.063c1.958-0.299,3.464-1.952,3.515-3.984c0.002-0.035,0.011-0.067,0.011-0.103
		C130.21,118.77,128.353,116.912,126.06,116.912z"/>
	<rect x="121.218" y="75.865" fill="#98CCF3" width="6.688" height="6.228"/>
	<path fill="#1148A1" d="M134.591,75.405c0,0.763-0.619,1.381-1.381,1.381h-16.693c-0.764,0-1.382-0.619-1.382-1.381v-4.383
		c0-0.765,0.618-1.384,1.382-1.384h16.693c0.762,0,1.381,0.62,1.381,1.384V75.405z"/>
	<g>
		<path fill="none" stroke="#98CCF3" stroke-linecap="round" stroke-linejoin="round" stroke-miterlimit="10" d="M121.225,171.793
			c-25.706-1.774-46.011-23.19-46.011-49.347c0-10.96,3.564-21.089,9.602-29.288c2.331-3.167,5.03-6.048,8.037-8.575"/>
		<path fill="none" stroke="#98CCF3" stroke-linecap="round" stroke-linejoin="round" stroke-miterlimit="10" d="M156.506,160.308
			c-8.049,6.776-18.295,11.031-29.516,11.547"/>
		<path fill="none" stroke="#98CCF3" stroke-linecap="round" stroke-linejoin="round" stroke-miterlimit="10" d="M169.4,143.598
			c-1.828,3.859-4.141,7.445-6.86,10.674"/>
		
			<line fill="none" stroke="#98CCF3" stroke-linecap="round" stroke-linejoin="round" stroke-miterlimit="10" x1="98.219" y1="78.978" x2="98.219" y2="76.786"/>
		
			<line fill="none" stroke="#98CCF3" stroke-linecap="round" stroke-linejoin="round" stroke-miterlimit="10" x1="96.952" y1="80.245" x2="94.762" y2="80.245"/>
		
			<line fill="none" stroke="#98CCF3" stroke-linecap="round" stroke-linejoin="round" stroke-miterlimit="10" x1="98.219" y1="81.513" x2="98.219" y2="83.702"/>
		
			<line fill="none" stroke="#98CCF3" stroke-linecap="round" stroke-linejoin="round" stroke-miterlimit="10" x1="99.486" y1="80.245" x2="101.677" y2="80.245"/>
	</g>
	<g>
		
			<line fill="#F0C200" stroke="#F0C200" stroke-linecap="round" stroke-linejoin="round" stroke-miterlimit="10" x1="220.69" y1="101.07" x2="220.69" y2="98.877"/>
		
			<line fill="#F0C200" stroke="#F0C200" stroke-linecap="round" stroke-linejoin="round" stroke-miterlimit="10" x1="219.423" y1="102.336" x2="217.233" y2="102.336"/>
		
			<line fill="#F0C200" stroke="#F0C200" stroke-linecap="round" stroke-linejoin="round" stroke-miterlimit="10" x1="220.69" y1="103.603" x2="220.69" y2="105.794"/>
		
			<line fill="#F0C200" stroke="#F0C200" stroke-linecap="round" stroke-linejoin="round" stroke-miterlimit="10" x1="221.958" y1="102.336" x2="224.148" y2="102.336"/>
	</g>
	<path fill="none" stroke="#98CCF3" stroke-linecap="round" stroke-linejoin="round" stroke-miterlimit="10" d="M146.589,176.534
		c-6.766,2.742-14.163,4.254-21.912,4.254c-32.22,0-58.342-26.123-58.342-58.342c0-3.171,0.253-6.282,0.741-9.314"/>
	<g>
		<line fill="#FB649C" stroke="#FB649C" stroke-miterlimit="10" x1="71.178" y1="99.396" x2="71.178" y2="97.206"/>
		<line fill="#FB649C" stroke="#FB649C" stroke-miterlimit="10" x1="69.912" y1="100.663" x2="67.72" y2="100.663"/>
		<line fill="#FB649C" stroke="#FB649C" stroke-miterlimit="10" x1="71.178" y1="101.931" x2="71.178" y2="104.121"/>
		<line fill="#FB649C" stroke="#FB649C" stroke-miterlimit="10" x1="72.445" y1="100.663" x2="74.636" y2="100.663"/>
	</g>
	<circle fill="#BDE0F9" cx="154.286" cy="173.792" r="2.22"/>
	<circle fill="#84C800" cx="154.286" cy="172.725" r="2.22"/>
	<g>
		<path fill="none" stroke="#2D9AE7" stroke-linecap="round" stroke-linejoin="round" stroke-miterlimit="10" d="M169.911,61.957
			c14.262,1.325,25.266,13.495,24.921,28.029c-0.142,6.092-2.259,11.674-5.721,16.152c-1.337,1.728-2.878,3.294-4.58,4.66"/>
		<path fill="none" stroke="#2D9AE7" stroke-linecap="round" stroke-linejoin="round" stroke-miterlimit="10" d="M150.151,67.877
			c4.563-3.666,10.314-5.892,16.556-6.033"/>
		<path fill="none" stroke="#2D9AE7" stroke-linecap="round" stroke-linejoin="round" stroke-miterlimit="10" d="M142.768,76.995
			c1.067-2.123,2.399-4.087,3.951-5.844"/>
		
			<line fill="none" stroke="#2D9AE7" stroke-linecap="round" stroke-linejoin="round" stroke-miterlimit="10" x1="181.475" y1="113.844" x2="181.445" y2="115.058"/>
		
			<line fill="none" stroke="#2D9AE7" stroke-linecap="round" stroke-linejoin="round" stroke-miterlimit="10" x1="182.195" y1="113.157" x2="183.413" y2="113.185"/>
		
			<line fill="none" stroke="#2D9AE7" stroke-linecap="round" stroke-linejoin="round" stroke-miterlimit="10" x1="181.508" y1="112.433" x2="181.536" y2="111.216"/>
		
			<line fill="none" stroke="#2D9AE7" stroke-linecap="round" stroke-linejoin="round" stroke-miterlimit="10" x1="180.788" y1="113.122" x2="179.572" y2="113.093"/>
	</g>
	<g>
		<path fill="none" stroke="#98CCF3" stroke-linecap="round" stroke-linejoin="round" stroke-miterlimit="10" d="M155.878,58.988
			c3.799-1.434,7.926-2.179,12.234-2.074c17.904,0.425,32.077,15.282,31.653,33.188c-0.041,1.763-0.22,3.492-0.532,5.17"/>
		<g>
			
				<line fill="none" stroke="#98CCF3" stroke-linecap="round" stroke-linejoin="round" stroke-miterlimit="10" x1="196.773" y1="102.851" x2="196.744" y2="104.07"/>
			
				<line fill="none" stroke="#98CCF3" stroke-linecap="round" stroke-linejoin="round" stroke-miterlimit="10" x1="197.492" y1="102.166" x2="198.714" y2="102.192"/>
			
				<line fill="none" stroke="#98CCF3" stroke-linecap="round" stroke-linejoin="round" stroke-miterlimit="10" x1="196.806" y1="101.444" x2="196.833" y2="100.225"/>
			
				<line fill="none" stroke="#98CCF3" stroke-linecap="round" stroke-linejoin="round" stroke-miterlimit="10" x1="196.089" y1="102.131" x2="194.87" y2="102.101"/>
		</g>
		<path fill="none" stroke="#98CCF3" stroke-linecap="round" stroke-linejoin="round" stroke-miterlimit="10" d="M150.316,60.978
			c0.014-0.682,0.58-1.221,1.264-1.208c0.679,0.016,1.22,0.584,1.204,1.267c-0.017,0.68-0.583,1.22-1.264,1.204
			C150.839,62.227,150.302,61.656,150.316,60.978z"/>
	</g>
	<g>
		<path fill="#FFFFFF" d="M165.971,95.236c-0.105,0-0.21-0.008-0.313-0.026c-0.587-0.088-1.107-0.424-1.43-0.922l-3.43-5.306
			c-0.623-0.963-0.346-2.247,0.617-2.87c0.961-0.621,2.247-0.347,2.87,0.617l2.159,3.339l6.833-5.68
			c0.881-0.734,2.188-0.613,2.923,0.268c0.732,0.88,0.61,2.19-0.271,2.921l-8.632,7.178
			C166.922,95.068,166.451,95.236,165.971,95.236z"/>
	</g>
	<polygon fill="#BDE0F9" points="192.844,154.24 194.916,153.24 202.849,153.24 203.344,184.366 201.142,185.429 	"/>
	<path fill="#0081E0" d="M201.69,184.837c0,0.237-0.397,0.43-0.884,0.43h-7.076c-0.489,0-0.887-0.193-0.887-0.43v-30.233
		c0-0.238,0.397-0.433,0.887-0.433h7.076c0.486,0,0.884,0.194,0.884,0.433V184.837z"/>
	<polygon fill="#BDE0F9" points="201.468,149.109 203.537,147.944 211.47,147.944 211.967,184.19 209.764,185.429 	"/>
	<path fill="#98CCF3" d="M210.313,184.738c0,0.278-0.396,0.503-0.887,0.503h-7.075c-0.487,0-0.884-0.226-0.884-0.503v-35.205
		c0-0.277,0.396-0.504,0.884-0.504h7.075c0.491,0,0.887,0.227,0.887,0.504V184.738z"/>
	<polygon fill="#BDE0F9" points="210.313,144.44 212.385,143.126 220.318,143.126 220.812,184.031 218.611,185.429 	"/>
	<path fill="#1B65BA" d="M219.16,184.649c0,0.315-0.396,0.569-0.886,0.569H211.2c-0.491,0-0.887-0.253-0.887-0.569v-39.73
		c0-0.312,0.396-0.568,0.887-0.568h7.074c0.489,0,0.886,0.256,0.886,0.568V184.649z"/>
	<g>
		<polygon fill="#BDE0F9" points="219.16,136.751 221.229,135.188 229.659,135.188 229.659,183.767 227.457,185.429 		"/>
		<path fill="#2D9AE7" d="M228.006,184.493c0,0.376-0.396,0.682-0.886,0.682h-7.075c-0.487,0-0.885-0.306-0.885-0.682v-47.742
			c0-0.377,0.397-0.683,0.885-0.683h7.075c0.49,0,0.886,0.306,0.886,0.683V184.493z"/>
	</g>
	<g>
		<polyline fill="none" stroke="#9ACEF5" stroke-miterlimit="10" points="175.707,127.772 183.903,139.47 193.464,133.621 
			201.487,116.341 211.646,144.934 221.802,138.104 228.974,122.057 		"/>
		<circle fill="#EEF6FF" stroke="#1D85D4" stroke-miterlimit="10" cx="175.708" cy="127.772" r="1.113"/>
		<circle fill="#EEF6FF" stroke="#1D85D4" stroke-miterlimit="10" cx="184.159" cy="139.233" r="1.112"/>
		<circle fill="#EEF6FF" stroke="#1D85D4" stroke-miterlimit="10" cx="193.296" cy="133.836" r="1.112"/>
		<circle fill="#EEF6FF" stroke="#1D85D4" stroke-miterlimit="10" cx="201.319" cy="116.341" r="1.112"/>
		<circle fill="#EEF6FF" stroke="#1D85D4" stroke-miterlimit="10" cx="211.478" cy="144.934" r="1.112"/>
		<path fill="#EEF6FF" stroke="#1D85D4" stroke-miterlimit="10" d="M222.914,138.104c0,0.615-0.495,1.113-1.112,1.113
			c-0.612,0-1.11-0.498-1.11-1.113s0.498-1.113,1.11-1.113C222.419,136.992,222.914,137.49,222.914,138.104z"/>
		<circle fill="#EEF6FF" stroke="#1D85D4" stroke-miterlimit="10" cx="228.974" cy="121.668" r="1.113"/>
	</g>
</g>
</svg>
