<svg id="Layer_1" data-name="Layer 1" xmlns="http://www.w3.org/2000/svg" viewBox="0 0 64 64"><defs><style>.cls-1{fill:#fff;}</style></defs><title>Artboard 1</title><rect width="64" height="64"/><path class="cls-1" d="M50.88,16a2.76,2.76,0,0,0-2.75-2.82c-3.62,0-7.34.27-11,0H36c0,1.37-.07,2.42,0,3.45a2.37,2.37,0,0,0,2.6,2.4,37.68,37.68,0,0,1,4.11.15h1.35c0,.09.1,19.48,0,20.31-.24,1.92.24,4.86-2.58,4.86l-17.74,0c-1.1,0-2.23.16-2.92-.85s-.65-2.92-.79-4.3C20,38,20,36.79,20,35.62c-.06-3.45-.05-6.9,0-10.35,0-.35,0-6.16,0-6.16l7.64,0c0-.26.08-.31.08-.36,0-1,0-2,0-3-.09-1.48-.6-2.19-1.86-2.49H15.31C14.12,14,13.47,16,13.11,16v18.9c0,3.38.24,8,2,11A9,9,0,0,0,20,49.87a17.38,17.38,0,0,0,5.42.94c3.81.07,7.63.06,11.44.06a25.23,25.23,0,0,0,5.94-.62c3.63-.88,6.52-3.07,7.43-6.9a22.46,22.46,0,0,0,.62-5C50.92,30.91,50.89,23.43,50.88,16Z"/></svg>