<?xml version="1.0" encoding="utf-8"?>
<!-- Generator: Adobe Illustrator 21.1.0, SVG Export Plug-In . SVG Version: 6.00 Build 0)  -->
<svg version="1.1" baseProfile="basic" id="Layer_1"
	 xmlns="http://www.w3.org/2000/svg" xmlns:xlink="http://www.w3.org/1999/xlink" x="0px" y="0px" viewBox="0 0 1900 1200"
	 xml:space="preserve">
<style type="text/css">
	.st0{fill:none;stroke:#4150D1;stroke-miterlimit:10;}
	.st1{fill:#3E62DC;}
	.st2{fill:#294EDA;}
	.st3{fill:#3C3CC2;}
	.st4{fill:#3C3DBD;}
	.st5{fill:#2045CA;}
	.st6{fill:#2252CE;}
	.st7{fill:#3C3ABF;}
	.st8{fill:#2456CF;}
	.st9{fill:#204AD0;}
	.st10{fill:#2245BB;}
	.st11{fill:#1D58D0;}
	.st12{fill:#3235B6;}
	.st13{fill:#2355DA;}
	.st14{fill:#2E45C6;}
	.st15{fill:#374ACA;}
	.st16{fill:#384DCC;}
	.st17{fill:#364ECC;}
	.st18{fill:#2E4CD0;}
	.st19{fill:#3144CF;}
	.st20{fill:#2D4ED7;}
	.st21{fill:#3B46C6;}
	.st22{fill:#303FBC;}
	.st23{fill:#313FBC;}
	.st24{fill:#224ED5;}
	.st25{fill:#3577EF;}
	.st26{fill:#3055CA;}
	.st27{fill:#1C66E3;}
	.st28{fill:#335BD4;}
	.st29{fill:#2557DC;}
</style>
<g id="fJKmuI.tif">
	
		<image style="overflow:visible;" width="1916" height="1146" id="Layer_0" xlink:href="AE09FF718543064A.png"  transform="matrix(1 0 0 1 3297.3389 172.142)">
	</image>
</g>
<polygon class="st0" points="150,426 156,456 177,436 "/>
<circle class="st1" cx="472" cy="274" r="16"/>
<polygon class="st1" points="494,1024 487,1058 521,1065 529,1033 "/>
<circle class="st1" cx="770" cy="874" r="10"/>
<polygon class="st1" points="1068,237 1058,248 1072,258 1078,247.5 "/>
<g>
	<path class="st2" d="M283.5,238h-200c-2.5,0-4.5-2-4.5-4.5l0,0c0-2.5,2-4.5,4.5-4.5h200c2.5,0,4.5,2,4.5,4.5l0,0
		C288,236,286,238,283.5,238z"/>
	<path class="st3" d="M283.5,238H195c-2.5,0-4.5-2-4.5-4.5l0,0c0-2.5,2-4.5,4.5-4.5h88.5c2.5,0,4.5,2,4.5,4.5l0,0
		C288,236,286,238,283.5,238z"/>
	<path class="st2" d="M204.5,257H116c-2.2,0-4-1.8-4-4l0,0c0-2.2,1.8-4,4-4h88.5c2.2,0,4,1.8,4,4l0,0
		C208.5,255.2,206.7,257,204.5,257z"/>
	<path class="st4" d="M173,257h-57c-2.2,0-4-1.8-4-4l0,0c0-2.2,1.8-4,4-4h57c2.2,0,4,1.8,4,4l0,0C177,255.2,175.2,257,173,257z"/>
	<path class="st2" d="M215.2,299L172,255.8c-1.6-1.6-1.6-4.1,0-5.7l0,0c1.6-1.6,4.1-1.6,5.7,0l43.1,43.1c1.6,1.6,1.6,4.1,0,5.7l0,0
		C219.3,300.5,216.7,300.5,215.2,299z"/>
	<path class="st5" d="M44,277H5.5c-3,0-5.5-2.5-5.5-5.5l0,0c0-3,2.5-5.5,5.5-5.5H44c3,0,5.5,2.5,5.5,5.5l0,0
		C49.5,274.5,47,277,44,277z"/>
	<path class="st6" d="M26,277H5.5c-3,0-5.5-2.5-5.5-5.5l0,0c0-3,2.5-5.5,5.5-5.5H26c3,0,5.5,2.5,5.5,5.5l0,0
		C31.5,274.5,29,277,26,277z"/>
	<path class="st4" d="M246,277H71c-3,0-5.5-2.5-5.5-5.5l0,0c0-3,2.5-5.5,5.5-5.5h175c3,0,5.5,2.5,5.5,5.5l0,0
		C251.5,274.5,249,277,246,277z"/>
	<path class="st6" d="M149.2,277H70c-2.9,0-5.3-2.4-5.3-5.3l0,0c0-2.9,2.4-5.3,5.3-5.3h79.2c2.9,0,5.3,2.4,5.3,5.3l0,0
		C154.5,274.6,152.1,277,149.2,277z"/>
	<path class="st7" d="M102.3,295h-78c-2.4,0-4.3-2-4.3-4.3l0,0c0-2.4,1.9-4.3,4.3-4.3h78c2.4,0,4.3,1.9,4.3,4.3l0,0
		C106.7,293,104.7,295,102.3,295z"/>
	<path class="st7" d="M118.5,333.3h-71c-2.1,0-3.8-1.7-3.8-3.8l0,0c0-2.1,1.7-3.8,3.8-3.8h71c2.1,0,3.8,1.7,3.8,3.8l0,0
		C122.3,331.6,120.6,333.3,118.5,333.3z"/>
	<path class="st8" d="M167.8,315.3h-52.3c-1.9,0-3.5-1.6-3.5-3.5l0,0c0-1.9,1.6-3.5,3.5-3.5h52.3c1.9,0,3.5,1.6,3.5,3.5l0,0
		C171.3,313.8,169.8,315.3,167.8,315.3z"/>
	<path class="st2" d="M184.2,333.3h-30.3c-2.1,0-3.8-1.7-3.8-3.8l0,0c0-2.1,1.7-3.8,3.8-3.8h30.3c2.1,0,3.8,1.7,3.8,3.8l0,0
		C188,331.6,186.3,333.3,184.2,333.3z"/>
	<path class="st9" d="M288,335.7h-77.3c-2.7,0-5-2.2-5-5l0,0c0-2.8,2.2-5,5-5H288c2.8,0,5,2.2,5,5l0,0
		C293,333.4,290.8,335.7,288,335.7z"/>
	<path class="st2" d="M255.7,335.7h-45c-2.7,0-5-2.2-5-5l0,0c0-2.8,2.2-5,5-5h45c2.7,0,5,2.2,5,5l0,0
		C260.7,333.4,258.4,335.7,255.7,335.7z"/>
	<path class="st2" d="M294.5,392.3H148.8c-2.1,0-3.8-1.7-3.8-3.8l0,0c0-2.1,1.7-3.8,3.8-3.8h145.7c2.1,0,3.8,1.7,3.8,3.8l0,0
		C298.3,390.6,296.6,392.3,294.5,392.3z"/>
	<path class="st7" d="M179.5,392.3h-30.7c-2.1,0-3.8-1.7-3.8-3.8l0,0c0-2.1,1.7-3.8,3.8-3.8h30.7c2.1,0,3.8,1.7,3.8,3.8l0,0
		C183.3,390.6,181.6,392.3,179.5,392.3z"/>
	<path class="st9" d="M294.5,392.3h-53.3c-2.1,0-3.8-1.7-3.8-3.8l0,0c0-2.1,1.7-3.8,3.8-3.8h53.3c2.1,0,3.8,1.7,3.8,3.8l0,0
		C298.3,390.6,296.6,392.3,294.5,392.3z"/>
	<path class="st2" d="M250.8,354.3H83.5c-2.5,0-4.5-2-4.5-4.5l0,0c0-2.5,2-4.5,4.5-4.5h167.3c2.5,0,4.5,2,4.5,4.5l0,0
		C255.3,352.3,253.3,354.3,250.8,354.3z"/>
	<path class="st10" d="M161.8,354.3H83.5c-2.5,0-4.5-2-4.5-4.5l0,0c0-2.5,2-4.5,4.5-4.5h78.3c2.5,0,4.5,2,4.5,4.5l0,0
		C166.3,352.3,164.3,354.3,161.8,354.3z"/>
	<path class="st7" d="M97.3,372.3H25c-2.7,0-5-2.2-5-5l0,0c0-2.8,2.2-5,5-5h72.3c2.8,0,5,2.2,5,5l0,0
		C102.3,370.1,100.1,372.3,97.3,372.3z"/>
	<path class="st2" d="M41.2,372.3H24.5c-2.5,0-4.5-2-4.5-4.5l0,0c0-2.5,2-4.5,4.5-4.5h16.7c2.5,0,4.5,2,4.5,4.5l0,0
		C45.7,370.3,43.6,372.3,41.2,372.3z"/>
	<path class="st2" d="M67.2,354.3h-45c-2.5,0-4.5-2-4.5-4.5l0,0c0-2.5,2-4.5,4.5-4.5h45c2.5,0,4.5,2,4.5,4.5l0,0
		C71.7,352.3,69.6,354.3,67.2,354.3z"/>
	<path class="st7" d="M37.8,354.3H22.2c-2.5,0-4.5-2-4.5-4.5l0,0c0-2.5,2-4.5,4.5-4.5h15.7c2.5,0,4.5,2,4.5,4.5l0,0
		C42.3,352.3,40.3,354.3,37.8,354.3z"/>
	<path class="st2" d="M206.2,374h-61.3c-2.5,0-4.5-2-4.5-4.5l0,0c0-2.5,2-4.5,4.5-4.5h61.3c2.5,0,4.5,2,4.5,4.5l0,0
		C210.7,372,208.6,374,206.2,374z"/>
	<path class="st10" d="M206.2,374h-30.3c-2.5,0-4.5-2-4.5-4.5l0,0c0-2.5,2-4.5,4.5-4.5h30.3c2.5,0,4.5,2,4.5,4.5l0,0
		C210.7,372,208.6,374,206.2,374z"/>
	<path class="st2" d="M192.1,295h-52.8c-2.4,0-4.3-2-4.3-4.3l0,0c0-2.4,1.9-4.3,4.3-4.3h52.8c2.4,0,4.3,1.9,4.3,4.3l0,0
		C196.4,293,194.5,295,192.1,295z"/>
	<path class="st11" d="M292.3,295h-153c-2.4,0-4.3-2-4.3-4.3l0,0c0-2.4,1.9-4.3,4.3-4.3h153c2.4,0,4.3,1.9,4.3,4.3l0,0
		C296.7,293,294.7,295,292.3,295z"/>
	<path class="st2" d="M177.5,274.8l-36.5,29.5c-1.6,1.3-4.1,1.1-5.4-0.6v0c-1.3-1.6-1.1-4.1,0.6-5.4l36.5-29.5
		c1.6-1.3,4.1-1.1,5.4,0.6h0C179.4,271.1,179.1,273.5,177.5,274.8z"/>
	<path class="st12" d="M265,315.3h-56.3c-2.6,0-4.7-2.1-4.7-4.7l0,0c0-2.6,2.1-4.7,4.7-4.7H265c2.6,0,4.7,2.1,4.7,4.7l0,0
		C269.7,313.2,267.6,315.3,265,315.3z"/>
	<path class="st7" d="M99.3,315.3h-91c-2.4,0-4.3-2-4.3-4.3l0,0c0-2.4,1.9-4.3,4.3-4.3h91c2.4,0,4.3,2,4.3,4.3l0,0
		C103.7,313.4,101.7,315.3,99.3,315.3z"/>
	<path class="st2" d="M49.7,315.3H8.3c-2.4,0-4.3-2-4.3-4.3l0,0c0-2.4,1.9-4.3,4.3-4.3h41.3c2.4,0,4.3,2,4.3,4.3l0,0
		C54,313.4,52.1,315.3,49.7,315.3z"/>
	<path class="st2" d="M93.7,337.3l-27.8-27.8c-1.8-1.8-1.8-4.6,0-6.4h0c1.8-1.8,4.6-1.8,6.4,0l27.8,27.8c1.8,1.8,1.8,4.6,0,6.4l0,0
		C98.3,339,95.5,339,93.7,337.3z"/>
</g>
<g>
	<path class="st2" d="M1833.8,296.8h-200c-2.5,0-4.5-2-4.5-4.5l0,0c0-2.5,2-4.5,4.5-4.5h200c2.5,0,4.5,2,4.5,4.5l0,0
		C1838.3,294.8,1836.3,296.8,1833.8,296.8z"/>
	<path class="st3" d="M1833.8,296.8h-88.5c-2.5,0-4.5-2-4.5-4.5l0,0c0-2.5,2-4.5,4.5-4.5h88.5c2.5,0,4.5,2,4.5,4.5l0,0
		C1838.3,294.8,1836.3,296.8,1833.8,296.8z"/>
	<path class="st2" d="M1754.8,315.8h-88.5c-2.2,0-4-1.8-4-4l0,0c0-2.2,1.8-4,4-4h88.5c2.2,0,4,1.8,4,4l0,0
		C1758.8,314,1757,315.8,1754.8,315.8z"/>
	<path class="st4" d="M1723.3,315.8h-57c-2.2,0-4-1.8-4-4l0,0c0-2.2,1.8-4,4-4h57c2.2,0,4,1.8,4,4l0,0
		C1727.3,314,1725.5,315.8,1723.3,315.8z"/>
	<path class="st2" d="M1765.5,357.8l-43.1-43.1c-1.6-1.6-1.6-4.1,0-5.7l0,0c1.6-1.6,4.1-1.6,5.7,0l43.1,43.1c1.6,1.6,1.6,4.1,0,5.7
		l0,0C1769.6,359.3,1767,359.3,1765.5,357.8z"/>
	<path class="st5" d="M1594.3,335.8h-38.5c-3,0-5.5-2.5-5.5-5.5v0c0-3,2.5-5.5,5.5-5.5h38.5c3,0,5.5,2.5,5.5,5.5v0
		C1599.8,333.4,1597.3,335.8,1594.3,335.8z"/>
	<path class="st6" d="M1576.3,335.8h-20.5c-3,0-5.5-2.5-5.5-5.5v0c0-3,2.5-5.5,5.5-5.5h20.5c3,0,5.5,2.5,5.5,5.5v0
		C1581.8,333.4,1579.3,335.8,1576.3,335.8z"/>
	<path class="st4" d="M1796.3,335.8h-175c-3,0-5.5-2.5-5.5-5.5v0c0-3,2.5-5.5,5.5-5.5h175c3,0,5.5,2.5,5.5,5.5v0
		C1801.8,333.4,1799.3,335.8,1796.3,335.8z"/>
	<path class="st6" d="M1699.5,335.8h-79.2c-2.9,0-5.3-2.4-5.3-5.3v0c0-2.9,2.4-5.3,5.3-5.3h79.2c2.9,0,5.3,2.4,5.3,5.3v0
		C1704.8,333.5,1702.4,335.8,1699.5,335.8z"/>
	<path class="st7" d="M1652.6,353.8h-78c-2.4,0-4.3-2-4.3-4.3l0,0c0-2.4,1.9-4.3,4.3-4.3h78c2.4,0,4.3,2,4.3,4.3l0,0
		C1657,351.9,1655,353.8,1652.6,353.8z"/>
	<path class="st7" d="M1668.8,392.2h-71c-2.1,0-3.8-1.7-3.8-3.8l0,0c0-2.1,1.7-3.8,3.8-3.8h71c2.1,0,3.8,1.7,3.8,3.8l0,0
		C1672.6,390.4,1670.9,392.2,1668.8,392.2z"/>
	<path class="st8" d="M1718.1,374.2h-52.3c-1.9,0-3.5-1.6-3.5-3.5l0,0c0-1.9,1.6-3.5,3.5-3.5h52.3c1.9,0,3.5,1.6,3.5,3.5l0,0
		C1721.6,372.6,1720,374.2,1718.1,374.2z"/>
	<path class="st2" d="M1734.5,392.2h-30.3c-2.1,0-3.8-1.7-3.8-3.8l0,0c0-2.1,1.7-3.8,3.8-3.8h30.3c2.1,0,3.8,1.7,3.8,3.8l0,0
		C1738.3,390.4,1736.6,392.2,1734.5,392.2z"/>
	<path class="st9" d="M1838.3,394.5H1761c-2.8,0-5-2.2-5-5l0,0c0-2.8,2.2-5,5-5h77.3c2.8,0,5,2.2,5,5l0,0
		C1843.3,392.2,1841,394.5,1838.3,394.5z"/>
	<path class="st2" d="M1806,394.5h-45c-2.8,0-5-2.2-5-5l0,0c0-2.8,2.2-5,5-5h45c2.8,0,5,2.2,5,5l0,0
		C1811,392.2,1808.7,394.5,1806,394.5z"/>
	<path class="st2" d="M1844.8,451.2h-145.7c-2.1,0-3.8-1.7-3.8-3.8l0,0c0-2.1,1.7-3.8,3.8-3.8h145.7c2.1,0,3.8,1.7,3.8,3.8l0,0
		C1848.6,449.4,1846.9,451.2,1844.8,451.2z"/>
	<path class="st7" d="M1729.8,451.2h-30.7c-2.1,0-3.8-1.7-3.8-3.8l0,0c0-2.1,1.7-3.8,3.8-3.8h30.7c2.1,0,3.8,1.7,3.8,3.8l0,0
		C1733.6,449.4,1731.9,451.2,1729.8,451.2z"/>
	<path class="st9" d="M1844.8,451.2h-53.3c-2.1,0-3.8-1.7-3.8-3.8l0,0c0-2.1,1.7-3.8,3.8-3.8h53.3c2.1,0,3.8,1.7,3.8,3.8l0,0
		C1848.6,449.4,1846.9,451.2,1844.8,451.2z"/>
	<path class="st2" d="M1801.1,413.2h-167.3c-2.5,0-4.5-2-4.5-4.5l0,0c0-2.5,2-4.5,4.5-4.5h167.3c2.5,0,4.5,2,4.5,4.5l0,0
		C1805.6,411.1,1803.6,413.2,1801.1,413.2z"/>
	<path class="st10" d="M1712.1,413.2h-78.3c-2.5,0-4.5-2-4.5-4.5l0,0c0-2.5,2-4.5,4.5-4.5h78.3c2.5,0,4.5,2,4.5,4.5l0,0
		C1716.6,411.1,1714.6,413.2,1712.1,413.2z"/>
	<path class="st7" d="M1647.6,431.2h-72.3c-2.8,0-5-2.2-5-5l0,0c0-2.8,2.2-5,5-5h72.3c2.8,0,5,2.2,5,5l0,0
		C1652.6,428.9,1650.4,431.2,1647.6,431.2z"/>
	<path class="st2" d="M1591.5,431.2h-16.7c-2.5,0-4.5-2-4.5-4.5l0,0c0-2.5,2-4.5,4.5-4.5h16.7c2.5,0,4.5,2,4.5,4.5l0,0
		C1596,429.1,1593.9,431.2,1591.5,431.2z"/>
	<path class="st2" d="M1617.5,413.2h-45c-2.5,0-4.5-2-4.5-4.5l0,0c0-2.5,2-4.5,4.5-4.5h45c2.5,0,4.5,2,4.5,4.5l0,0
		C1622,411.1,1619.9,413.2,1617.5,413.2z"/>
	<path class="st7" d="M1588.1,413.2h-15.7c-2.5,0-4.5-2-4.5-4.5l0,0c0-2.5,2-4.5,4.5-4.5h15.7c2.5,0,4.5,2,4.5,4.5l0,0
		C1592.6,411.1,1590.6,413.2,1588.1,413.2z"/>
	<path class="st2" d="M1756.5,432.8h-61.3c-2.5,0-4.5-2-4.5-4.5l0,0c0-2.5,2-4.5,4.5-4.5h61.3c2.5,0,4.5,2,4.5,4.5l0,0
		C1761,430.8,1758.9,432.8,1756.5,432.8z"/>
	<path class="st10" d="M1756.5,432.8h-30.3c-2.5,0-4.5-2-4.5-4.5l0,0c0-2.5,2-4.5,4.5-4.5h30.3c2.5,0,4.5,2,4.5,4.5l0,0
		C1761,430.8,1758.9,432.8,1756.5,432.8z"/>
	<path class="st2" d="M1742.4,353.8h-52.8c-2.4,0-4.3-2-4.3-4.3l0,0c0-2.4,1.9-4.3,4.3-4.3h52.8c2.4,0,4.3,2,4.3,4.3l0,0
		C1746.7,351.9,1744.8,353.8,1742.4,353.8z"/>
	<path class="st11" d="M1842.6,353.8h-153c-2.4,0-4.3-2-4.3-4.3l0,0c0-2.4,1.9-4.3,4.3-4.3h153c2.4,0,4.3,2,4.3,4.3l0,0
		C1847,351.9,1845,353.8,1842.6,353.8z"/>
	<path class="st2" d="M1727.8,333.6l-36.5,29.5c-1.6,1.3-4.1,1.1-5.4-0.6l0,0c-1.3-1.6-1.1-4.1,0.6-5.4l36.5-29.5
		c1.6-1.3,4.1-1.1,5.4,0.6l0,0C1729.7,329.9,1729.4,332.3,1727.8,333.6z"/>
	<path class="st12" d="M1815.3,374.2H1759c-2.6,0-4.7-2.1-4.7-4.7l0,0c0-2.6,2.1-4.7,4.7-4.7h56.3c2.6,0,4.7,2.1,4.7,4.7l0,0
		C1820,372.1,1817.9,374.2,1815.3,374.2z"/>
	<path class="st7" d="M1649.6,374.2h-91c-2.4,0-4.3-1.9-4.3-4.3l0,0c0-2.4,1.9-4.3,4.3-4.3h91c2.4,0,4.3,2,4.3,4.3l0,0
		C1654,372.2,1652,374.2,1649.6,374.2z"/>
	<path class="st2" d="M1600,374.2h-41.3c-2.4,0-4.3-1.9-4.3-4.3l0,0c0-2.4,1.9-4.3,4.3-4.3h41.3c2.4,0,4.3,2,4.3,4.3l0,0
		C1604.3,372.2,1602.3,374.2,1600,374.2z"/>
	<path class="st2" d="M1644,396.1l-27.8-27.8c-1.8-1.8-1.8-4.6,0-6.4l0,0c1.8-1.8,4.6-1.8,6.4,0l27.8,27.8c1.8,1.8,1.8,4.6,0,6.4
		l0,0C1648.6,397.8,1645.8,397.8,1644,396.1z"/>
</g>
<path class="st13" d="M802,361.7h-31c-2.2,0-4-1.8-4-4l0,0c0-2.2,1.8-4,4-4h31c2.2,0,4,1.8,4,4l0,0C806,359.9,804.2,361.7,802,361.7
	z"/>
<path class="st14" d="M897.7,361.7H824c-2.2,0-4-1.8-4-4l0,0c0-2.2,1.8-4,4-4h73.7c2.2,0,4,1.8,4,4l0,0
	C901.7,359.9,899.9,361.7,897.7,361.7z"/>
<path class="st15" d="M839.7,361.7H824c-2.2,0-4-1.8-4-4l0,0c0-2.2,1.8-4,4-4h15.7c2.2,0,4,1.8,4,4l0,0
	C843.7,359.9,841.9,361.7,839.7,361.7z"/>
<path class="st13" d="M862.5,381h-78c-2.3,0-4.2-1.9-4.2-4.2l0,0c0-2.3,1.9-4.2,4.2-4.2h78c2.3,0,4.2,1.9,4.2,4.2l0,0
	C866.7,379.1,864.8,381,862.5,381z"/>
<path class="st15" d="M841.5,381h-57c-2.3,0-4.2-1.9-4.2-4.2l0,0c0-2.3,1.9-4.2,4.2-4.2h57c2.3,0,4.2,1.9,4.2,4.2l0,0
	C845.7,379.1,843.8,381,841.5,381z"/>
<path class="st13" d="M819.2,401h-38.5c-2.4,0-4.3-2-4.3-4.3l0,0c0-2.4,2-4.3,4.3-4.3h38.5c2.4,0,4.3,1.9,4.3,4.3l0,0
	C823.5,399,821.5,401,819.2,401z"/>
<path class="st16" d="M853.2,399h-3.3c-1.8,0-3.3-1.5-3.3-3.3l0,0c0-1.8,1.5-3.3,3.3-3.3h3.3c1.8,0,3.3,1.5,3.3,3.3l0,0
	C856.5,397.5,855,399,853.2,399z"/>
<path class="st17" d="M892.9,401h-19.8c-2.4,0-4.3-2-4.3-4.3l0,0c0-2.4,2-4.3,4.3-4.3h19.8c2.4,0,4.3,1.9,4.3,4.3l0,0
	C897.2,399,895.3,401,892.9,401z"/>
<path class="st18" d="M929.4,400.7l-24-20.9c-1.7-1.5-1.8-4-0.4-5.7v0c1.5-1.7,4-1.8,5.7-0.4l24,20.9c1.7,1.5,1.8,4,0.4,5.7l0,0
	C933.7,402,931.1,402.1,929.4,400.7z"/>
<path class="st13" d="M925.5,381h-22.7c-2.3,0-4.2-1.9-4.2-4.2l0,0c0-2.3,1.9-4.2,4.2-4.2h22.7c2.3,0,4.2,1.9,4.2,4.2l0,0
	C929.7,379.1,927.8,381,925.5,381z"/>
<path class="st19" d="M145,769H65c-2.7,0-5-2.2-5-5l0,0c0-2.8,2.2-5,5-5h80c2.8,0,5,2.2,5,5l0,0C150,766.8,147.8,769,145,769z"/>
<path class="st19" d="M157.2,792h-107c-2.6,0-4.7-2.1-4.7-4.8l0,0c0-2.6,2.1-4.8,4.7-4.8h107c2.6,0,4.8,2.1,4.8,4.8l0,0
	C162,789.9,159.9,792,157.2,792z"/>
<path class="st19" d="M282.2,837.5H166.8c-2.6,0-4.8-2.1-4.8-4.8l0,0c0-2.6,2.1-4.8,4.8-4.8h115.5c2.6,0,4.8,2.1,4.8,4.8l0,0
	C287,835.4,284.9,837.5,282.2,837.5z"/>
<path class="st19" d="M313.5,862.5H203c-2.5,0-4.5-2-4.5-4.5l0,0c0-2.5,2-4.5,4.5-4.5h110.5c2.5,0,4.5,2,4.5,4.5l0,0
	C318,860.5,316,862.5,313.5,862.5z"/>
<path class="st19" d="M168,862.5H81c-2.5,0-4.5-2-4.5-4.5l0,0c0-2.5,2-4.5,4.5-4.5h87c2.5,0,4.5,2,4.5,4.5l0,0
	C172.5,860.5,170.5,862.5,168,862.5z"/>
<path class="st19" d="M189.5,838.2l-41.1-47.7c-1.7-2-1.5-5,0.5-6.7h0c2-1.7,5-1.5,6.7,0.5l41.1,47.7c1.7,2,1.5,5-0.5,6.7h0
	C194.2,840.4,191.2,840.2,189.5,838.2z"/>
<g>
	<path class="st20" d="M535.5,753.6h-11c-3,0-5.5-2.5-5.5-5.5l0,0c0-3,2.5-5.5,5.5-5.5h11c3,0,5.5,2.5,5.5,5.5l0,0
		C541,751.2,538.5,753.6,535.5,753.6z"/>
	<path class="st20" d="M590.8,753.6h-37c-2.3,0-4.2-1.9-4.2-4.2l0,0c0-2.3,1.9-4.2,4.2-4.2h37c2.3,0,4.2,1.9,4.2,4.2l0,0
		C595,751.7,593.1,753.6,590.8,753.6z"/>
	<path class="st20" d="M568,774.6h-67.2c-2.3,0-4.2-1.9-4.2-4.2l0,0c0-2.3,1.9-4.2,4.2-4.2H568c2.3,0,4.2,1.9,4.2,4.2l0,0
		C572.2,772.7,570.3,774.6,568,774.6z"/>
	<path class="st20" d="M612.8,774.6h-22c-2.3,0-4.2-1.9-4.2-4.2l0,0c0-2.3,1.9-4.2,4.2-4.2h22c2.3,0,4.2,1.9,4.2,4.2l0,0
		C617,772.7,615.1,774.6,612.8,774.6z"/>
	
		<rect x="540.4" y="753.2" transform="matrix(0.5639 -0.8259 0.8259 0.5639 -384.2243 790.4052)" class="st20" width="31.8" height="11.5"/>
</g>
<path class="st21" d="M27.3,1021.5h-25c-2.9,0-5.2-2.4-5.2-5.2l0,0c0-2.9,2.4-5.2,5.2-5.2h25c2.9,0,5.2,2.4,5.2,5.2l0,0
	C32.5,1019.1,30.1,1021.5,27.3,1021.5z"/>
<path class="st2" d="M172.2,1021.5h-40.5c-2.9,0-5.2-2.4-5.2-5.2l0,0c0-2.9,2.4-5.2,5.2-5.2h40.5c2.9,0,5.2,2.4,5.2,5.2l0,0
	C177.5,1019.1,175.1,1021.5,172.2,1021.5z"/>
<path class="st22" d="M194.2,1058h-76c-2.3,0-4.2-1.9-4.2-4.2l0,0c0-2.3,1.9-4.2,4.2-4.2h76c2.3,0,4.2,1.9,4.2,4.2l0,0
	C198.5,1056.1,196.6,1058,194.2,1058z"/>
<path class="st21" d="M137.2,1058h-19c-2.3,0-4.2-1.9-4.2-4.2l0,0c0-2.3,1.9-4.2,4.2-4.2h19c2.3,0,4.2,1.9,4.2,4.2l0,0
	C141.5,1056.1,139.6,1058,137.2,1058z"/>
<path class="st22" d="M248.2,1018.5h-27c-2.1,0-3.8-1.7-3.8-3.8l0,0c0-2.1,1.7-3.8,3.8-3.8h27c2.1,0,3.8,1.7,3.8,3.8l0,0
	C252,1016.8,250.3,1018.5,248.2,1018.5z"/>
<path class="st2" d="M122.5,1038.5h-31c-2.2,0-4-1.8-4-4l0,0c0-2.2,1.8-4,4-4h31c2.2,0,4,1.8,4,4l0,0
	C126.5,1036.7,124.7,1038.5,122.5,1038.5z"/>
<path class="st2" d="M161.5,1038.5h-23c-2.2,0-4-1.8-4-4l0,0c0-2.2,1.8-4,4-4h23c2.2,0,4,1.8,4,4l0,0
	C165.5,1036.7,163.7,1038.5,161.5,1038.5z"/>
<path class="st2" d="M218,1041.5h-38.5c-3,0-5.5-2.5-5.5-5.5l0,0c0-3,2.5-5.5,5.5-5.5H218c3,0,5.5,2.5,5.5,5.5l0,0
	C223.5,1039,221,1041.5,218,1041.5z"/>
<path class="st22" d="M218,1041.5h-18.2c-3,0-5.5-2.5-5.5-5.5l0,0c0-3,2.5-5.5,5.5-5.5H218c3,0,5.5,2.5,5.5,5.5l0,0
	C223.5,1039,221,1041.5,218,1041.5z"/>
<path class="st2" d="M57.1,1038.5H1.6c-2.5,0-4.6-2.1-4.6-4.6l0,0c0-2.5,2.1-4.6,4.6-4.6h55.5c2.5,0,4.6,2.1,4.6,4.6l0,0
	C61.7,1036.4,59.6,1038.5,57.1,1038.5z"/>
<path class="st23" d="M57.1,1038.5H19.3c-2.5,0-4.6-2.1-4.6-4.6l0,0c0-2.5,2.1-4.6,4.6-4.6h37.8c2.5,0,4.6,2.1,4.6,4.6l0,0
	C61.7,1036.4,59.6,1038.5,57.1,1038.5z"/>
<path class="st24" d="M83.3,1058H63.9c-2.3,0-4.2-1.9-4.2-4.2l0,0c0-2.3,1.9-4.2,4.2-4.2h19.3c2.3,0,4.2,1.9,4.2,4.2l0,0
	C87.5,1056.1,85.6,1058,83.3,1058z"/>
<path class="st2" d="M109.5,1035.1L92,1021.2c-1.7-1.4-2-3.9-0.6-5.6h0c1.4-1.7,3.9-2,5.6-0.6l17.5,13.9c1.7,1.4,2,3.9,0.6,5.6h0
	C113.8,1036.1,111.2,1036.4,109.5,1035.1z"/>
<path class="st21" d="M118.2,1018.5H75.8c-2.1,0-3.8-1.7-3.8-3.8l0,0c0-2.1,1.7-3.8,3.8-3.8h42.5c2.1,0,3.8,1.7,3.8,3.8l0,0
	C122,1016.8,120.3,1018.5,118.2,1018.5z"/>
<polygon class="st25" points="1823.2,684.9 1814.4,700.1 1832,700.1 "/>
<path class="st26" d="M1897.5,49.7h-79c-2.5,0-4.5-2-4.5-4.5v0c0-2.5,2-4.5,4.5-4.5h79c2.5,0,4.5,2,4.5,4.5v0
	C1902,47.6,1900,49.7,1897.5,49.7z"/>
<path class="st27" d="M1860.5,49.7h-42c-2.5,0-4.5-2-4.5-4.5v0c0-2.5,2-4.5,4.5-4.5h42c2.5,0,4.5,2,4.5,4.5v0
	C1865,47.6,1863,49.7,1860.5,49.7z"/>
<path class="st28" d="M1849.8,67.7h-51c-2.1,0-3.8-1.7-3.8-3.8v0c0-2.1,1.7-3.8,3.8-3.8h51c2.1,0,3.8,1.7,3.8,3.8v0
	C1853.7,65.9,1851.9,67.7,1849.8,67.7z"/>
<path class="st26" d="M1890.2,88.3h-52c-2.1,0-3.8-1.7-3.8-3.8v0c0-2.1,1.7-3.8,3.8-3.8h52c2.1,0,3.8,1.7,3.8,3.8v0
	C1894,86.6,1892.3,88.3,1890.2,88.3z"/>
<path class="st29" d="M1904.2,67.7h-33.7c-2.1,0-3.8-1.7-3.8-3.8v0c0-2.1,1.7-3.8,3.8-3.8h33.7c2.1,0,3.8,1.7,3.8,3.8v0
	C1908,65.9,1906.3,67.7,1904.2,67.7z"/>
</svg>
