<?xml version="1.0" encoding="utf-8"?>
<!-- Generator: Adobe Illustrator 21.1.0, SVG Export Plug-In . SVG Version: 6.00 Build 0)  -->
<svg version="1.1" baseProfile="basic" id="Layer_1"
	 xmlns="http://www.w3.org/2000/svg" xmlns:xlink="http://www.w3.org/1999/xlink" x="0px" y="0px" viewBox="0 0 1900 340.4"
	 xml:space="preserve">
<style type="text/css">
	.st0{fill:none;stroke:#FFFFFF;stroke-width:2;stroke-miterlimit:10;}
	.st1{fill:#2292CB;stroke:#FFFFFF;stroke-miterlimit:10;}
	.st2{fill:#FFFFFF;}
</style>
<path class="st0" d="M216,163h-95c-4.9,0-9-4.1-9-9V46c0-5,4.1-9,9-9h95c4.9,0,9,4,9,9v108C225,158.9,220.9,163,216,163z"/>
<path class="st0" d="M393,163h-95c-5,0-9-4.1-9-9V46c0-5,4-9,9-9h95c5,0,9,4,9,9v108C402,158.9,398,163,393,163z"/>
<path class="st0" d="M216,329h-95c-4.9,0-9-4-9-9V212c0-4.9,4.1-9,9-9h95c4.9,0,9,4.1,9,9v108C225,325,220.9,329,216,329z"/>
<path class="st0" d="M393,329h-95c-5,0-9-4-9-9V212c0-4.9,4-9,9-9h95c5,0,9,4.1,9,9v108C402,325,398,329,393,329z"/>
<path class="st0" d="M568,329h-95c-5,0-9-4-9-9V212c0-4.9,4-9,9-9h95c5,0,9,4.1,9,9v108C577,325,573,329,568,329z"/>
<path class="st0" d="M1681.9,163h95c4.9,0,9-4.1,9-9V46c0-5-4.1-9-9-9h-95c-5,0-9,4-9,9v108C1672.9,158.9,1676.9,163,1681.9,163z"/>
<path class="st0" d="M1504.9,163h95c4.9,0,9-4.1,9-9V46c0-5-4.1-9-9-9h-95c-5,0-9,4-9,9v108C1495.9,158.9,1499.9,163,1504.9,163z"/>
<path class="st0" d="M1681.9,329h95c4.9,0,9-4,9-9V212c0-4.9-4.1-9-9-9h-95c-5,0-9,4.1-9,9v108C1672.9,325,1676.9,329,1681.9,329z"
	/>
<path class="st0" d="M1504.9,329h95c4.9,0,9-4,9-9V212c0-4.9-4.1-9-9-9h-95c-5,0-9,4.1-9,9v108C1495.9,325,1499.9,329,1504.9,329z"
	/>
<path class="st0" d="M1329.9,329h95c4.9,0,9-4,9-9V212c0-4.9-4.1-9-9-9h-95c-5,0-9,4.1-9,9v108C1320.9,325,1324.9,329,1329.9,329z"
	/>
<path class="st0" d="M314.3,117.6c-1.5-4.2-2.2-8.7-1.9-13.4c1.3-17.6,16.6-30.8,34.3-29.5c9.5,0.7,17.8,5.5,23.1,12.6"/>
<path class="st0" d="M370.5,80.3v6.5c0,0.5-0.4,0.8-0.8,0.8h-6.5"/>
<path class="st0" d="M374.3,95.5c1.5,4.2,2.2,8.7,1.9,13.4c-1.3,17.6-16.6,30.8-34.3,29.5c-9.6-0.7-17.9-5.6-23.3-12.8"/>
<path class="st0" d="M318,132.7v-6.5c0-0.5,0.4-0.8,0.8-0.8h6.5"/>
<path class="st0" d="M351.6,96.5c-1.9-1.9-4.2-3.1-7.3-3.1c-4.7,0-7.5,2.6-7.5,6c0,8.9,15.7,4.2,15.7,13.5c0,4.1-3.8,6.7-8.2,6.7
	c-4.7,0-7-2.4-8.2-4"/>
<line class="st0" x1="344.3" y1="91" x2="344.3" y2="122.1"/>
<g>
	<path class="st0" d="M151.6,106c-2.4-0.5-4.6-1.2-6.6-2.2c-0.8-0.4-1.8-0.3-2.5,0.1c-2,1.2-5,2.6-8.7,2.6c-1.7,0-2.4-2.2-1-3.2
		c1.3-0.9,2.5-1.9,3.5-2.9c0.9-1,0.9-2.4,0.1-3.5c-2.7-3.4-4.2-7.5-4.2-11.9c0-11.9,11.3-21.5,25.3-21.5c14,0,25.3,9.6,25.3,21.5
		c0,1.3-0.1,2.6-0.4,3.8"/>
	<path class="st0" d="M200.8,130.4c-0.9-1-0.9-2.4-0.1-3.5c2.7-3.4,4.2-7.5,4.2-11.9c0-11.9-11.3-21.5-25.3-21.5
		c-14,0-25.3,9.6-25.3,21.5c0,11.9,11.3,21.5,25.3,21.5c4.5,0,8.7-1,12.3-2.7c0.8-0.4,1.8-0.3,2.5,0.1c2,1.2,5,2.6,8.7,2.6
		c1.7,0,2.4-2.2,1-3.2C203,132.4,201.8,131.4,200.8,130.4z"/>
	<polyline class="st0" points="169.7,115 176.4,121.7 189.8,108.3 	"/>
	<path class="st0" d="M153,78c0.9-1,2.4-1.7,4.4-1.7c2.5,0,4.1,2,4.1,3.9c0,3.9-5.1,4.3-5.1,8.1"/>
	<path class="st0" d="M157.9,92.3c0,0.8-0.6,1.4-1.4,1.4c-0.8,0-1.4-0.6-1.4-1.4c0-0.8,0.6-1.4,1.4-1.4
		C157.2,90.9,157.9,91.6,157.9,92.3"/>
</g>
<path class="st0" d="M189.8,287.3c10.8-0.2,19.9-8.8,20.2-19.7c0.3-10.4-7.3-19-17.1-20.5c-0.4-0.1-0.7-0.4-0.9-0.7
	c-3-10.2-12.4-17.6-23.5-17.6c-11.1,0-20.5,7.4-23.5,17.6c-0.1,0.4-0.4,0.7-0.9,0.7c-9.9,1.5-17.4,10.1-17.1,20.5
	c0.3,10.9,9.4,19.4,20.2,19.7"/>
<circle class="st0" cx="168.5" cy="287.3" r="16"/>
<line class="st0" x1="164.2" y1="282" x2="164.2" y2="293.7"/>
<line class="st0" x1="172.8" y1="292.6" x2="172.8" y2="280.9"/>
<polygon class="st0" points="160,284.1 164.2,279.8 168.5,284.1 "/>
<polygon class="st0" points="177,290.5 172.8,294.7 168.5,290.5 "/>
<path class="st0" d="M487.5,285.5v-50c0-1.6,1.4-3,3-3h59c1.7,0,3,1.4,3,3v50"/>
<path class="st0" d="M546.5,278.5c0,0.5-0.5,1-1,1h-51c-0.5,0-1-0.5-1-1v-39c0-0.5,0.5-1,1-1h51c0.5,0,1,0.5,1,1V278.5z"/>
<path class="st0" d="M525.5,286.5L525.5,286.5c0,0.6-0.4,1-1,1h-8c-0.5,0-1-0.4-1-1v0c0-0.5-0.4-1-1-1h-30c-1.6,0-3,1.3-3,3v0.1
	c0,1.6,1.3,3,3,3h72.1c1.6,0,3-1.3,3-3v-0.1c0-1.6-1.3-3-3-3h-30C525.9,285.5,525.5,285.9,525.5,286.5z"/>
<path class="st0" d="M525.5,286.5L525.5,286.5c0,0.6-0.4,1-1,1h-8c-0.5,0-1-0.4-1-1v0c0-0.5-0.4-1-1-1h-30c-1.6,0-3,1.3-3,3v0.1
	c0,1.6,1.3,3,3,3h72.1c1.6,0,3-1.3,3-3v-0.1c0-1.6-1.3-3-3-3h-30C525.9,285.5,525.5,285.9,525.5,286.5z"/>
<path class="st0" d="M514.5,260.5h-8c-0.6,0-1,0.4-1,1v18h10v-18C515.5,260.9,515.1,260.5,514.5,260.5z"/>
<rect x="515.5" y="266.5" class="st0" width="10" height="13"/>
<path class="st0" d="M534.5,253.5h-8c-0.6,0-1,0.4-1,1v25h10v-25C535.5,253.9,535.1,253.5,534.5,253.5z"/>
<path class="st0" d="M367.1,300c0,2.8-2.2,5-5,5h-36c-2.8,0-5-2.2-5-5v-68c0-2.8,2.2-5,5-5h36c2.8,0,5,2.2,5,5V300z"/>
<line class="st0" x1="321.1" y1="239" x2="367.1" y2="239"/>
<line class="st0" x1="321.1" y1="293" x2="367.1" y2="293"/>
<path class="st0" d="M346.1,299c0,1.1-0.9,2-2,2c-1.1,0-2-0.9-2-2c0-1.1,0.9-2,2-2C345.2,297,346.1,297.9,346.1,299"/>
<line class="st0" x1="340.1" y1="233" x2="348.1" y2="233"/>
<path class="st0" d="M354,267.1c-0.6,5.1-5,9-10.2,8.9c-5.2-0.1-9.6-4.5-9.7-9.7c-0.1-5.3,3.8-9.7,8.9-10.2c0.6-0.1,1.1,0.4,1.1,1
	v7.9c0,0.6,0.4,1,1,1h7.9C353.6,266,354.1,266.5,354,267.1z"/>
<path class="st0" d="M358,260.9c-0.5-4.6-4.2-8.3-8.8-8.8c-0.6-0.1-1.1,0.4-1.1,1v7.9c0,0.6,0.4,1,1,1h7.9
	C357.6,262,358.1,261.5,358,260.9z"/>
<rect x="144.1" y="523.6" class="st1" width="2" height="2"/>
<rect x="140.1" y="523.6" class="st1" width="2" height="2"/>
<path class="st0" d="M1592,137.5c0,1.6-1.4,3-3,3h-72c-1.6,0-3-1.4-3-3v-72c0-1.6,1.4-3,3-3h72c1.6,0,3,1.4,3,3V137.5z"/>
<line class="st0" x1="1514" y1="72.5" x2="1592" y2="72.5"/>
<rect x="1526" y="66.5" class="st0" width="2" height="2"/>
<path class="st0" d="M1570,113c11.1-4,11.8-30.5,21-30.5"/>
<path class="st0" d="M1542,99.8c10.2,1.7,11.8,11.9,22,13.5"/>
<path class="st0" d="M1515,131.5c9.2,0,9.9-27.3,21-31.5"/>
<circle class="st0" cx="1539" cy="99.5" r="3"/>
<circle class="st0" cx="1567" cy="113.5" r="3"/>
<g>
	<path class="st0" d="M1709.4,119.1h-15c-2.2,0-4-1.8-4-4v-39c0-2.2,1.8-4,4-4h70c2.2,0,4,1.8,4,4v39c0,2.2-1.8,4-4,4h-15"/>
	<circle class="st0" cx="1729.4" cy="119.1" r="15"/>
	<polyline class="st0" points="1720.6,120.3 1726.3,126.1 1737.8,114.6 	"/>
	<polyline class="st2" points="1769.4,79.1 1769.4,87.1 1689.4,87.1 1689.4,79.1 	"/>
</g>
<polyline class="st0" points="1737.9,293 1701.4,293 1701.4,234 1733.9,234 1749.9,248.5 1749.9,274.7 "/>
<polyline class="st0" points="1733.4,235 1733.4,248.5 1748.9,248.5 "/>
<line class="st0" x1="1709.4" y1="255" x2="1725.7" y2="255"/>
<line class="st0" x1="1709.4" y1="263.5" x2="1742.2" y2="263.5"/>
<line class="st0" x1="1709.4" y1="271.5" x2="1729.9" y2="271.5"/>
<line class="st0" x1="1709.4" y1="279.5" x2="1729.9" y2="279.5"/>
<polygon class="st0" points="1749.9,279.5 1751.7,284.8 1757.3,284.8 1752.8,288.2 1754.5,293.5 1749.9,290.2 1745.4,293.5 
	1747.1,288.2 1742.6,284.8 1748.2,284.8 "/>
<g>
	<circle class="st0" cx="1378.1" cy="263.8" r="11.3"/>
	<circle class="st0" cx="1403.3" cy="239.1" r="5.7"/>
	<circle class="st0" cx="1355.2" cy="248.6" r="5.7"/>
	<circle class="st0" cx="1398.8" cy="286.3" r="7.9"/>
	<circle class="st0" cx="1360.2" cy="283" r="4"/>
	<line class="st0" x1="1386.5" y1="256.1" x2="1399.4" y2="243.1"/>
	<line class="st0" x1="1368.5" y1="257.8" x2="1360.2" y2="252.4"/>
	<line class="st0" x1="1370.4" y1="272" x2="1362.9" y2="280"/>
	<line class="st0" x1="1385.9" y1="272" x2="1394.2" y2="280"/>
</g>
<g>
	<path class="st0" d="M1584,272c0,2-2.2,3.9-2.6,5.8c-0.4,2,0.9,4.5,0.2,6.3c-0.8,1.9-3.5,2.7-4.6,4.4c-1.1,1.7-0.9,4.5-2.3,5.9
		s-4.2,1.2-5.9,2.3c-1.7,1.1-2.5,3.8-4.4,4.6c-1.8,0.8-4.3-0.6-6.3-0.2c-1.9,0.4-3.7,2.6-5.8,2.6c-2,0-3.9-2.2-5.8-2.6
		c-2-0.4-4.5,0.9-6.3,0.2c-1.9-0.8-2.7-3.5-4.4-4.6c-1.7-1.1-4.5-0.9-5.9-2.3s-1.2-4.2-2.3-5.9c-1.1-1.7-3.8-2.5-4.6-4.4
		c-0.8-1.8,0.6-4.3,0.2-6.3c-0.4-1.9-2.6-3.7-2.6-5.8c0-2,2.2-3.9,2.6-5.8c0.4-2-0.9-4.5-0.2-6.3c0.8-1.9,3.5-2.7,4.6-4.4
		c1.1-1.7,0.9-4.5,2.3-5.9c1.4-1.4,4.2-1.2,5.9-2.3c1.7-1.1,2.5-3.8,4.4-4.6c1.8-0.8,4.3,0.6,6.3,0.2c1.9-0.4,3.7-2.6,5.8-2.6
		c2,0,3.9,2.2,5.8,2.6c2,0.4,4.5-0.9,6.3-0.2c1.9,0.8,2.7,3.5,4.4,4.6c1.7,1.1,4.5,0.9,5.9,2.3c1.4,1.4,1.2,4.2,2.3,5.9
		c1.1,1.7,3.8,2.5,4.6,4.4c0.8,1.8-0.6,4.3-0.2,6.3C1581.9,268.1,1584,270,1584,272z"/>
	<circle class="st0" cx="1552.4" cy="260.6" r="4.2"/>
	<circle class="st0" cx="1552.4" cy="284.9" r="4.2"/>
	<line class="st0" x1="1565.1" y1="262.6" x2="1540.9" y2="284.9"/>
</g>
</svg>
