<?xml version="1.0" encoding="utf-8"?>
<!-- Generator: Adobe Illustrator 21.1.0, SVG Export Plug-In . SVG Version: 6.00 Build 0)  -->
<svg version="1.1" baseProfile="basic" id="Layer_1"
	 xmlns="http://www.w3.org/2000/svg" xmlns:xlink="http://www.w3.org/1999/xlink" x="0px" y="0px" viewBox="0 0 1900 575"
	 xml:space="preserve">
<style type="text/css">
	.st0{fill:#F0F1F5;}
	.st1{fill:#EAEDF2;}
	.st2{fill:#F6F7F9;}
	.st3{fill:#EDF2F6;}
	.st4{fill:#F0F1F3;}
	.st5{fill:#E5EAEE;}
	.st6{fill:#E0E5E9;}
	.st7{fill:#F7F8FC;}
	.st8{fill:#EAEEF1;}
	.st9{fill:#E1E6EC;}
	.st10{fill:#F6F6F8;}
	.st11{fill:#EEF2F5;}
	.st12{fill:#EFF0F2;}
	.st13{fill:#F9F9FB;}
	.st14{fill:#EEEFF3;}
	.st15{fill:#EBEEF3;}
	.st16{fill:#ECEDF1;}
	.st17{fill:#E1E5E8;}
	.st18{fill:#F7F8FA;}
	.st19{fill:#F3F4F6;}
	.st20{fill:#F2F3F8;}
	.st21{fill:#FEFEFE;}
	.st22{fill:#F1F2F6;}
	.st23{fill:#DEE4F0;}
	.st24{fill:#FFFFFD;}
	.st25{fill:#E9ECF1;}
</style>
<rect x="401.2" y="300.2" class="st0" width="78" height="177.7"/>
<rect x="455.9" y="300.2" class="st1" width="23.4" height="177.7"/>
<rect x="479.3" y="226.3" class="st2" width="104.6" height="251.6"/>
<rect x="479.3" y="240.4" class="st3" width="104.6" height="10.8"/>
<rect x="523.3" y="268.6" class="st4" width="14.1" height="8.3"/>
<rect x="493" y="282.7" class="st4" width="14.1" height="8.3"/>
<rect x="485.9" y="294.4" class="st4" width="14.1" height="8.3"/>
<rect x="517.5" y="332.1" class="st4" width="14.1" height="8.3"/>
<rect x="557.7" y="320.5" class="st4" width="14.1" height="8.3"/>
<rect x="563.1" y="332.1" class="st4" width="14.1" height="8.3"/>
<rect x="493" y="364.5" class="st4" width="14.1" height="8.3"/>
<rect x="485.9" y="375.7" class="st4" width="14.1" height="8.3"/>
<rect x="503.3" y="375.7" class="st4" width="14.1" height="8.3"/>
<rect x="531.6" y="405.2" class="st4" width="14.1" height="8.3"/>
<rect x="583.9" y="267" class="st5" width="84.7" height="210.9"/>
<g>
	<rect x="609.8" y="308.5" class="st6" width="33.2" height="42.8"/>
	<rect x="613.9" y="314.3" class="st0" width="24.9" height="12.5"/>
	<rect x="613.9" y="334.2" class="st0" width="24.9" height="12.5"/>
</g>
<g>
	<rect x="609.8" y="385.7" class="st6" width="33.2" height="42.8"/>
	<rect x="613.9" y="391.5" class="st0" width="24.9" height="12.5"/>
	<rect x="613.9" y="411.4" class="st0" width="24.9" height="12.5"/>
</g>
<rect x="749.9" y="157.4" class="st7" width="8.7" height="29.1"/>
<rect x="793.5" y="157.4" class="st7" width="8.7" height="29.1"/>
<rect x="668.6" y="186.4" class="st0" width="214.2" height="293.7"/>
<rect x="668.6" y="206.4" class="st5" width="214.2" height="10.8"/>
<rect x="703.4" y="251.2" class="st2" width="24.1" height="29.9"/>
<rect x="733.6" y="251.2" class="st2" width="24.1" height="29.9"/>
<rect x="763.8" y="251.2" class="st2" width="24.1" height="29.9"/>
<rect x="793.9" y="251.2" class="st2" width="24.1" height="29.9"/>
<rect x="824.1" y="251.2" class="st2" width="24.1" height="29.9"/>
<rect x="703.4" y="288.8" class="st2" width="24.1" height="29.9"/>
<rect x="733.6" y="288.8" class="st2" width="24.1" height="29.9"/>
<rect x="763.8" y="288.8" class="st2" width="24.1" height="29.9"/>
<rect x="793.9" y="288.8" class="st2" width="24.1" height="29.9"/>
<rect x="824.1" y="288.8" class="st2" width="24.1" height="29.9"/>
<rect x="703.4" y="326.5" class="st2" width="24.1" height="29.9"/>
<rect x="733.6" y="326.5" class="st2" width="24.1" height="29.9"/>
<rect x="763.8" y="326.5" class="st2" width="24.1" height="29.9"/>
<rect x="793.9" y="326.5" class="st2" width="24.1" height="29.9"/>
<rect x="824.1" y="326.5" class="st2" width="24.1" height="29.9"/>
<rect x="703.4" y="364.1" class="st2" width="24.1" height="29.9"/>
<rect x="733.6" y="364.1" class="st2" width="24.1" height="29.9"/>
<rect x="763.8" y="364.1" class="st2" width="24.1" height="29.9"/>
<rect x="793.9" y="364.1" class="st2" width="24.1" height="29.9"/>
<rect x="824.1" y="364.1" class="st2" width="24.1" height="29.9"/>
<rect x="703.4" y="401.7" class="st2" width="24.1" height="29.9"/>
<rect x="733.6" y="401.7" class="st2" width="24.1" height="29.9"/>
<rect x="763.8" y="401.7" class="st2" width="24.1" height="29.9"/>
<rect x="793.9" y="401.7" class="st2" width="24.1" height="29.9"/>
<rect x="824.1" y="401.7" class="st2" width="24.1" height="29.9"/>
<rect x="703.4" y="439.4" class="st2" width="24.1" height="29.9"/>
<rect x="733.6" y="439.4" class="st2" width="24.1" height="29.9"/>
<rect x="763.8" y="439.4" class="st2" width="24.1" height="29.9"/>
<rect x="793.9" y="439.4" class="st2" width="24.1" height="29.9"/>
<rect x="824.1" y="439.4" class="st2" width="24.1" height="29.9"/>
<rect x="882.8" y="160.7" class="st2" width="134.5" height="319.5"/>
<polygon class="st4" points="950.4,98.8 883.6,160.7 1017.2,160.7 "/>
<g>
	<rect x="915.1" y="217.2" class="st0" width="10.4" height="17.4"/>
	<rect x="935.5" y="217.2" class="st0" width="10.4" height="17.4"/>
	<rect x="955.8" y="217.2" class="st0" width="10.4" height="17.4"/>
	<rect x="976.2" y="217.2" class="st0" width="10.4" height="17.4"/>
</g>
<g>
	<rect x="915.1" y="245" class="st0" width="10.4" height="17.4"/>
	<rect x="935.5" y="245" class="st0" width="10.4" height="17.4"/>
	<rect x="955.8" y="245" class="st0" width="10.4" height="17.4"/>
	<rect x="976.2" y="245" class="st0" width="10.4" height="17.4"/>
</g>
<g>
	<rect x="915.1" y="272.8" class="st0" width="10.4" height="17.4"/>
	<rect x="935.5" y="272.8" class="st0" width="10.4" height="17.4"/>
	<rect x="955.8" y="272.8" class="st0" width="10.4" height="17.4"/>
	<rect x="976.2" y="272.8" class="st0" width="10.4" height="17.4"/>
</g>
<g>
	<rect x="915.1" y="300.6" class="st0" width="10.4" height="17.4"/>
	<rect x="935.5" y="300.6" class="st0" width="10.4" height="17.4"/>
	<rect x="955.8" y="300.6" class="st0" width="10.4" height="17.4"/>
	<rect x="976.2" y="300.6" class="st0" width="10.4" height="17.4"/>
</g>
<g>
	<rect x="915.1" y="328.4" class="st0" width="10.4" height="17.4"/>
	<rect x="935.5" y="328.4" class="st0" width="10.4" height="17.4"/>
	<rect x="955.8" y="328.4" class="st0" width="10.4" height="17.4"/>
	<rect x="976.2" y="328.4" class="st0" width="10.4" height="17.4"/>
</g>
<g>
	<rect x="915.1" y="356.2" class="st0" width="10.4" height="17.4"/>
	<rect x="935.5" y="356.2" class="st0" width="10.4" height="17.4"/>
	<rect x="955.8" y="356.2" class="st0" width="10.4" height="17.4"/>
	<rect x="976.2" y="356.2" class="st0" width="10.4" height="17.4"/>
</g>
<g>
	<rect x="915.1" y="384" class="st0" width="10.4" height="17.4"/>
	<rect x="935.5" y="384" class="st0" width="10.4" height="17.4"/>
	<rect x="955.8" y="384" class="st0" width="10.4" height="17.4"/>
	<rect x="976.2" y="384" class="st0" width="10.4" height="17.4"/>
</g>
<g>
	<rect x="915.1" y="411.8" class="st0" width="10.4" height="17.4"/>
	<rect x="935.5" y="411.8" class="st0" width="10.4" height="17.4"/>
	<rect x="955.8" y="411.8" class="st0" width="10.4" height="17.4"/>
	<rect x="976.2" y="411.8" class="st0" width="10.4" height="17.4"/>
</g>
<rect x="1017.2" y="229.6" class="st0" width="151.9" height="248.2"/>
<rect x="1017.2" y="251.2" class="st8" width="151.9" height="11.2"/>
<rect x="1046.3" y="164.9" class="st0" width="91.3" height="41.5"/>
<rect x="1035.5" y="206.4" class="st0" width="116.2" height="5.4"/>
<rect x="1044" y="211.1" class="st0" width="99.3" height="4.9"/>
<rect x="1104.1" y="216.1" class="st4" width="4.4" height="13.6"/>
<rect x="1128.8" y="216.1" class="st4" width="4.4" height="13.6"/>
<rect x="1060.7" y="216.1" class="st4" width="4.4" height="13.6"/>
<rect x="1085.3" y="216.1" class="st4" width="4.4" height="13.6"/>
<rect x="1169.2" y="264.5" class="st9" width="61.9" height="215.7"/>
<rect x="1180.8" y="268.2" class="st5" width="36.9" height="208.8"/>
<rect x="1169.2" y="255.8" class="st9" width="61.9" height="1"/>
<rect x="1176.4" y="256.8" class="st9" width="1.7" height="7.7"/>
<rect x="1185.4" y="256.8" class="st9" width="1.7" height="7.7"/>
<rect x="1194.3" y="256.8" class="st9" width="1.7" height="7.7"/>
<rect x="1203.2" y="256.8" class="st9" width="1.7" height="7.7"/>
<rect x="1212.1" y="256.8" class="st9" width="1.7" height="7.7"/>
<rect x="1221.1" y="256.8" class="st9" width="1.7" height="7.7"/>
<rect x="583.9" y="257.8" class="st10" width="84.7" height="2.2"/>
<rect x="592.5" y="260.1" class="st10" width="1.9" height="6.9"/>
<rect x="601.3" y="260.1" class="st10" width="1.9" height="6.9"/>
<rect x="610.2" y="260.1" class="st10" width="1.9" height="6.9"/>
<rect x="619" y="260.1" class="st10" width="1.9" height="6.9"/>
<rect x="627.9" y="260.1" class="st10" width="1.9" height="6.9"/>
<rect x="636.7" y="260.1" class="st10" width="1.9" height="6.9"/>
<rect x="645.6" y="260.1" class="st10" width="1.9" height="6.9"/>
<rect x="654.4" y="260.1" class="st10" width="1.9" height="6.9"/>
<rect x="1231" y="185.6" class="st2" width="153.2" height="291.4"/>
<rect x="1231" y="200.6" class="st11" width="153.2" height="11.2"/>
<g>
	<rect x="1259.9" y="245.9" class="st12" width="31.5" height="43.2"/>
	<rect x="1263.5" y="250.1" class="st13" width="24.4" height="34.6"/>
	<rect x="1263.5" y="264.5" class="st14" width="24.4" height="4.7"/>
	<rect x="1259.9" y="269.2" class="st15" width="31.5" height="4.2"/>
</g>
<g>
	<rect x="1322.2" y="245.9" class="st12" width="31.5" height="43.2"/>
	<rect x="1325.8" y="250.1" class="st13" width="24.4" height="34.6"/>
	<rect x="1325.8" y="264.5" class="st14" width="24.4" height="4.7"/>
	<rect x="1322.2" y="269.2" class="st15" width="31.5" height="4.2"/>
</g>
<g>
	<rect x="1259.9" y="323.3" class="st12" width="31.5" height="43.2"/>
	<rect x="1263.5" y="327.4" class="st13" width="24.4" height="34.6"/>
	<rect x="1263.5" y="341.8" class="st14" width="24.4" height="4.7"/>
	<rect x="1259.9" y="346.5" class="st15" width="31.5" height="4.2"/>
</g>
<g>
	<rect x="1322.2" y="323.3" class="st12" width="31.5" height="43.2"/>
	<rect x="1325.8" y="327.4" class="st13" width="24.4" height="34.6"/>
	<rect x="1325.8" y="341.8" class="st14" width="24.4" height="4.7"/>
	<rect x="1322.2" y="346.5" class="st15" width="31.5" height="4.2"/>
</g>
<rect x="1231" y="395.7" class="st0" width="153.2" height="82.2"/>
<rect x="1254.7" y="417.7" class="st1" width="103.8" height="60.2"/>
<rect x="1384.2" y="293.1" class="st0" width="113.3" height="183.9"/>
<rect x="1384.2" y="293.1" class="st15" width="17" height="184.7"/>
<rect x="1432.8" y="323.3" class="st16" width="14.9" height="8"/>
<rect x="1404.1" y="337.8" class="st16" width="14.9" height="8"/>
<rect x="1467.6" y="377" class="st16" width="14.9" height="8"/>
<rect x="1430.3" y="387.6" class="st16" width="14.9" height="8"/>
<rect x="1473.4" y="387.6" class="st16" width="14.9" height="8"/>
<rect x="1401.2" y="441.7" class="st17" width="24.9" height="14.5"/>
<rect x="1417.4" y="456.3" class="st17" width="3.7" height="20.8"/>
<rect x="1417" y="264.5" class="st18" width="48.6" height="28.6"/>
<rect x="1417" y="273.3" class="st15" width="48.6" height="5.5"/>
<rect x="1449.4" y="250.1" class="st15" width="4.2" height="12.3"/>
<rect y="477.8" class="st15" width="1900" height="18"/>
<rect y="494.5" class="st18" width="1900" height="81.7"/>
<rect x="1332.7" y="549.8" class="st19" width="288.5" height="10.8"/>
<path class="st13" d="M1629.5,503.3v-38.2c0-7.8-6.4-14.1-14.1-14.1h-283.9c-7.8,0-14.1,6.4-14.1,14.1v38.2H1629.5z"/>
<rect x="1333.1" y="464.3" class="st20" width="46.5" height="24.9"/>
<rect x="1384.6" y="464.3" class="st20" width="46.5" height="24.9"/>
<rect x="1436.1" y="464.3" class="st20" width="46.5" height="24.9"/>
<rect x="1487.6" y="464.3" class="st20" width="46.5" height="24.9"/>
<rect x="1590.9" y="522.4" class="st21" width="14.1" height="6.6"/>
<rect x="1592.4" y="463.2" class="st22" width="37.2" height="6.2"/>
<path class="st22" d="M1629.5,476.8c-0.2,0-0.4,0-0.6,0h-31.3c-3.7,0-6.6,3-6.6,6.6v19.9h38.6V476.8z"/>
<circle class="st23" cx="1555.2" cy="540.2" r="14.1"/>
<circle class="st24" cx="1555.2" cy="540.2" r="5"/>
<path class="st0" d="M1317.4,503.3v31.5c0,3.7,3,6.6,6.6,6.6h48.6c0-0.4,0-0.8,0-1.2c0-11,8.9-19.9,19.9-19.9
	c11,0,19.9,8.9,19.9,19.9c0,0.4,0,0.8,0,1.2h123c0-0.4,0-0.8,0-1.2c0-11,8.9-19.9,19.9-19.9c11,0,19.9,8.9,19.9,19.9
	c0,0.4,0,0.8,0,1.2h47.8c3.7,0,6.6-3,6.6-6.6v-31.5H1317.4z"/>
<circle class="st23" cx="1392.5" cy="540.2" r="14.1"/>
<circle class="st24" cx="1392.5" cy="540.2" r="5"/>
<path class="st13" d="M1555.6,451v-0.4c0-5.5-4.5-10-10-10h-54.8c-5.5,0-10,4.5-10,10v0.4H1555.6z"/>
<path class="st13" d="M1434.8,451v-0.4c0-5.5-4.5-10-10-10h-54.8c-5.5,0-10,4.5-10,10v0.4H1434.8z"/>
<rect x="1590.9" y="504.1" class="st25" width="37.6" height="10"/>
<rect x="277.9" y="549.8" class="st19" width="288.5" height="10.8"/>
<path class="st13" d="M574.7,503.3v-38.2c0-7.8-6.4-14.1-14.1-14.1H276.7c-7.8,0-14.1,6.4-14.1,14.1v38.2H574.7z"/>
<rect x="278.4" y="464.3" class="st20" width="46.5" height="24.9"/>
<rect x="329.8" y="464.3" class="st20" width="46.5" height="24.9"/>
<rect x="381.3" y="464.3" class="st20" width="46.5" height="24.9"/>
<rect x="432.8" y="464.3" class="st20" width="46.5" height="24.9"/>
<rect x="536.1" y="522.4" class="st21" width="14.1" height="6.6"/>
<rect x="537.6" y="463.2" class="st22" width="37.2" height="6.2"/>
<path class="st22" d="M574.7,476.8c-0.2,0-0.4,0-0.6,0h-31.3c-3.7,0-6.6,3-6.6,6.6v19.9h38.6V476.8z"/>
<circle class="st23" cx="500.4" cy="540.2" r="14.1"/>
<circle class="st24" cx="500.4" cy="540.2" r="5"/>
<path class="st0" d="M262.6,503.3v31.5c0,3.7,3,6.6,6.6,6.6h48.6c0-0.4,0-0.8,0-1.2c0-11,8.9-19.9,19.9-19.9
	c11,0,19.9,8.9,19.9,19.9c0,0.4,0,0.8,0,1.2h123c0-0.4,0-0.8,0-1.2c0-11,8.9-19.9,19.9-19.9c11,0,19.9,8.9,19.9,19.9
	c0,0.4,0,0.8,0,1.2h47.8c3.7,0,6.6-3,6.6-6.6v-31.5H262.6z"/>
<circle class="st23" cx="337.7" cy="540.2" r="14.1"/>
<circle class="st24" cx="337.7" cy="540.2" r="5"/>
<path class="st13" d="M500.9,451v-0.4c0-5.5-4.5-10-10-10h-54.8c-5.5,0-10,4.5-10,10v0.4H500.9z"/>
<path class="st13" d="M380.1,451v-0.4c0-5.5-4.5-10-10-10h-54.8c-5.5,0-10,4.5-10,10v0.4H380.1z"/>
<rect x="536.1" y="504.1" class="st25" width="37.6" height="10"/>
<rect x="1343.1" y="516.2" class="st21" width="14.1" height="6.6"/>
<rect x="1511.2" y="516.2" class="st21" width="14.1" height="6.6"/>
<rect x="290.2" y="516.2" class="st21" width="14.1" height="6.6"/>
<rect x="458.3" y="516.2" class="st21" width="14.1" height="6.6"/>
</svg>
