<?xml version="1.0" encoding="utf-8"?>
<!-- Generator: Adobe Illustrator 21.1.0, SVG Export Plug-In . SVG Version: 6.00 Build 0)  -->
<svg version="1.1" baseProfile="basic" id="Layer_1"
	 xmlns="http://www.w3.org/2000/svg" xmlns:xlink="http://www.w3.org/1999/xlink" x="0px" y="0px" viewBox="0 0 162 40"
	 xml:space="preserve">
<style type="text/css">
	.st0{fill:#FFFFFF;}
</style>
<g>
	<path class="st0" d="M20.3,12.6c-0.1,0-0.3,0.1-0.4,0.2c-0.1,0.1-0.2,0.2-0.4,0.2l-0.7,0.5c0,0-0.1,0.1-0.1,0.1
		c-0.2,0.2-0.2,0.5-0.2,0.8v0.4v3.5c0,0.2,0.2,0.4,0.4,0.4h1.4c0.2,0,0.4-0.2,0.4-0.4v-3.9v-0.8c0,0,0-0.8,0-0.8
		c0-0.2-0.2-0.2-0.3-0.2C20.4,12.6,20.4,12.6,20.3,12.6z"/>
	<path class="st0" d="M26.5,19.6c0.1,0,0.3-0.1,0.4-0.2c0.1-0.1,0.2-0.2,0.4-0.2l0.7-0.5c0.1,0,0.1-0.1,0.1-0.1
		c0.2-0.2,0.2-0.5,0.2-0.8v-0.4v-3.5c0-0.2-0.2-0.4-0.4-0.4h-1.4c-0.2,0-0.4,0.2-0.4,0.4v3.9v0.8c0,0,0,0.8,0,0.8
		c0,0.1,0.2,0.2,0.3,0.2C26.4,19.6,26.4,19.6,26.5,19.6z"/>
	<path class="st0" d="M24.5,19.8v-0.4v-7.1v-0.8c0,0,0-0.8,0-0.8c0-0.2-0.2-0.2-0.3-0.2c0,0-0.1,0-0.1,0c-0.1,0-0.3,0.1-0.4,0.2
		c-0.1,0.1-0.2,0.2-0.4,0.2l-0.7,0.5c0,0-0.1,0.1-0.2,0.1c-0.2,0.2-0.1,0.5-0.1,0.8v0.4v7.1v0.8c0,0,0,0.8,0,0.8
		c0,0.2,0.2,0.2,0.3,0.2c0,0,0.1,0,0.1,0c0.1,0,0.3-0.1,0.4-0.2c0.1-0.1,0.2-0.2,0.4-0.2l0.7-0.5c0,0,0.1-0.1,0.1-0.1
		C24.6,20.4,24.5,20,24.5,19.8z"/>
</g>
<g>
	<polygon class="st0" points="27.7,35.2 28.1,32.3 18.1,34.6 19.5,37.2 	"/>
	<path class="st0" d="M24.7,2.9c-7.5-0.8-14.2,4.7-15,12.2c-0.2,2.3,0.1,4.5,0.9,6.5c0.5,1.1,1.1,2.2,1.8,3.1
		c1.4,1.9,3.4,3.4,5.7,4.4l5.7-2.1c-0.5,0-1.1,0-1.6,0c-5.8-0.6-10-5.8-9.4-11.6c0.6-5.8,5.8-10,11.6-9.4c5.8,0.6,10,5.8,9.4,11.6
		c-0.2,1.6-0.7,3.1-1.5,4.4c-0.8,1.3-1.9,2.4-3.2,3.3c-1.9,1.4-4.7,3-9.5,4.3c-0.3,0.1-0.6,0.2-1,0.3c-0.9,0.2-1.8,0.4-2.8,0.6
		l0,0.2l1.5,2.6c0.5-0.1,1-0.2,1.1-0.2c3.9-0.8,7.9-1.6,11.2-3.8c1-0.6,1.9-1.4,2.7-2.2c1-1.1,2-2.3,2.8-3.5
		c0.5-0.8,0.9-1.7,1.2-2.6c0,0,0,0,0,0c0.3-0.9,0.5-1.9,0.6-2.9C37.7,10.4,32.3,3.7,24.7,2.9z"/>
</g>
<g>
	<path class="st0" d="M41.8,4.3h4.9v26.1h-4.9V4.3z"/>
	<path class="st0" d="M55.9,14.8h0.3c0.6-0.9,1.3-1.6,2.3-2.1c0.9-0.5,2-0.8,3.2-0.8c1.1,0,2.1,0.2,2.9,0.5c0.8,0.4,1.5,0.9,2.1,1.5
		c0.5,0.7,1,1.5,1.2,2.4s0.4,2,0.4,3.1v10.8h-4.8V20.1c0-1.3-0.3-2.2-0.9-2.9c-0.6-0.6-1.4-0.9-2.5-0.9c-0.7,0-1.2,0.1-1.7,0.4
		c-0.5,0.3-0.9,0.7-1.3,1.1c-0.4,0.5-0.6,1-0.8,1.7c-0.2,0.6-0.3,1.3-0.3,2.1v8.7h-4.8V12.5h4.5V14.8z"/>
	<path class="st0" d="M79.2,30.9c-1.2,0-2.2-0.1-3.1-0.4c-0.9-0.3-1.7-0.7-2.4-1.1c-0.7-0.5-1.2-1-1.7-1.6c-0.5-0.6-0.8-1.2-1.1-1.9
		l4.3-1.8c0.4,0.9,1,1.6,1.7,2.1s1.5,0.7,2.3,0.7c0.9,0,1.6-0.2,2.1-0.5c0.5-0.3,0.8-0.7,0.8-1.1c0-0.5-0.2-0.9-0.6-1.2
		c-0.4-0.3-1.2-0.6-2.2-0.8l-2.5-0.5c-0.6-0.1-1.1-0.3-1.7-0.6c-0.6-0.3-1.1-0.6-1.6-1s-0.9-0.9-1.2-1.5c-0.3-0.6-0.5-1.3-0.5-2
		c0-0.9,0.2-1.6,0.6-2.3c0.4-0.7,0.9-1.3,1.5-1.7c0.7-0.5,1.4-0.8,2.3-1.1c0.9-0.3,1.8-0.4,2.9-0.4c1.7,0,3.2,0.3,4.6,1
		c1.3,0.7,2.3,1.7,2.9,3.2l-4.1,1.7c-0.3-0.7-0.8-1.2-1.5-1.5c-0.7-0.3-1.3-0.5-2-0.5c-0.7,0-1.3,0.1-1.8,0.4s-0.8,0.6-0.8,1.1
		c0,0.4,0.2,0.7,0.6,1c0.4,0.2,1,0.5,1.7,0.7l2.7,0.7c1.8,0.4,3.2,1.1,4.1,2.1c0.9,1,1.3,2.1,1.3,3.4c0,0.8-0.2,1.5-0.5,2.2
		c-0.4,0.7-0.9,1.3-1.5,1.9c-0.7,0.5-1.5,1-2.4,1.3C81.3,30.7,80.3,30.9,79.2,30.9z"/>
	<path class="st0" d="M92.1,10.1c-0.4,0-0.8-0.1-1.2-0.2c-0.4-0.2-0.7-0.4-1-0.7c-0.3-0.3-0.5-0.6-0.7-1c-0.2-0.4-0.2-0.8-0.2-1.2
		c0-0.4,0.1-0.8,0.2-1.2c0.2-0.4,0.4-0.7,0.7-1c0.3-0.3,0.6-0.5,1-0.7C91.3,4,91.7,4,92.1,4c0.8,0,1.6,0.3,2.2,0.9
		c0.6,0.6,0.9,1.3,0.9,2.2c0,0.9-0.3,1.6-0.9,2.2C93.7,9.8,93,10.1,92.1,10.1z M89.8,30.3V12.5h4.8v17.8H89.8z"/>
	<path class="st0" d="M107,38.8c-1.3,0-2.4-0.2-3.4-0.5c-1-0.3-1.8-0.8-2.6-1.3c-0.7-0.5-1.3-1.1-1.8-1.7c-0.5-0.6-0.8-1.3-1.1-1.9
		l4.5-1.8c0.3,0.9,0.9,1.7,1.7,2.2c0.8,0.5,1.6,0.8,2.6,0.8c1.5,0,2.7-0.5,3.6-1.5c0.9-1,1.3-2.3,1.3-4v-1.2h-0.3
		c-0.6,0.8-1.3,1.4-2.2,1.8c-0.9,0.5-2,0.7-3.2,0.7c-1.1,0-2.1-0.2-3.1-0.6c-1-0.4-1.9-1.1-2.7-1.9c-0.8-0.8-1.4-1.8-1.9-2.9
		c-0.5-1.1-0.7-2.4-0.7-3.8c0-1.4,0.2-2.7,0.7-3.8s1.1-2.1,1.9-2.9c0.8-0.8,1.7-1.4,2.7-1.9s2-0.6,3.1-0.6c1.2,0,2.3,0.2,3.2,0.7
		c0.9,0.4,1.6,1.1,2.2,1.8h0.3v-1.9h4.5V29c0,1.5-0.2,2.9-0.7,4.1s-1.1,2.2-1.9,3.1c-0.8,0.8-1.8,1.5-3,1.9S108.4,38.8,107,38.8z
		 M107.1,26c0.6,0,1.2-0.1,1.7-0.3s1.1-0.5,1.5-0.9c0.4-0.4,0.8-0.9,1.1-1.5c0.3-0.6,0.4-1.3,0.4-2.1c0-0.8-0.1-1.5-0.4-2.1
		c-0.3-0.6-0.6-1.1-1.1-1.6c-0.4-0.4-0.9-0.7-1.5-0.9s-1.1-0.3-1.7-0.3c-0.6,0-1.2,0.1-1.7,0.3c-0.6,0.2-1.1,0.5-1.5,1
		c-0.4,0.4-0.8,0.9-1.1,1.6c-0.3,0.6-0.4,1.3-0.4,2.1c0,0.8,0.1,1.5,0.4,2.1c0.3,0.6,0.6,1.1,1.1,1.5c0.4,0.4,0.9,0.7,1.5,0.9
		C106,25.9,106.6,26,107.1,26z"/>
	<path class="st0" d="M120.5,4.3h4.8v7.3l-0.3,3.2h0.3c0.5-0.8,1.2-1.5,2.2-2.1c1-0.5,2-0.8,3.2-0.8c2.3,0,4,0.7,5.1,2
		c1.1,1.4,1.7,3.2,1.7,5.6v10.8h-4.8V20.1c0-1.2-0.3-2.2-0.9-2.8c-0.6-0.6-1.4-1-2.4-1c-0.7,0-1.2,0.1-1.7,0.4
		c-0.5,0.3-0.9,0.7-1.3,1.1s-0.6,1-0.8,1.7c-0.2,0.6-0.3,1.3-0.3,2.1v8.7h-4.8V4.3z"/>
	<path class="st0" d="M142.4,16.6h-3.1v-4.1h3.1V7h4.8v5.5h4.4v4.1h-4.4v7.1c0,0.4,0,0.8,0.1,1.2c0.1,0.4,0.2,0.7,0.5,0.9
		c0.3,0.4,0.8,0.6,1.5,0.6c0.4,0,0.7,0,1-0.1c0.2-0.1,0.5-0.2,0.7-0.3l1.3,4.2c-0.6,0.3-1.2,0.5-1.8,0.6s-1.4,0.2-2.1,0.2
		c-0.9,0-1.7-0.1-2.4-0.4c-0.7-0.3-1.3-0.7-1.8-1.2c-1.1-1.1-1.7-2.7-1.7-4.8V16.6z"/>
</g>
</svg>
