<?xml version="1.0" encoding="utf-8"?>
<!-- Generator: Adobe Illustrator 21.1.0, SVG Export Plug-In . SVG Version: 6.00 Build 0)  -->
<svg version="1.1" id="Layer_1" xmlns="http://www.w3.org/2000/svg" xmlns:xlink="http://www.w3.org/1999/xlink" x="0px" y="0px"
	 viewBox="0 0 652 385" style="enable-background:new 0 0 652 385;" xml:space="preserve">
<style type="text/css">
	.st0{opacity:0.36;fill:#3070EC;}
	.st1{fill:none;stroke:#868B9C;stroke-linecap:round;stroke-linejoin:round;stroke-miterlimit:10;}
	.st2{fill:none;stroke:#868B9C;stroke-width:2;stroke-linecap:round;stroke-linejoin:round;stroke-miterlimit:10;}
	.st3{opacity:0.4;fill:none;stroke:#FFFFFF;stroke-width:2;stroke-miterlimit:10;}
	.st4{fill:#E4E5E8;}
	.st5{fill:#D2E1F8;}
	.st6{fill:#E4E5E9;stroke:#868B9C;stroke-width:2;stroke-miterlimit:10;}
	.st7{fill:#9EB9EC;}
	.st8{fill:none;stroke:#FFFFFF;stroke-width:2;stroke-miterlimit:10;}
	.st9{fill:#FFFFFF;}
	.st10{fill:#A0BBEE;}
	.st11{fill:#FEFFFF;}
	.st12{fill:#FFFFFF;stroke:#FFFFFF;stroke-width:2;stroke-miterlimit:10;}
	.st13{fill:#9FBBEB;}
	.st14{fill:#868B9C;stroke:#868B9C;stroke-width:2;stroke-miterlimit:10;}
	.st15{fill:none;stroke:#868B9C;stroke-width:2;stroke-miterlimit:10;}
	.st16{fill:none;stroke:#A0BAEA;stroke-width:3;stroke-linecap:round;stroke-linejoin:round;stroke-miterlimit:10;}
	.st17{opacity:0.1;fill:#231F20;}
	.st18{fill:#78A2DE;}
	.st19{fill:#9DBCE8;}
	.st20{opacity:0.2;}
	.st21{fill:#169172;}
	.st22{fill:#009873;}
	.st23{fill:#FFDEEF;}
	.st24{fill:#E46590;}
	.st25{fill:#E88B22;}
	.st26{fill:#E6E5EA;}
	.st27{fill:#80C045;}
	.st28{fill:#36AC58;}
</style>
<g>
	<path class="st0" d="M30.7,213.9c0,0,19.7,7.3,25,46.5s27.7,72.7,90.3,72.7s93.4,23.1,97.7,26.5c4.3,3.5,57,11.5,125.9,0
		s44.7-18.5,119.4-27.7c74.7-9.2,55.1-24.4,66.7-42.2c11.6-17.8,144.8-78.4,62.6-142.7c0,0-47.1-27.4-100.5-7.8
		c-53.4,19.6-151.8-79.6-172.3-103.8c-20.6-24.2-106.9-40.4-159,30c0,0-19,20.3-52.5,29.2c-33.5,8.9-11.2,33.8-56.8,57.1
		C31.6,175-0.6,168.5,30.7,213.9z"/>
	<line class="st1" x1="269.4" y1="65.4" x2="428" y2="65.4"/>
	<line class="st1" x1="436.1" y1="65.4" x2="449.4" y2="65.4"/>
	<g>
		<line class="st2" x1="428" y1="168.1" x2="428" y2="173.3"/>
		<line class="st2" x1="449.4" y1="168.1" x2="449.4" y2="173.3"/>
		<line class="st2" x1="439" y1="164.7" x2="439" y2="175.6"/>
	</g>
	<path class="st3" d="M361.1,148.5v88c0,0-2.9,22.2,30,23.4h105.6c0,0,26,3.5,24.8,30.6c0,0-1.7,21.3-27.7,24.8H392.3"/>
	<path class="st4" d="M469,194.7v-11c0,0,0,11-7.5,11.5h-46.7l-28.3-64l-50.2,2.4l-26.6,60.4h-49.6c0,0-8.1,1.2-8.1-6.9v7.5
		c0,1.2,0.2,2.3,0.7,3.4c1.4,2.1,3.8,4.1,8,5.3H321h139.4C465.1,203.3,469,199.4,469,194.7z"/>
	<path class="st5" d="M392.9,227.8c0,4.8-2.6,8.7-5.9,8.7h-50.7c-3.2,0-5.9-3.9-5.9-8.7l14.4-96.6c0-4.8,2.6-8.7,5.9-8.7h21.8
		c3.2,0,5.9,3.9,5.9,8.7L392.9,227.8z"/>
	<circle class="st6" cx="361.1" cy="148.5" r="11.5"/>
	<rect x="369.8" y="307.7" class="st7" width="21.9" height="13.8"/>
	<line class="st8" x1="376.7" y1="314.7" x2="385.9" y2="314.7"/>
	<rect x="131.5" y="122.5" class="st9" width="26" height="113.9"/>
	<rect x="131.5" y="192.4" class="st7" width="26" height="43.5"/>
	<g>
		<polygon class="st10" points="608.6,234 544.8,234 548.3,225.5 604.3,225.5 		"/>
		<circle class="st10" cx="625" cy="147.6" r="7.8"/>
		<circle class="st11" cx="625" cy="147.6" r="3.2"/>
		<polygon class="st10" points="618.8,152.3 574.6,225.5 584.1,225.5 625,155.4 		"/>
		<line class="st12" x1="610" y1="155.4" x2="625" y2="163.7"/>
		<polygon class="st10" points="617.2,147.6 574.6,122.8 576.6,115.3 620.8,141.1 		"/>
		<path class="st13" d="M521.5,101.8l25.9,47.3c0,0,39.5-26,27.1-45.9C574.6,103.2,565.7,86.2,521.5,101.8z"/>
		<path class="st9" d="M560.5,138.7C560.5,138.7,560.5,138.7,560.5,138.7l9.3-10l-20.5-33.4c-0.7,0-1.4,0.1-2.1,0.2l-10.4,1.8l0,0
			L560.5,138.7z"/>
		<path class="st9" d="M531,119c-0.1-0.2-2.8,2.2-3,2.4c-1.5,1.3-2.9,2.7-3.4,4.7c-0.7,3.2,2.1,4.9,4.8,5.5c1.9,0.4,3.9,0.6,5.8,0.8
			c0.4,0,3.2,0.1,3.3,0.4C538.5,132.8,531,119,531,119z"/>
		<circle class="st14" cx="577" cy="102.7" r="5.1"/>
		<line class="st15" x1="571.9" y1="95.2" x2="582.1" y2="110.7"/>
	</g>
	<g>
		<line class="st16" x1="100" y1="235.8" x2="577.5" y2="235.8"/>
		<line class="st16" x1="585.2" y1="235.8" x2="608.6" y2="235.8"/>
		<line class="st16" x1="57" y1="235.8" x2="91.6" y2="235.8"/>
	</g>
	<g>
		<polygon class="st11" points="235.6,188.4 194.8,188.4 197.3,180.1 233.6,180.1 		"/>
		<path class="st7" d="M238.1,190.7c0,1.3-1,2.3-2.3,2.3H194c-1.3,0-2.3-1-2.3-2.3l0,0c0-1.3,1-2.3,2.3-2.3h41.7
			C237,188.4,238.1,189.4,238.1,190.7L238.1,190.7z"/>
		<polygon class="st7" points="228.1,235.5 202.3,235.5 197.3,193 233.3,193 		"/>
		<path class="st11" d="M232,203h-12.2c-4.8,0-8.7,3.9-8.7,8.7v3.8c0,4.8,3.9,8.7,8.7,8.7h9.4L232,203z"/>
		<line class="st2" x1="231.1" y1="209.9" x2="220.8" y2="209.9"/>
		<line class="st2" x1="230.1" y1="217.5" x2="223.4" y2="217.5"/>
		<polygon class="st17" points="232.6,195.4 233.3,193 197.3,193 197.9,195.4 		"/>
	</g>
	<path class="st16" d="M401.3,334.3c0,1-0.8,1.7-1.7,1.7h-37.3c-1,0-1.7-0.8-1.7-1.7v-37.3c0-1,0.8-1.7,1.7-1.7h37.3
		c1,0,1.7,0.8,1.7,1.7V334.3z"/>
	<g>
		<rect x="490.1" y="190.2" class="st11" width="44.6" height="9.8"/>
		<path class="st7" d="M495.5,200v15.9c-0.5,2,0.5,7.8,0.5,7.8c2.6,7.9,7.6,10.8,16.4,10.8c8.6,0,15-2.8,16-10.8l0,0V200H495.5z"/>
		<polygon class="st7" points="503.8,190.2 496.1,190.2 496.1,175.4 496.1,168.4 503.8,168.4 		"/>
		<line class="st8" x1="496.1" y1="175.4" x2="503.8" y2="175.4"/>
		<polygon class="st7" points="513.8,169.3 507.1,190.2 514.8,190.2 520.7,171.3 		"/>
		<line class="st8" x1="511.9" y1="176.7" x2="518.4" y2="178.7"/>
		<line class="st8" x1="517" y1="170.2" x2="519.8" y2="163.5"/>
		<polygon class="st7" points="528.4,164.3 526.9,172.9 523.8,190.2 530.3,190.2 534.8,165.8 		"/>
		<line class="st8" x1="526.9" y1="172.9" x2="533.2" y2="174.5"/>
		<line class="st12" x1="524.4" y1="204.5" x2="524.4" y2="217.3"/>
		<line class="st12" x1="524.4" y1="221.2" x2="524.4" y2="226.1"/>
	</g>
	<path class="st18" d="M460.3,55.1H260.7c-4.8,0-8.7,3.9-8.7,8.7v124.7H469V63.7C469,58.9,465.1,55.1,460.3,55.1z"/>
	<rect x="258.5" y="63.2" class="st11" width="204.2" height="116.6"/>
	<path class="st19" d="M252.1,194.7c0,4.8,3.9,8.7,8.7,8.7h199.6c4.8,0,8.7-3.9,8.7-8.7v-6.3H252.1V194.7z"/>
	<rect x="495.5" y="200" class="st20" width="32.9" height="3.3"/>
	<path class="st21" d="M324.1,95.2h-30.7c-2.4,0-4.3-2-4.3-4.3v-1.7c0-2.4,2-4.3,4.3-4.3h30.7c2.4,0,4.3,2,4.3,4.3v1.7
		C328.5,93.3,326.5,95.2,324.1,95.2z"/>
	<path class="st22" d="M320.1,110.7h-35.1c-0.7,0-1.2-0.5-1.2-1.2V109c0-0.7,0.5-1.2,1.2-1.2h35.1c0.7,0,1.2,0.5,1.2,1.2v0.5
		C321.4,110.2,320.8,110.7,320.1,110.7z"/>
	<path class="st23" d="M329.8,125.9h-49.3c-1,0-1.8-0.8-1.8-1.8v-0.7c0-1,0.8-1.8,1.8-1.8h49.3c1,0,1.8,0.8,1.8,1.8v0.7
		C331.6,125.1,330.8,125.9,329.8,125.9z"/>
	<path class="st24" d="M420.3,107.8h-48.5c-1.1,0-2-0.9-2-2V105c0-1.1,0.9-2,2-2h48.5c1.1,0,2,0.9,2,2v0.8
		C422.3,106.9,421.4,107.8,420.3,107.8z"/>
	<path class="st25" d="M411.2,125.9h-39.6c-1,0-1.8-0.8-1.8-1.8v-0.7c0-1,0.8-1.8,1.8-1.8h39.6c1,0,1.8,0.8,1.8,1.8v0.7
		C413.1,125.1,412.3,125.9,411.2,125.9z"/>
	<path class="st26" d="M400.2,148.5h-38.9c-2,0-3.6-1.6-3.6-3.6v-1.4c0-2,1.6-3.6,3.6-3.6h38.9c2,0,3.6,1.6,3.6,3.6v1.4
		C403.9,146.9,402.2,148.5,400.2,148.5z"/>
	<path class="st27" d="M346.4,144.2h-30.3c-1.2,0-2.3-1-2.3-2.3V141c0-1.2,1-2.3,2.3-2.3h30.3c1.2,0,2.3,1,2.3,2.3v0.9
		C348.7,143.2,347.7,144.2,346.4,144.2z"/>
	<path class="st28" d="M313.6,147.6h-32.3c-1.4,0-2.6-1.2-2.6-2.6v-1c0-1.4,1.2-2.6,2.6-2.6h32.3c1.4,0,2.6,1.2,2.6,2.6v1
		C316.2,146.5,315,147.6,313.6,147.6z"/>
	<path class="st26" d="M336.1,163.5h-45.6c-0.8,0-1.4-0.7-1.4-1.4v-0.6c0-0.8,0.7-1.4,1.4-1.4h45.6c0.8,0,1.4,0.7,1.4,1.4v0.6
		C337.5,162.9,336.9,163.5,336.1,163.5z"/>
	<path class="st11" d="M410.4,174.5h-27.1c-1.5,0-2.7-1.2-2.7-2.7v-1c0-1.5,1.2-2.7,2.7-2.7h27.1c1.5,0,2.7,1.2,2.7,2.7v1
		C413.1,173.3,411.9,174.5,410.4,174.5z"/>
	<path class="st26" d="M415.1,82h-50.9c-1.7,0-3.1-1.4-3.1-3.1v-1.2c0-1.7,1.4-3.1,3.1-3.1h50.9c1.7,0,3.1,1.4,3.1,3.1v1.2
		C418.3,80.5,416.9,82,415.1,82z"/>
	<path class="st26" d="M421.1,92.9h-39.2c-0.7,0-1.2-0.5-1.2-1.2v-0.5c0-0.7,0.5-1.2,1.2-1.2h39.2c0.7,0,1.2,0.5,1.2,1.2v0.5
		C422.3,92.4,421.8,92.9,421.1,92.9z"/>
	<path class="st26" d="M439.4,141.5h-21.6c-1,0-1.9-0.8-1.9-1.9v-0.7c0-1,0.8-1.9,1.9-1.9h21.6c1,0,1.9,0.8,1.9,1.9v0.7
		C441.3,140.6,440.4,141.5,439.4,141.5z"/>
	<path class="st26" d="M440.8,164.3h-22.8c-1.1,0-2-0.9-2-2v-0.8c0-1.1,0.9-2,2-2h22.8c1.1,0,2,0.9,2,2v0.8
		C442.7,163.4,441.9,164.3,440.8,164.3z"/>
	<path class="st26" d="M389.9,166.8h-38.1c-1.7,0-3-1.4-3-3v-1.2c0-1.7,1.4-3,3-3h38.1c1.7,0,3,1.4,3,3v1.2
		C392.9,165.5,391.5,166.8,389.9,166.8z"/>
	<path class="st26" d="M338.6,166.8h-23.2c-1.2,0-2.1-1-2.1-2.1v-0.8c0-1.2,1-2.1,2.1-2.1h23.2c1.2,0,2.1,1,2.1,2.1v0.8
		C340.7,165.9,339.7,166.8,338.6,166.8z"/>
</g>
</svg>
