<?xml version="1.0" encoding="utf-8"?>
<!-- Generator: Adobe Illustrator 21.1.0, SVG Export Plug-In . SVG Version: 6.00 Build 0)  -->
<svg version="1.1" id="Layer_1" xmlns="http://www.w3.org/2000/svg" xmlns:xlink="http://www.w3.org/1999/xlink" x="0px" y="0px"
	 viewBox="0 0 662 477" style="enable-background:new 0 0 662 477;" xml:space="preserve">
<style type="text/css">
	.st0{opacity:0.36;fill:#3070EC;}
	.st1{opacity:0.4;fill:none;stroke:#FFFFFF;stroke-width:2;stroke-miterlimit:10;}
	.st2{fill:#9EB9EC;}
	.st3{fill:none;stroke:#FFFFFF;stroke-width:2;stroke-miterlimit:10;}
	.st4{fill:#FFFFFF;}
	.st5{fill:none;stroke:#A0BAEA;stroke-width:3;stroke-linecap:round;stroke-linejoin:round;stroke-miterlimit:10;}
	.st6{fill:#FEFFFF;}
	.st7{fill:none;stroke:#868B9C;stroke-width:2;stroke-linecap:round;stroke-linejoin:round;stroke-miterlimit:10;}
	.st8{opacity:0.1;fill:#231F20;}
	.st9{fill:#A0BBEE;}
	.st10{fill:#FFFFFF;stroke:#FFFFFF;stroke-width:2;stroke-miterlimit:10;}
	.st11{fill:#9FBBEB;}
	.st12{fill:#868B9C;stroke:#868B9C;stroke-width:2;stroke-miterlimit:10;}
	.st13{fill:none;stroke:#868B9C;stroke-width:2;stroke-miterlimit:10;}
	.st14{opacity:0.2;}
	.st15{fill:none;stroke:#868B9C;stroke-linecap:round;stroke-linejoin:round;stroke-miterlimit:10;}
	.st16{fill:#E4E5E8;}
	.st17{fill:#D2E1F8;}
	.st18{fill:#E4E5E9;stroke:#868B9C;stroke-width:2;stroke-miterlimit:10;}
	.st19{fill:#78A2DE;}
	.st20{fill:#9DBCE8;}
	.st21{fill:#169172;}
	.st22{fill:#009873;}
	.st23{fill:#FFDEEF;}
	.st24{fill:#E46590;}
	.st25{fill:#E88B22;}
	.st26{fill:#E6E5EA;}
	.st27{fill:#80C045;}
	.st28{fill:#36AC58;}
	.st29{opacity:0.13;}
	.st30{fill:none;stroke:#FFFFFF;stroke-miterlimit:10;}
	.st31{fill:#618FC6;}
	.st32{fill:none;stroke:#FFFFFF;stroke-linecap:round;stroke-linejoin:round;stroke-miterlimit:10;}
	.st33{fill:#EAF2E9;}
	.st34{fill:#C2E7C7;stroke:#FFFFFF;stroke-linecap:square;stroke-linejoin:round;stroke-miterlimit:10;}
	.st35{fill:#C2E7C7;stroke:#39855A;stroke-linecap:square;stroke-linejoin:round;stroke-miterlimit:10;}
	.st36{fill:#ABD3AF;stroke:#39855A;stroke-linecap:square;stroke-linejoin:round;stroke-miterlimit:10;}
	.st37{fill:#7EB18E;}
	.st38{fill:#B6D8B9;}
	.st39{fill:none;stroke:#EAF2E9;stroke-miterlimit:10;}
	.st40{opacity:0.21;}
	.st41{fill:#FFFFFF;stroke:#FFFFFF;stroke-width:2;stroke-linecap:round;stroke-linejoin:round;stroke-miterlimit:10;}
	.st42{fill:#78A2DE;stroke:#78A2DE;stroke-miterlimit:10;}
</style>
<path class="st0" d="M16.7,256.5c0,0,5.3,32.7,10.7,87.4S8.7,463.4,72.4,463.4s156.8-8.6,161.2-3.8c4.4,4.8,58.1,16.1,128.2,0
	c70.1-16.1,135.8,15.6,211.8,2.7s48-64.8,53.5-87.9c6.4-26.9,71.6-121.4-12.2-211.1c0,0-47.9-38.2-102.3-10.9
	c-54.3,27.3-89.1-35.7-110-69.5c-11.2-18.1-22.7-30.7-44.5-32c-18.5-1.1-37.4,4.1-55.1,9.3c-14.3,4.2-28.4,9.1-42.4,14.4
	c-22.6,8.4-36.8,18.5-61.6,15.9c-25.8-2.7-51.8-9.5-77.2-0.3c-34.1,12.4-11.4,47.1-57.8,79.6C17.6,202.4-15.1,193.2,16.7,256.5z"/>
<path class="st1" d="M186.9-354.5v88c0,0-2.9,22.2,30,23.4h105.6c0,0,26,3.5,24.8,30.6c0,0-1.7,21.3-27.7,24.8H218.1"/>
<rect x="195.6" y="-195.2" class="st2" width="21.9" height="13.8"/>
<line class="st3" x1="202.5" y1="-188.3" x2="211.8" y2="-188.3"/>
<rect x="-42.7" y="-380.4" class="st4" width="26" height="113.9"/>
<rect x="-42.7" y="-310.6" class="st2" width="26" height="43.5"/>
<g>
	<line class="st5" x1="-74.2" y1="-267.2" x2="403.3" y2="-267.2"/>
	<line class="st5" x1="411.1" y1="-267.2" x2="434.4" y2="-267.2"/>
	<line class="st5" x1="-117.2" y1="-267.2" x2="-82.6" y2="-267.2"/>
</g>
<g>
	<polygon class="st6" points="61.4,-314.6 20.6,-314.6 23.1,-322.9 59.5,-322.9 	"/>
	<path class="st2" d="M63.9-312.3c0,1.3-1,2.3-2.3,2.3H19.9c-1.3,0-2.3-1-2.3-2.3l0,0c0-1.3,1-2.3,2.3-2.3h41.7
		C62.9-314.6,63.9-313.6,63.9-312.3L63.9-312.3z"/>
	<polygon class="st2" points="53.9,-267.5 28.1,-267.5 23.1,-310 59.1,-310 	"/>
	<path class="st6" d="M57.8-300H45.6c-4.8,0-8.7,3.9-8.7,8.7v3.8c0,4.8,3.9,8.7,8.7,8.7h9.4L57.8-300z"/>
	<line class="st7" x1="56.9" y1="-293.1" x2="46.6" y2="-293.1"/>
	<line class="st7" x1="55.9" y1="-285.5" x2="49.3" y2="-285.5"/>
	<polygon class="st8" points="58.5,-307.6 59.1,-310 23.1,-310 23.7,-307.6 	"/>
</g>
<path class="st5" d="M227.1-168.6c0,1-0.8,1.7-1.7,1.7h-37.3c-1,0-1.7-0.8-1.7-1.7v-37.3c0-1,0.8-1.7,1.7-1.7h37.3
	c1,0,1.7,0.8,1.7,1.7V-168.6z"/>
<g>
	<g>
		<polygon class="st9" points="434.4,-269 370.7,-269 374.1,-277.5 430.1,-277.5 		"/>
		<circle class="st9" cx="450.9" cy="-355.3" r="7.8"/>
		<circle class="st6" cx="450.9" cy="-355.3" r="3.2"/>
		<polygon class="st9" points="444.6,-350.7 400.4,-277.5 409.9,-277.5 450.9,-347.5 		"/>
		<line class="st10" x1="435.9" y1="-347.5" x2="450.9" y2="-339.3"/>
		<polygon class="st9" points="443.1,-355.3 400.4,-380.1 402.4,-387.6 446.6,-361.9 		"/>
		<path class="st11" d="M347.4-401.2l25.9,47.3c0,0,39.5-26,27.1-45.9C400.4-399.8,391.5-416.8,347.4-401.2z"/>
		<path class="st4" d="M386.3-364.2C386.3-364.2,386.3-364.2,386.3-364.2l9.3-10l-20.5-33.4c-0.7,0-1.4,0.1-2.1,0.2l-10.4,1.8l0,0
			L386.3-364.2z"/>
		<path class="st4" d="M356.8-384c-0.1-0.2-2.8,2.2-3,2.4c-1.5,1.3-2.9,2.7-3.4,4.7c-0.7,3.2,2.1,4.9,4.8,5.5
			c1.9,0.4,3.9,0.6,5.8,0.8c0.4,0,3.2,0.1,3.3,0.4C364.4-370.2,356.8-384,356.8-384z"/>
		<circle class="st12" cx="402.8" cy="-400.3" r="5.1"/>
		<line class="st13" x1="397.7" y1="-407.8" x2="407.9" y2="-392.3"/>
	</g>
	<g>
		<rect x="316" y="-312.7" class="st6" width="44.6" height="9.8"/>
		<path class="st2" d="M321.4-302.9v15.9c-0.5,2,0.5,7.8,0.5,7.8c2.6,7.9,7.6,10.8,16.4,10.8c8.6,0,15-2.8,16-10.8l0,0v-23.7H321.4z
			"/>
		<polygon class="st2" points="329.6,-312.7 321.9,-312.7 321.9,-327.5 321.9,-334.6 329.6,-334.6 		"/>
		<line class="st3" x1="321.9" y1="-327.5" x2="329.6" y2="-327.5"/>
		<polygon class="st2" points="339.6,-333.7 332.9,-312.7 340.6,-312.7 346.6,-331.7 		"/>
		<line class="st3" x1="337.7" y1="-326.3" x2="344.2" y2="-324.3"/>
		<line class="st3" x1="342.8" y1="-332.8" x2="345.6" y2="-339.5"/>
		<polygon class="st2" points="354.2,-338.7 352.7,-330.1 349.6,-312.7 356.2,-312.7 360.6,-337.2 		"/>
		<line class="st3" x1="352.7" y1="-330.1" x2="359" y2="-328.5"/>
		<line class="st10" x1="350.3" y1="-298.5" x2="350.3" y2="-285.7"/>
		<line class="st10" x1="350.3" y1="-281.8" x2="350.3" y2="-276.9"/>
	</g>
	<rect x="321.4" y="-302.9" class="st14" width="32.9" height="3.3"/>
</g>
<g>
	<line class="st15" x1="95.2" y1="-437.5" x2="253.9" y2="-437.5"/>
	<line class="st15" x1="261.9" y1="-437.5" x2="275.2" y2="-437.5"/>
	<g>
		<line class="st7" x1="253.9" y1="-334.9" x2="253.9" y2="-329.7"/>
		<line class="st7" x1="275.2" y1="-334.9" x2="275.2" y2="-329.7"/>
		<line class="st7" x1="264.8" y1="-338.3" x2="264.8" y2="-327.4"/>
	</g>
	<path class="st16" d="M294.8-308.3v-11c0,0,0,11-7.5,11.5h-46.7l-28.3-64l-50.2,2.4l-26.6,60.4H86c0,0-8.1,1.2-8.1-6.9v7.5
		c0,1.2,0.2,2.3,0.7,3.4c1.4,2.1,3.8,4.1,8,5.3h60.2h139.4C291-299.7,294.8-303.5,294.8-308.3z"/>
	<path class="st17" d="M218.7-275.1c0,4.8-2.6,8.7-5.9,8.7h-50.7c-3.2,0-5.9-3.9-5.9-8.7l14.4-96.6c0-4.8,2.6-8.7,5.9-8.7h21.8
		c3.2,0,5.9,3.9,5.9,8.7L218.7-275.1z"/>
	<circle class="st18" cx="186.9" cy="-354.5" r="11.5"/>
	<path class="st19" d="M286.2-447.9H86.6c-4.8,0-8.7,3.9-8.7,8.7v124.7h216.9v-124.7C294.8-444.1,291-447.9,286.2-447.9z"/>
	<rect x="84.3" y="-439.8" class="st6" width="204.2" height="116.6"/>
	<path class="st20" d="M77.9-308.3c0,4.8,3.9,8.7,8.7,8.7h199.6c4.8,0,8.7-3.9,8.7-8.7v-6.3H77.9V-308.3z"/>
	<path class="st21" d="M150-407.8h-30.7c-2.4,0-4.3-2-4.3-4.3v-1.7c0-2.4,2-4.3,4.3-4.3H150c2.4,0,4.3,2,4.3,4.3v1.7
		C154.3-409.7,152.4-407.8,150-407.8z"/>
	<path class="st22" d="M146-392.3h-35.1c-0.7,0-1.2-0.5-1.2-1.2v-0.5c0-0.7,0.5-1.2,1.2-1.2H146c0.7,0,1.2,0.5,1.2,1.2v0.5
		C147.2-392.8,146.7-392.3,146-392.3z"/>
	<path class="st23" d="M155.6-377.1h-49.3c-1,0-1.8-0.8-1.8-1.8v-0.7c0-1,0.8-1.8,1.8-1.8h49.3c1,0,1.8,0.8,1.8,1.8v0.7
		C157.5-377.9,156.6-377.1,155.6-377.1z"/>
	<path class="st24" d="M246.1-395.2h-48.5c-1.1,0-2-0.9-2-2v-0.8c0-1.1,0.9-2,2-2h48.5c1.1,0,2,0.9,2,2v0.8
		C248.2-396.1,247.2-395.2,246.1-395.2z"/>
	<path class="st25" d="M237.1-377.1h-39.6c-1,0-1.8-0.8-1.8-1.8v-0.7c0-1,0.8-1.8,1.8-1.8h39.6c1,0,1.8,0.8,1.8,1.8v0.7
		C238.9-377.9,238.1-377.1,237.1-377.1z"/>
	<path class="st26" d="M226.1-354.5h-38.9c-2,0-3.6-1.6-3.6-3.6v-1.4c0-2,1.6-3.6,3.6-3.6h38.9c2,0,3.6,1.6,3.6,3.6v1.4
		C229.7-356.1,228.1-354.5,226.1-354.5z"/>
	<path class="st27" d="M172.3-358.8H142c-1.2,0-2.3-1-2.3-2.3v-0.9c0-1.2,1-2.3,2.3-2.3h30.3c1.2,0,2.3,1,2.3,2.3v0.9
		C174.5-359.8,173.5-358.8,172.3-358.8z"/>
	<path class="st28" d="M139.4-355.3h-32.3c-1.4,0-2.6-1.2-2.6-2.6v-1c0-1.4,1.2-2.6,2.6-2.6h32.3c1.4,0,2.6,1.2,2.6,2.6v1
		C142-356.5,140.8-355.3,139.4-355.3z"/>
	<path class="st26" d="M161.9-339.5h-45.6c-0.8,0-1.4-0.7-1.4-1.4v-0.6c0-0.8,0.7-1.4,1.4-1.4h45.6c0.8,0,1.4,0.7,1.4,1.4v0.6
		C163.4-340.1,162.7-339.5,161.9-339.5z"/>
	<path class="st6" d="M236.3-328.5h-27.1c-1.5,0-2.7-1.2-2.7-2.7v-1c0-1.5,1.2-2.7,2.7-2.7h27.1c1.5,0,2.7,1.2,2.7,2.7v1
		C238.9-329.7,237.7-328.5,236.3-328.5z"/>
	<path class="st26" d="M241-421h-50.9c-1.7,0-3.1-1.4-3.1-3.1v-1.2c0-1.7,1.4-3.1,3.1-3.1H241c1.7,0,3.1,1.4,3.1,3.1v1.2
		C244.1-422.4,242.7-421,241-421z"/>
	<path class="st26" d="M247-410.1h-39.2c-0.7,0-1.2-0.5-1.2-1.2v-0.5c0-0.7,0.5-1.2,1.2-1.2H247c0.7,0,1.2,0.5,1.2,1.2v0.5
		C248.2-410.6,247.6-410.1,247-410.1z"/>
	<path class="st26" d="M265.2-361.5h-21.6c-1,0-1.9-0.8-1.9-1.9v-0.7c0-1,0.8-1.9,1.9-1.9h21.6c1,0,1.9,0.8,1.9,1.9v0.7
		C267.1-362.4,266.3-361.5,265.2-361.5z"/>
	<path class="st26" d="M266.6-338.7h-22.8c-1.1,0-2-0.9-2-2v-0.8c0-1.1,0.9-2,2-2h22.8c1.1,0,2,0.9,2,2v0.8
		C268.6-339.6,267.7-338.7,266.6-338.7z"/>
	<path class="st26" d="M215.7-336.1h-38.1c-1.7,0-3-1.4-3-3v-1.2c0-1.7,1.4-3,3-3h38.1c1.7,0,3,1.4,3,3v1.2
		C218.7-337.5,217.4-336.1,215.7-336.1z"/>
	<path class="st26" d="M164.4-336.1h-23.2c-1.2,0-2.1-1-2.1-2.1v-0.8c0-1.2,1-2.1,2.1-2.1h23.2c1.2,0,2.1,1,2.1,2.1v0.8
		C166.5-337.1,165.6-336.1,164.4-336.1z"/>
</g>
<rect x="6.5" y="188.2" class="st8" width="206.8" height="7.7"/>
<g class="st29">
	<line class="st30" x1="114.5" y1="253.5" x2="114.5" y2="276"/>
	<line class="st30" x1="195" y1="253.5" x2="195" y2="276"/>
	<line class="st30" x1="96.4" y1="276" x2="209.2" y2="276"/>
	<line class="st30" x1="96.4" y1="302.4" x2="209.2" y2="302.4"/>
	<line class="st30" x1="96.4" y1="328.9" x2="209.2" y2="328.9"/>
	<line class="st30" x1="153.2" y1="276" x2="153.2" y2="301.8"/>
	<line class="st30" x1="114.5" y1="302.4" x2="114.5" y2="328.9"/>
	<line class="st30" x1="195" y1="302.4" x2="195" y2="328.9"/>
	<line class="st30" x1="153.2" y1="328.9" x2="153.2" y2="339.2"/>
</g>
<g>
	<polygon class="st2" points="136.5,396.6 109.5,396.6 111.6,388.8 134.4,388.8 	"/>
	<rect x="106.6" y="394.7" class="st31" width="34.9" height="7.5"/>
	<polygon class="st19" points="133.1,436.3 113.8,436.3 110.4,402.2 136.5,402.2 	"/>
	<polygon class="st2" points="134.4,422.8 112.6,423.2 111.2,412.1 135.5,412.1 	"/>
</g>
<g class="st29">
	<line class="st32" x1="284.2" y1="153.6" x2="284.2" y2="176.1"/>
	<line class="st32" x1="364.8" y1="153.6" x2="364.8" y2="176.1"/>
	<line class="st32" x1="266.2" y1="176.1" x2="378.9" y2="176.1"/>
	<line class="st32" x1="266.2" y1="202.6" x2="378.9" y2="202.6"/>
	<line class="st32" x1="266.2" y1="229" x2="378.9" y2="229"/>
	<line class="st32" x1="323" y1="176.1" x2="323" y2="201.9"/>
	<line class="st32" x1="284.2" y1="202.6" x2="284.2" y2="229"/>
	<line class="st32" x1="364.8" y1="202.6" x2="364.8" y2="229"/>
	<line class="st32" x1="323" y1="229" x2="323" y2="239.3"/>
</g>
<g class="st29">
	<line class="st32" x1="441.1" y1="253.5" x2="441.1" y2="276"/>
	<line class="st32" x1="521.7" y1="253.5" x2="521.7" y2="276"/>
	<line class="st32" x1="423.1" y1="276" x2="535.9" y2="276"/>
	<line class="st32" x1="423.1" y1="302.4" x2="535.9" y2="302.4"/>
	<line class="st32" x1="423.1" y1="328.9" x2="535.9" y2="328.9"/>
	<line class="st32" x1="479.9" y1="276" x2="479.9" y2="301.8"/>
	<line class="st32" x1="441.1" y1="302.4" x2="441.1" y2="328.9"/>
	<line class="st32" x1="521.7" y1="302.4" x2="521.7" y2="328.9"/>
	<line class="st32" x1="479.9" y1="328.9" x2="479.9" y2="339.2"/>
</g>
<path class="st19" d="M213.3,188.2c0,2.1-1.7,3.9-3.9,3.9H10.4c-2.1,0-3.9-1.7-3.9-3.9v-13.5c0-2.1,1.7-3.9,3.9-3.9h199.1
	c2.1,0,3.9,1.7,3.9,3.9V188.2z"/>
<rect x="27.4" y="89.2" class="st19" width="21.9" height="81.7"/>
<rect x="27.4" y="113" class="st2" width="14.2" height="34.5"/>
<rect x="27.4" y="96.9" class="st33" width="20.3" height="2.6"/>
<rect x="27.4" y="102.7" class="st33" width="20.3" height="2.6"/>
<rect x="49.4" y="89.2" class="st2" width="14.2" height="81.7"/>
<rect x="53.9" y="98.2" class="st19" width="6.4" height="64.4"/>
<rect x="90.3" y="93.4" transform="matrix(0.7271 -0.6866 0.6866 0.7271 -66.2369 104.3984)" class="st2" width="15.8" height="84.2"/>
<rect x="95.8" y="100.5" transform="matrix(0.7272 -0.6864 0.6864 0.7272 -66.2315 104.3722)" class="st19" width="4.8" height="70.1"/>
<line class="st34" x1="16.8" y1="181.5" x2="198.5" y2="181.5"/>
<path class="st2" d="M198.5,170.8V95.6c0-2.1-1.7-3.9-3.9-3.9h-50.9c-2.1,0-3.9,1.7-3.9,3.9v75.2H198.5z"/>
<circle class="st19" cx="170.2" cy="111.1" r="11.7"/>
<circle class="st4" cx="170.2" cy="111.1" r="5.6"/>
<circle class="st35" cx="170.2" cy="147.5" r="5.6"/>
<circle class="st19" cx="170.2" cy="147.5" r="18.6"/>
<circle class="st2" cx="170.2" cy="147.5" r="11.7"/>
<circle class="st4" cx="170.2" cy="147.5" r="5.6"/>
<circle class="st4" cx="189" cy="102.7" r="2.6"/>
<g>
	<path class="st36" d="M1419.1,1301c0,2.1-1.7,3.9-3.9,3.9h-305.4c-2.1,0-3.9-1.7-3.9-3.9v-10.6c0-2.1,1.7-3.9,3.9-3.9h305.4
		c2.1,0,3.9,1.7,3.9,3.9V1301z"/>
	<g>
		<path class="st35" d="M1402.3,1288.5c0,6.9-5.6,12.6-12.6,12.6h-254.5c-6.9,0-12.6-5.6-12.6-12.6v-123.1c0-6.9,5.6-12.6,12.6-12.6
			h254.5c6.9,0,12.6,5.6,12.6,12.6V1288.5z"/>
		<path class="st37" d="M1270.4,1206.3c0,0-6.9,1-6.4,8.1C1264,1214.4,1271.7,1212.9,1270.4,1206.3z"/>
		<path class="st37" d="M1272.7,1225c0-2.8,1.6-5.2,3.9-6.5c-3-3.1-9.1-2.5-12.7-0.4c-4.3-2.5-11.8-2.8-13.8,2.3
			c-1.7,4.4-0.4,9.1,1.1,13.3c1,2.6,1.8,6,4.2,7.7c2.5,1.8,6.5,0.7,8.6-1.4c2.1,2.1,6.1,3.2,8.6,1.4c2.4-1.7,3.2-5.1,4.2-7.7
			c0.2-0.6,0.5-1.3,0.7-1.9C1274.7,1230.8,1272.7,1228.1,1272.7,1225z"/>
	</g>
	<path class="st38" d="M1392.5,1153.6l2.3,0l1.2,145.3l-3.2,1c3.3,0,9.5-4.5,9.5-11.4v-123.1
		C1402.3,1158.5,1395.8,1153.6,1392.5,1153.6z"/>
	<path class="st33" d="M1125.6,1287.4c0,0.6,0.5,1.1,1.1,1.1l0,0c0.6,0,1.1-0.5,1.1-1.1v-125.1c0-0.6-0.5-1.1-1.1-1.1l0,0
		c-0.6,0-1.1,0.5-1.1,1.1V1287.4z"/>
</g>
<g>
	<circle class="st19" cx="314.5" cy="162.1" r="21.5"/>
	<line class="st1" x1="313.6" y1="24.1" x2="313.6" y2="102.1"/>
	<circle class="st19" cx="313.6" cy="102.1" r="5.4"/>
	<path class="st2" d="M368.2,160.4c0-0.7,0-1.3,0-2c0-29.7-24.1-53.8-53.8-53.8c-29.7,0-53.8,24.1-53.8,53.8c0,0.7,0,1.3,0.1,2
		H368.2z"/>
	<line class="st1" x1="201.7" y1="24.1" x2="413.1" y2="24.1"/>
	<line class="st1" x1="425" y1="24.1" x2="481.4" y2="24.1"/>
	<path class="st20" d="M323,105.3c0,0,41.4,18.7,42.1,55.1h3.2C368.2,160.4,371.2,117.5,323,105.3z"/>
	<path class="st1" d="M346.6,118.4c0,0,8.5,5.4,15.1,20.9"/>
	<path class="st39" d="M304.2,112.1c0,0-34.2,12.2-34.2,43.8"/>
	<path class="st39" d="M296.5,163c0,0,2.1,11.9,11.8,14.2"/>
	<path class="st39" d="M311.3,177.8c0,0,3.5,0.8,6.3,0"/>
</g>
<g>
	<line class="st5" x1="41.6" y1="437.7" x2="80.8" y2="437.7"/>
	<line class="st5" x1="93.8" y1="437.7" x2="621.5" y2="437.7"/>
	<line class="st5" x1="637.5" y1="437.7" x2="656.3" y2="437.7"/>
</g>
<polygon class="st40" points="110.4,402.2 110.8,406.2 136.1,406.2 136.5,402.2 "/>
<g>
	<line class="st15" x1="165.9" y1="240.3" x2="347.2" y2="240.3"/>
	<line class="st15" x1="356.4" y1="240.3" x2="371.6" y2="240.3"/>
	<g>
		<line class="st7" x1="347.2" y1="357.7" x2="347.2" y2="363.6"/>
		<line class="st7" x1="371.6" y1="357.7" x2="371.6" y2="363.6"/>
		<line class="st7" x1="359.7" y1="353.8" x2="359.7" y2="366.2"/>
	</g>
	<path class="st16" d="M394,388v-12.5c0,0,0,12.5-8.6,13.2H332l-32.3-73.2l-57.3,2.8L212,387.4h-56.7c0,0-9.2,1.3-9.2-7.9v8.6
		c0,1.4,0.3,2.7,0.8,3.9c1.6,2.4,4.4,4.6,9.1,6h68.8h159.3C389.6,397.9,394,393.5,394,388z"/>
	<path class="st17" d="M307,426c0,5.5-3,9.9-6.7,9.9h-58c-3.7,0-6.7-4.4-6.7-9.9l16.5-110.4c0-5.5,3-9.9,6.7-9.9h25
		c3.7,0,6.7,4.4,6.7,9.9L307,426z"/>
	<circle class="st18" cx="270.7" cy="335.3" r="13.2"/>
	<path class="st19" d="M384.1,228.5H156c-5.5,0-9.9,4.4-9.9,9.9v142.5H394V238.4C394,232.9,389.6,228.5,384.1,228.5z"/>
	<rect x="153.4" y="237.8" class="st6" width="233.4" height="133.2"/>
	<path class="st20" d="M146.1,388c0,5.5,4.4,9.9,9.9,9.9h228.1c5.5,0,9.9-4.4,9.9-9.9v-7.2H146.1V388z"/>
	<path class="st21" d="M229.1,274.4h-36.4c-2.4,0-4.3-2-4.3-4.3v-3.2c0-2.4,2-4.3,4.3-4.3h36.4c2.4,0,4.3,2,4.3,4.3v3.2
		C233.4,272.4,231.5,274.4,229.1,274.4z"/>
	<path class="st22" d="M224.1,292.1h-40.4c-0.7,0-1.2-0.5-1.2-1.2V290c0-0.7,0.5-1.2,1.2-1.2h40.4c0.7,0,1.2,0.5,1.2,1.2v0.9
		C225.3,291.6,224.7,292.1,224.1,292.1z"/>
	<path class="st23" d="M235.2,309.4h-56.8c-1,0-1.8-0.8-1.8-1.8v-1.4c0-1,0.8-1.8,1.8-1.8h56.8c1,0,1.8,0.8,1.8,1.8v1.4
		C237,308.6,236.2,309.4,235.2,309.4z"/>
	<path class="st24" d="M338.6,288.8h-56c-1.1,0-2-0.9-2-2v-1.5c0-1.1,0.9-2,2-2h56c1.1,0,2,0.9,2,2v1.5
		C340.7,287.9,339.8,288.8,338.6,288.8z"/>
	<path class="st25" d="M328.3,309.4h-45.8c-1,0-1.8-0.8-1.8-1.8v-1.4c0-1,0.8-1.8,1.8-1.8h45.8c1,0,1.8,0.8,1.8,1.8v1.4
		C330.1,308.6,329.3,309.4,328.3,309.4z"/>
	<path class="st26" d="M315.9,335.3h-45.5c-2,0-3.6-1.6-3.6-3.6V329c0-2,1.6-3.6,3.6-3.6h45.5c2,0,3.6,1.6,3.6,3.6v2.7
		C319.6,333.7,317.9,335.3,315.9,335.3z"/>
	<path class="st27" d="M254.3,330.3H219c-1.2,0-2.3-1-2.3-2.3v-1.7c0-1.2,1-2.3,2.3-2.3h35.3c1.2,0,2.3,1,2.3,2.3v1.7
		C256.5,329.3,255.5,330.3,254.3,330.3z"/>
	<path class="st28" d="M216.8,334.3h-37.7c-1.4,0-2.6-1.2-2.6-2.6v-1.9c0-1.4,1.2-2.6,2.6-2.6h37.7c1.4,0,2.6,1.2,2.6,2.6v1.9
		C219.3,333.1,218.2,334.3,216.8,334.3z"/>
	<path class="st26" d="M242.3,352.4h-52.5c-0.8,0-1.4-0.7-1.4-1.4v-1.1c0-0.8,0.7-1.4,1.4-1.4h52.5c0.8,0,1.4,0.7,1.4,1.4v1.1
		C243.7,351.8,243.1,352.4,242.3,352.4z"/>
	<path class="st6" d="M327.5,365h-31.7c-1.5,0-2.7-1.2-2.7-2.7v-2c0-1.5,1.2-2.7,2.7-2.7h31.7c1.5,0,2.7,1.2,2.7,2.7v2
		C330.1,363.8,328.9,365,327.5,365z"/>
	<path class="st26" d="M332.9,259.2h-59.1c-1.7,0-3.1-1.4-3.1-3.1v-2.3c0-1.7,1.4-3.1,3.1-3.1h59.1c1.7,0,3.1,1.4,3.1,3.1v2.3
		C336,257.8,334.6,259.2,332.9,259.2z"/>
	<path class="st26" d="M339.5,271.8h-45.1c-0.7,0-1.2-0.5-1.2-1.2v-0.9c0-0.7,0.5-1.2,1.2-1.2h45.1c0.7,0,1.2,0.5,1.2,1.2v0.9
		C340.7,271.2,340.1,271.8,339.5,271.8z"/>
	<path class="st26" d="M360.5,327.2h-25.2c-1,0-1.9-0.8-1.9-1.9V324c0-1,0.8-1.9,1.9-1.9h25.2c1,0,1.9,0.8,1.9,1.9v1.4
		C362.3,326.4,361.5,327.2,360.5,327.2z"/>
	<path class="st26" d="M362,353.3h-26.7c-1.1,0-2-0.9-2-2v-1.4c0-1.1,0.9-2,2-2H362c1.1,0,2,0.9,2,2v1.4
		C364,352.4,363.1,353.3,362,353.3z"/>
	<path class="st26" d="M304,356.3h-44.4c-1.7,0-3-1.4-3-3V351c0-1.7,1.4-3,3-3H304c1.7,0,3,1.4,3,3v2.2
		C307,354.9,305.7,356.3,304,356.3z"/>
	<path class="st26" d="M245.3,356.3h-27.1c-1.2,0-2.1-1-2.1-2.1l0-1.6c0-1.2,1-2.1,2.1-2.1h27.1c1.2,0,2.1,1,2.1,2.1v1.6
		C247.4,355.3,246.4,356.3,245.3,356.3z"/>
</g>
<g>
	<g>
		<polygon class="st9" points="557.1,436.3 493.3,436.3 496.8,427.9 552.8,427.9 		"/>
		<circle class="st9" cx="573.5" cy="350" r="7.8"/>
		<circle class="st6" cx="573.5" cy="350" r="3.2"/>
		<polygon class="st9" points="567.3,354.6 523.1,427.9 532.6,427.9 573.5,357.8 		"/>
		<line class="st41" x1="558.5" y1="357.8" x2="573.5" y2="366"/>
		<polygon class="st9" points="565.7,350 523.1,325.2 525.1,317.7 569.3,343.5 		"/>
		<path class="st11" d="M470,304.1l25.9,47.3c0,0,39.5-26,27.1-45.9C523.1,305.6,514.2,288.5,470,304.1z"/>
		<path class="st4" d="M509,341.1C509,341.1,509,341.1,509,341.1l9.3-10l-20.5-33.4c-0.7,0-1.4,0.1-2.1,0.2l-10.4,1.8l0,0L509,341.1
			z"/>
		<path class="st4" d="M479.5,321.3c-0.1-0.2-2.8,2.2-3,2.4c-1.5,1.3-2.9,2.7-3.4,4.7c-0.7,3.2,2.1,4.9,4.8,5.5
			c1.9,0.4,3.9,0.6,5.8,0.8c0.4,0,3.2,0.1,3.3,0.4C487,335.1,479.5,321.4,479.5,321.3z"/>
		<circle class="st19" cx="525.5" cy="305.1" r="5.1"/>
		<line class="st42" x1="520.4" y1="297.5" x2="530.6" y2="313.1"/>
	</g>
	<g>
		<rect x="438.6" y="392.6" class="st6" width="44.6" height="9.8"/>
		<path class="st2" d="M444,402.4v15.9c-0.5,2,0.5,7.8,0.5,7.8c2.6,7.9,7.6,10.8,16.4,10.8c8.6,0,15-2.8,16-10.8l0,0v-23.7H444z"/>
		<polygon class="st2" points="452.3,392.6 444.6,392.6 444.6,377.8 444.6,370.7 452.3,370.7 		"/>
		<line class="st3" x1="444.6" y1="377.8" x2="452.3" y2="377.8"/>
		<polygon class="st2" points="462.3,371.6 455.6,392.6 463.3,392.6 469.2,373.6 		"/>
		<line class="st3" x1="460.4" y1="379" x2="466.9" y2="381"/>
		<line class="st3" x1="465.5" y1="372.5" x2="468.3" y2="365.8"/>
		<polygon class="st2" points="476.9,366.6 475.4,375.2 472.3,392.6 478.8,392.6 483.3,368.1 		"/>
		<line class="st3" x1="475.4" y1="375.2" x2="481.7" y2="376.8"/>
		<line class="st10" x1="472.9" y1="406.8" x2="472.9" y2="419.6"/>
		<line class="st10" x1="472.9" y1="423.5" x2="472.9" y2="428.4"/>
	</g>
	<rect x="444" y="402.4" class="st14" width="32.9" height="3.3"/>
</g>
</svg>
